<ttFont>
<head>
    <!-- Most of this table will be recalculated by the compiler -->
    <tableVersion value="1.0"/>
    <fontRevision value="5.0"/>
    <checkSumAdjustment value="0x32f1aad0"/>
    <magicNumber value="0x5f0f3cf5"/>
    <flags value="00000000 00001011"/>
    <unitsPerEm value="2048"/>
    <created value="Sun May 15 08:57:39 2005"/>
    <modified value="Thu Apr 14 14:35:32 2011"/>
    <xMin value="-103"/>
    <yMin value="-1173"/>
    <xMax value="6679"/>
    <yMax value="2338"/>
    <macStyle value="00000000 00000000"/>
    <lowestRecPPEM value="8"/>
    <fontDirectionHint value="2"/>
    <indexToLocFormat value="1"/>
    <glyphDataFormat value="0"/>
  </head>
    <TTGlyph name=".notdef" xMin="142" yMin="226" xMax="842" yMax="1588">
      <contour>
        <pt x="142" y="226" on="1"/>
        <pt x="142" y="1588" on="1"/>
        <pt x="842" y="1588" on="1"/>
        <pt x="842" y="226" on="1"/>
      </contour>
      <contour>
        <pt x="284" y="368" on="1"/>
        <pt x="700" y="368" on="1"/>
        <pt x="700" y="1447" on="1"/>
        <pt x="284" y="1447" on="1"/>
      </contour>
    </TTGlyph>
    <TTGlyph name=".null" xMin="142" yMin="226" xMax="842" yMax="1588">
      <contour>
        <pt x="142" y="226" on="1"/>
        <pt x="142" y="1588" on="1"/>
        <pt x="842" y="1588" on="1"/>
        <pt x="842" y="226" on="1"/>
      </contour>
      <contour>
        <pt x="284" y="368" on="1"/>
        <pt x="700" y="368" on="1"/>
        <pt x="700" y="1447" on="1"/>
        <pt x="284" y="1447" on="1"/>
      </contour>
    </TTGlyph>
    <TTGlyph name="afii57381" xMin="142" yMin="226" xMax="842" yMax="1588">
      <contour>
        <pt x="142" y="226" on="1"/>
        <pt x="142" y="1588" on="1"/>
        <pt x="842" y="1588" on="1"/>
        <pt x="842" y="226" on="1"/>
      </contour>
      <contour>
        <pt x="284" y="368" on="1"/>
        <pt x="700" y="368" on="1"/>
        <pt x="700" y="1447" on="1"/>
        <pt x="284" y="1447" on="1"/>
      </contour>
    </TTGlyph>
    <TTGlyph name="afii57388" xMin="142" yMin="226" xMax="842" yMax="1588">
      <contour>
        <pt x="142" y="226" on="1"/>
        <pt x="142" y="1588" on="1"/>
        <pt x="842" y="1588" on="1"/>
        <pt x="842" y="226" on="1"/>
      </contour>
      <contour>
        <pt x="284" y="368" on="1"/>
        <pt x="700" y="368" on="1"/>
        <pt x="700" y="1447" on="1"/>
        <pt x="284" y="1447" on="1"/>
      </contour>
    </TTGlyph>
    <TTGlyph name="afii57396" xMin="142" yMin="226" xMax="842" yMax="1588">
      <contour>
        <pt x="142" y="226" on="1"/>
        <pt x="142" y="1588" on="1"/>
        <pt x="842" y="1588" on="1"/>
        <pt x="842" y="226" on="1"/>
      </contour>
      <contour>
        <pt x="284" y="368" on="1"/>
        <pt x="700" y="368" on="1"/>
        <pt x="700" y="1447" on="1"/>
        <pt x="284" y="1447" on="1"/>
      </contour>
    </TTGlyph>
    <TTGlyph name="afii57397" xMin="142" yMin="226" xMax="842" yMax="1588">
      <contour>
        <pt x="142" y="226" on="1"/>
        <pt x="142" y="1588" on="1"/>
        <pt x="842" y="1588" on="1"/>
        <pt x="842" y="226" on="1"/>
      </contour>
      <contour>
        <pt x="284" y="368" on="1"/>
        <pt x="700" y="368" on="1"/>
        <pt x="700" y="1447" on="1"/>
        <pt x="284" y="1447" on="1"/>
      </contour>
    </TTGlyph>
    <TTGlyph name="afii57398" xMin="142" yMin="226" xMax="842" yMax="1588">
      <contour>
        <pt x="142" y="226" on="1"/>
        <pt x="142" y="1588" on="1"/>
        <pt x="842" y="1588" on="1"/>
        <pt x="842" y="226" on="1"/>
      </contour>
      <contour>
        <pt x="284" y="368" on="1"/>
        <pt x="700" y="368" on="1"/>
        <pt x="700" y="1447" on="1"/>
        <pt x="284" y="1447" on="1"/>
      </contour>
    </TTGlyph>
    <TTGlyph name="afii57403" xMin="142" yMin="226" xMax="842" yMax="1588">
      <contour>
        <pt x="142" y="226" on="1"/>
        <pt x="142" y="1588" on="1"/>
        <pt x="842" y="1588" on="1"/>
        <pt x="842" y="226" on="1"/>
      </contour>
      <contour>
        <pt x="284" y="368" on="1"/>
        <pt x="700" y="368" on="1"/>
        <pt x="700" y="1447" on="1"/>
        <pt x="284" y="1447" on="1"/>
      </contour>
    </TTGlyph>
    <TTGlyph name="afii57407" xMin="142" yMin="226" xMax="842" yMax="1588">
      <contour>
        <pt x="142" y="226" on="1"/>
        <pt x="142" y="1588" on="1"/>
        <pt x="842" y="1588" on="1"/>
        <pt x="842" y="226" on="1"/>
      </contour>
      <contour>
        <pt x="284" y="368" on="1"/>
        <pt x="700" y="368" on="1"/>
        <pt x="700" y="1447" on="1"/>
        <pt x="284" y="1447" on="1"/>
      </contour>
    </TTGlyph>
    <TTGlyph name="afii57440" xMin="142" yMin="226" xMax="842" yMax="1588">
      <contour>
        <pt x="142" y="226" on="1"/>
        <pt x="142" y="1588" on="1"/>
        <pt x="842" y="1588" on="1"/>
        <pt x="842" y="226" on="1"/>
      </contour>
      <contour>
        <pt x="284" y="368" on="1"/>
        <pt x="700" y="368" on="1"/>
        <pt x="700" y="1447" on="1"/>
        <pt x="284" y="1447" on="1"/>
      </contour>
    </TTGlyph>
    <TTGlyph name="afii57451" xMin="142" yMin="226" xMax="842" yMax="1588">
      <contour>
        <pt x="142" y="226" on="1"/>
        <pt x="142" y="1588" on="1"/>
        <pt x="842" y="1588" on="1"/>
        <pt x="842" y="226" on="1"/>
      </contour>
      <contour>
        <pt x="284" y="368" on="1"/>
        <pt x="700" y="368" on="1"/>
        <pt x="700" y="1447" on="1"/>
        <pt x="284" y="1447" on="1"/>
      </contour>
    </TTGlyph>
    <TTGlyph name="afii57452" xMin="142" yMin="226" xMax="842" yMax="1588">
      <contour>
        <pt x="142" y="226" on="1"/>
        <pt x="142" y="1588" on="1"/>
        <pt x="842" y="1588" on="1"/>
        <pt x="842" y="226" on="1"/>
      </contour>
      <contour>
        <pt x="284" y="368" on="1"/>
        <pt x="700" y="368" on="1"/>
        <pt x="700" y="1447" on="1"/>
        <pt x="284" y="1447" on="1"/>
      </contour>
    </TTGlyph>
    <TTGlyph name="afii57453" xMin="142" yMin="226" xMax="842" yMax="1588">
      <contour>
        <pt x="142" y="226" on="1"/>
        <pt x="142" y="1588" on="1"/>
        <pt x="842" y="1588" on="1"/>
        <pt x="842" y="226" on="1"/>
      </contour>
      <contour>
        <pt x="284" y="368" on="1"/>
        <pt x="700" y="368" on="1"/>
        <pt x="700" y="1447" on="1"/>
        <pt x="284" y="1447" on="1"/>
      </contour>
    </TTGlyph>
    <TTGlyph name="afii57454" xMin="142" yMin="226" xMax="842" yMax="1588">
      <contour>
        <pt x="142" y="226" on="1"/>
        <pt x="142" y="1588" on="1"/>
        <pt x="842" y="1588" on="1"/>
        <pt x="842" y="226" on="1"/>
      </contour>
      <contour>
        <pt x="284" y="368" on="1"/>
        <pt x="700" y="368" on="1"/>
        <pt x="700" y="1447" on="1"/>
        <pt x="284" y="1447" on="1"/>
      </contour>
    </TTGlyph>
    <TTGlyph name="afii57455" xMin="142" yMin="226" xMax="842" yMax="1588">
      <contour>
        <pt x="142" y="226" on="1"/>
        <pt x="142" y="1588" on="1"/>
        <pt x="842" y="1588" on="1"/>
        <pt x="842" y="226" on="1"/>
      </contour>
      <contour>
        <pt x="284" y="368" on="1"/>
        <pt x="700" y="368" on="1"/>
        <pt x="700" y="1447" on="1"/>
        <pt x="284" y="1447" on="1"/>
      </contour>
    </TTGlyph>
    <TTGlyph name="afii57456" xMin="142" yMin="226" xMax="842" yMax="1588">
      <contour>
        <pt x="142" y="226" on="1"/>
        <pt x="142" y="1588" on="1"/>
        <pt x="842" y="1588" on="1"/>
        <pt x="842" y="226" on="1"/>
      </contour>
      <contour>
        <pt x="284" y="368" on="1"/>
        <pt x="700" y="368" on="1"/>
        <pt x="700" y="1447" on="1"/>
        <pt x="284" y="1447" on="1"/>
      </contour>
    </TTGlyph>
    <TTGlyph name="afii57457" xMin="142" yMin="226" xMax="842" yMax="1588">
      <contour>
        <pt x="142" y="226" on="1"/>
        <pt x="142" y="1588" on="1"/>
        <pt x="842" y="1588" on="1"/>
        <pt x="842" y="226" on="1"/>
      </contour>
      <contour>
        <pt x="284" y="368" on="1"/>
        <pt x="700" y="368" on="1"/>
        <pt x="700" y="1447" on="1"/>
        <pt x="284" y="1447" on="1"/>
      </contour>
    </TTGlyph>
    <TTGlyph name="afii57458" xMin="142" yMin="226" xMax="842" yMax="1588">
      <contour>
        <pt x="142" y="226" on="1"/>
        <pt x="142" y="1588" on="1"/>
        <pt x="842" y="1588" on="1"/>
        <pt x="842" y="226" on="1"/>
      </contour>
      <contour>
        <pt x="284" y="368" on="1"/>
        <pt x="700" y="368" on="1"/>
        <pt x="700" y="1447" on="1"/>
        <pt x="284" y="1447" on="1"/>
      </contour>
    </TTGlyph>
    <TTGlyph name="afii57505" xMin="142" yMin="226" xMax="842" yMax="1588">
      <contour>
        <pt x="142" y="226" on="1"/>
        <pt x="142" y="1588" on="1"/>
        <pt x="842" y="1588" on="1"/>
        <pt x="842" y="226" on="1"/>
      </contour>
      <contour>
        <pt x="284" y="368" on="1"/>
        <pt x="700" y="368" on="1"/>
        <pt x="700" y="1447" on="1"/>
        <pt x="284" y="1447" on="1"/>
      </contour>
    </TTGlyph>
    <TTGlyph name="afii57506" xMin="142" yMin="226" xMax="842" yMax="1588">
      <contour>
        <pt x="142" y="226" on="1"/>
        <pt x="142" y="1588" on="1"/>
        <pt x="842" y="1588" on="1"/>
        <pt x="842" y="226" on="1"/>
      </contour>
      <contour>
        <pt x="284" y="368" on="1"/>
        <pt x="700" y="368" on="1"/>
        <pt x="700" y="1447" on="1"/>
        <pt x="284" y="1447" on="1"/>
      </contour>
    </TTGlyph>
    <TTGlyph name="afii57507" xMin="142" yMin="226" xMax="842" yMax="1588">
      <contour>
        <pt x="142" y="226" on="1"/>
        <pt x="142" y="1588" on="1"/>
        <pt x="842" y="1588" on="1"/>
        <pt x="842" y="226" on="1"/>
      </contour>
      <contour>
        <pt x="284" y="368" on="1"/>
        <pt x="700" y="368" on="1"/>
        <pt x="700" y="1447" on="1"/>
        <pt x="284" y="1447" on="1"/>
      </contour>
    </TTGlyph>
    <TTGlyph name="afii57508" xMin="142" yMin="226" xMax="842" yMax="1588">
      <contour>
        <pt x="142" y="226" on="1"/>
        <pt x="142" y="1588" on="1"/>
        <pt x="842" y="1588" on="1"/>
        <pt x="842" y="226" on="1"/>
      </contour>
      <contour>
        <pt x="284" y="368" on="1"/>
        <pt x="700" y="368" on="1"/>
        <pt x="700" y="1447" on="1"/>
        <pt x="284" y="1447" on="1"/>
      </contour>
    </TTGlyph>
    <TTGlyph name="afii57509" xMin="142" yMin="226" xMax="842" yMax="1588">
      <contour>
        <pt x="142" y="226" on="1"/>
        <pt x="142" y="1588" on="1"/>
        <pt x="842" y="1588" on="1"/>
        <pt x="842" y="226" on="1"/>
      </contour>
      <contour>
        <pt x="284" y="368" on="1"/>
        <pt x="700" y="368" on="1"/>
        <pt x="700" y="1447" on="1"/>
        <pt x="284" y="1447" on="1"/>
      </contour>
    </TTGlyph>
    <TTGlyph name="afii57511" xMin="142" yMin="226" xMax="842" yMax="1588">
      <contour>
        <pt x="142" y="226" on="1"/>
        <pt x="142" y="1588" on="1"/>
        <pt x="842" y="1588" on="1"/>
        <pt x="842" y="226" on="1"/>
      </contour>
      <contour>
        <pt x="284" y="368" on="1"/>
        <pt x="700" y="368" on="1"/>
        <pt x="700" y="1447" on="1"/>
        <pt x="284" y="1447" on="1"/>
      </contour>
    </TTGlyph>
    <TTGlyph name="afii57512" xMin="142" yMin="226" xMax="842" yMax="1588">
      <contour>
        <pt x="142" y="226" on="1"/>
        <pt x="142" y="1588" on="1"/>
        <pt x="842" y="1588" on="1"/>
        <pt x="842" y="226" on="1"/>
      </contour>
      <contour>
        <pt x="284" y="368" on="1"/>
        <pt x="700" y="368" on="1"/>
        <pt x="700" y="1447" on="1"/>
        <pt x="284" y="1447" on="1"/>
      </contour>
    </TTGlyph>
    <TTGlyph name="afii57513" xMin="142" yMin="226" xMax="842" yMax="1588">
      <contour>
        <pt x="142" y="226" on="1"/>
        <pt x="142" y="1588" on="1"/>
        <pt x="842" y="1588" on="1"/>
        <pt x="842" y="226" on="1"/>
      </contour>
      <contour>
        <pt x="284" y="368" on="1"/>
        <pt x="700" y="368" on="1"/>
        <pt x="700" y="1447" on="1"/>
        <pt x="284" y="1447" on="1"/>
      </contour>
    </TTGlyph>
    <TTGlyph name="afii57514" xMin="142" yMin="226" xMax="842" yMax="1588">
      <contour>
        <pt x="142" y="226" on="1"/>
        <pt x="142" y="1588" on="1"/>
        <pt x="842" y="1588" on="1"/>
        <pt x="842" y="226" on="1"/>
      </contour>
      <contour>
        <pt x="284" y="368" on="1"/>
        <pt x="700" y="368" on="1"/>
        <pt x="700" y="1447" on="1"/>
        <pt x="284" y="1447" on="1"/>
      </contour>
    </TTGlyph>
    <TTGlyph name="afii57519" xMin="142" yMin="226" xMax="842" yMax="1588">
      <contour>
        <pt x="142" y="226" on="1"/>
        <pt x="142" y="1588" on="1"/>
        <pt x="842" y="1588" on="1"/>
        <pt x="842" y="226" on="1"/>
      </contour>
      <contour>
        <pt x="284" y="368" on="1"/>
        <pt x="700" y="368" on="1"/>
        <pt x="700" y="1447" on="1"/>
        <pt x="284" y="1447" on="1"/>
      </contour>
    </TTGlyph>
    <TTGlyph name="afii57534" xMin="142" yMin="226" xMax="842" yMax="1588">
      <contour>
        <pt x="142" y="226" on="1"/>
        <pt x="142" y="1588" on="1"/>
        <pt x="842" y="1588" on="1"/>
        <pt x="842" y="226" on="1"/>
      </contour>
      <contour>
        <pt x="284" y="368" on="1"/>
        <pt x="700" y="368" on="1"/>
        <pt x="700" y="1447" on="1"/>
        <pt x="284" y="1447" on="1"/>
      </contour>
    </TTGlyph>
    <TTGlyph name="afii63167" xMin="142" yMin="226" xMax="842" yMax="1588">
      <contour>
        <pt x="142" y="226" on="1"/>
        <pt x="142" y="1588" on="1"/>
        <pt x="842" y="1588" on="1"/>
        <pt x="842" y="226" on="1"/>
      </contour>
      <contour>
        <pt x="284" y="368" on="1"/>
        <pt x="700" y="368" on="1"/>
        <pt x="700" y="1447" on="1"/>
        <pt x="284" y="1447" on="1"/>
      </contour>
    </TTGlyph>
    <TTGlyph name="alefmaksurainitial" xMin="142" yMin="226" xMax="842" yMax="1588">
      <contour>
        <pt x="142" y="226" on="1"/>
        <pt x="142" y="1588" on="1"/>
        <pt x="842" y="1588" on="1"/>
        <pt x="842" y="226" on="1"/>
      </contour>
      <contour>
        <pt x="284" y="368" on="1"/>
        <pt x="700" y="368" on="1"/>
        <pt x="700" y="1447" on="1"/>
        <pt x="284" y="1447" on="1"/>
      </contour>
    </TTGlyph>
    <TTGlyph name="alefwaslafinalarabic" xMin="142" yMin="226" xMax="842" yMax="1588">
      <contour>
        <pt x="142" y="226" on="1"/>
        <pt x="142" y="1588" on="1"/>
        <pt x="842" y="1588" on="1"/>
        <pt x="842" y="226" on="1"/>
      </contour>
      <contour>
        <pt x="284" y="368" on="1"/>
        <pt x="700" y="368" on="1"/>
        <pt x="700" y="1447" on="1"/>
        <pt x="284" y="1447" on="1"/>
      </contour>
    </TTGlyph>
    <TTGlyph name="ampersand" xMin="142" yMin="226" xMax="842" yMax="1588">
      <contour>
        <pt x="142" y="226" on="1"/>
        <pt x="142" y="1588" on="1"/>
        <pt x="842" y="1588" on="1"/>
        <pt x="842" y="226" on="1"/>
      </contour>
      <contour>
        <pt x="284" y="368" on="1"/>
        <pt x="700" y="368" on="1"/>
        <pt x="700" y="1447" on="1"/>
        <pt x="284" y="1447" on="1"/>
      </contour>
    </TTGlyph>
    <TTGlyph name="asterisk" xMin="142" yMin="226" xMax="842" yMax="1588">
      <contour>
        <pt x="142" y="226" on="1"/>
        <pt x="142" y="1588" on="1"/>
        <pt x="842" y="1588" on="1"/>
        <pt x="842" y="226" on="1"/>
      </contour>
      <contour>
        <pt x="284" y="368" on="1"/>
        <pt x="700" y="368" on="1"/>
        <pt x="700" y="1447" on="1"/>
        <pt x="284" y="1447" on="1"/>
      </contour>
    </TTGlyph>
    <TTGlyph name="behmeemisolatedarabic" xMin="142" yMin="226" xMax="842" yMax="1588">
      <contour>
        <pt x="142" y="226" on="1"/>
        <pt x="142" y="1588" on="1"/>
        <pt x="842" y="1588" on="1"/>
        <pt x="842" y="226" on="1"/>
      </contour>
      <contour>
        <pt x="284" y="368" on="1"/>
        <pt x="700" y="368" on="1"/>
        <pt x="700" y="1447" on="1"/>
        <pt x="284" y="1447" on="1"/>
      </contour>
    </TTGlyph>
    <TTGlyph name="behnoonfinalarabic" xMin="142" yMin="226" xMax="842" yMax="1588">
      <contour>
        <pt x="142" y="226" on="1"/>
        <pt x="142" y="1588" on="1"/>
        <pt x="842" y="1588" on="1"/>
        <pt x="842" y="226" on="1"/>
      </contour>
      <contour>
        <pt x="284" y="368" on="1"/>
        <pt x="700" y="368" on="1"/>
        <pt x="700" y="1447" on="1"/>
        <pt x="284" y="1447" on="1"/>
      </contour>
    </TTGlyph>
    <TTGlyph name="colon" xMin="142" yMin="226" xMax="842" yMax="1588">
      <contour>
        <pt x="142" y="226" on="1"/>
        <pt x="142" y="1588" on="1"/>
        <pt x="842" y="1588" on="1"/>
        <pt x="842" y="226" on="1"/>
      </contour>
      <contour>
        <pt x="284" y="368" on="1"/>
        <pt x="700" y="368" on="1"/>
        <pt x="700" y="1447" on="1"/>
        <pt x="284" y="1447" on="1"/>
      </contour>
    </TTGlyph>
    <TTGlyph name="dagger" xMin="142" yMin="226" xMax="842" yMax="1588">
      <contour>
        <pt x="142" y="226" on="1"/>
        <pt x="142" y="1588" on="1"/>
        <pt x="842" y="1588" on="1"/>
        <pt x="842" y="226" on="1"/>
      </contour>
      <contour>
        <pt x="284" y="368" on="1"/>
        <pt x="700" y="368" on="1"/>
        <pt x="700" y="1447" on="1"/>
        <pt x="284" y="1447" on="1"/>
      </contour>
    </TTGlyph>
    <TTGlyph name="dalringfinal" xMin="142" yMin="226" xMax="842" yMax="1588">
      <contour>
        <pt x="142" y="226" on="1"/>
        <pt x="142" y="1588" on="1"/>
        <pt x="842" y="1588" on="1"/>
        <pt x="842" y="226" on="1"/>
      </contour>
      <contour>
        <pt x="284" y="368" on="1"/>
        <pt x="700" y="368" on="1"/>
        <pt x="700" y="1447" on="1"/>
        <pt x="284" y="1447" on="1"/>
      </contour>
    </TTGlyph>
    <TTGlyph name="ddalfinalarabic" xMin="142" yMin="226" xMax="842" yMax="1588">
      <contour>
        <pt x="142" y="226" on="1"/>
        <pt x="142" y="1588" on="1"/>
        <pt x="842" y="1588" on="1"/>
        <pt x="842" y="226" on="1"/>
      </contour>
      <contour>
        <pt x="284" y="368" on="1"/>
        <pt x="700" y="368" on="1"/>
        <pt x="700" y="1447" on="1"/>
        <pt x="284" y="1447" on="1"/>
      </contour>
    </TTGlyph>
    <TTGlyph name="divide" xMin="142" yMin="226" xMax="842" yMax="1588">
      <contour>
        <pt x="142" y="226" on="1"/>
        <pt x="142" y="1588" on="1"/>
        <pt x="842" y="1588" on="1"/>
        <pt x="842" y="226" on="1"/>
      </contour>
      <contour>
        <pt x="284" y="368" on="1"/>
        <pt x="700" y="368" on="1"/>
        <pt x="700" y="1447" on="1"/>
        <pt x="284" y="1447" on="1"/>
      </contour>
    </TTGlyph>
    <TTGlyph name="dollar" xMin="142" yMin="226" xMax="842" yMax="1588">
      <contour>
        <pt x="142" y="226" on="1"/>
        <pt x="142" y="1588" on="1"/>
        <pt x="842" y="1588" on="1"/>
        <pt x="842" y="226" on="1"/>
      </contour>
      <contour>
        <pt x="284" y="368" on="1"/>
        <pt x="700" y="368" on="1"/>
        <pt x="700" y="1447" on="1"/>
        <pt x="284" y="1447" on="1"/>
      </contour>
    </TTGlyph>
    <TTGlyph name="dotlessyehfinalarabic" xMin="142" yMin="226" xMax="842" yMax="1588">
      <contour>
        <pt x="142" y="226" on="1"/>
        <pt x="142" y="1588" on="1"/>
        <pt x="842" y="1588" on="1"/>
        <pt x="842" y="226" on="1"/>
      </contour>
      <contour>
        <pt x="284" y="368" on="1"/>
        <pt x="700" y="368" on="1"/>
        <pt x="700" y="1447" on="1"/>
        <pt x="284" y="1447" on="1"/>
      </contour>
    </TTGlyph>
    <TTGlyph name="dotlessyehinitialarabic" xMin="142" yMin="226" xMax="842" yMax="1588">
      <contour>
        <pt x="142" y="226" on="1"/>
        <pt x="142" y="1588" on="1"/>
        <pt x="842" y="1588" on="1"/>
        <pt x="842" y="226" on="1"/>
      </contour>
      <contour>
        <pt x="284" y="368" on="1"/>
        <pt x="700" y="368" on="1"/>
        <pt x="700" y="1447" on="1"/>
        <pt x="284" y="1447" on="1"/>
      </contour>
    </TTGlyph>
    <TTGlyph name="dotlessyehmedialarabic" xMin="142" yMin="226" xMax="842" yMax="1588">
      <contour>
        <pt x="142" y="226" on="1"/>
        <pt x="142" y="1588" on="1"/>
        <pt x="842" y="1588" on="1"/>
        <pt x="842" y="226" on="1"/>
      </contour>
      <contour>
        <pt x="284" y="368" on="1"/>
        <pt x="700" y="368" on="1"/>
        <pt x="700" y="1447" on="1"/>
        <pt x="284" y="1447" on="1"/>
      </contour>
    </TTGlyph>
    <TTGlyph name="elefmaksuramedial" xMin="142" yMin="226" xMax="842" yMax="1588">
      <contour>
        <pt x="142" y="226" on="1"/>
        <pt x="142" y="1588" on="1"/>
        <pt x="842" y="1588" on="1"/>
        <pt x="842" y="226" on="1"/>
      </contour>
      <contour>
        <pt x="284" y="368" on="1"/>
        <pt x="700" y="368" on="1"/>
        <pt x="700" y="1447" on="1"/>
        <pt x="284" y="1447" on="1"/>
      </contour>
    </TTGlyph>
    <TTGlyph name="ellipsis" xMin="142" yMin="226" xMax="842" yMax="1588">
      <contour>
        <pt x="142" y="226" on="1"/>
        <pt x="142" y="1588" on="1"/>
        <pt x="842" y="1588" on="1"/>
        <pt x="842" y="226" on="1"/>
      </contour>
      <contour>
        <pt x="284" y="368" on="1"/>
        <pt x="700" y="368" on="1"/>
        <pt x="700" y="1447" on="1"/>
        <pt x="284" y="1447" on="1"/>
      </contour>
    </TTGlyph>
    <TTGlyph name="emdash" xMin="321" yMin="-371" xMax="2369" yMax="1884">
      <contour>
        <pt x="2346" y="1573" on="1"/>
        <pt x="2346" y="1534" on="0"/>
        <pt x="2331" y="1483" on="1"/>
        <pt x="2276" y="1544" on="0"/>
        <pt x="2271" y="1544" on="1"/>
        <pt x="2264" y="1544" on="0"/>
        <pt x="2242" y="1500" on="1"/>
        <pt x="2207" y="1431" on="0"/>
        <pt x="2203" y="1425" on="1"/>
        <pt x="2188" y="1398" on="0"/>
        <pt x="2160" y="1370" on="1"/>
        <pt x="2127" y="1337" on="0"/>
        <pt x="2110" y="1335" on="1"/>
        <pt x="2107" y="1335" on="0"/>
        <pt x="2079" y="1309" on="0"/>
        <pt x="2073" y="1309" on="1"/>
        <pt x="2049" y="1309" on="1"/>
        <pt x="2049" y="1341" on="0"/>
        <pt x="2059" y="1355" on="1"/>
        <pt x="2122" y="1402" on="0"/>
        <pt x="2227" y="1581" on="1"/>
        <pt x="2224" y="1603" on="0"/>
        <pt x="2191" y="1657" on="1"/>
        <pt x="2189" y="1667" on="0"/>
        <pt x="2189" y="1679" on="1"/>
        <pt x="2189" y="1739" on="0"/>
        <pt x="2214" y="1810" on="1"/>
        <pt x="2241" y="1884" on="0"/>
        <pt x="2267" y="1884" on="1"/>
        <pt x="2272" y="1884" on="0"/>
        <pt x="2276" y="1881" on="1"/>
        <pt x="2296" y="1842" on="0"/>
        <pt x="2296" y="1775" on="1"/>
        <pt x="2296" y="1756" on="0"/>
        <pt x="2292" y="1681" on="0"/>
        <pt x="2292" y="1664" on="1"/>
        <pt x="2310" y="1634" on="0"/>
      </contour>
      <contour>
        <pt x="2369" y="1217" on="1"/>
        <pt x="2369" y="1174" on="0"/>
        <pt x="2349" y="1158" on="1"/>
        <pt x="2319" y="1144" on="0"/>
        <pt x="2262" y="1110" on="1"/>
        <pt x="2245" y="1087" on="0"/>
        <pt x="2210" y="1043" on="1"/>
        <pt x="2206" y="1090" on="0"/>
        <pt x="2216" y="1131" on="1"/>
        <pt x="2217" y="1141" on="0"/>
        <pt x="2209" y="1169" on="1"/>
        <pt x="2199" y="1198" on="0"/>
        <pt x="2199" y="1211" on="1"/>
        <pt x="2199" y="1249" on="0"/>
        <pt x="2237" y="1321" on="1"/>
        <pt x="2275" y="1390" on="0"/>
        <pt x="2291" y="1390" on="1"/>
        <pt x="2303" y="1390" on="0"/>
        <pt x="2323" y="1348" on="1"/>
        <pt x="2323" y="1289" on="1"/>
        <pt x="2306" y="1257" on="0"/>
        <pt x="2298" y="1257" on="1"/>
        <pt x="2303" y="1257" on="0"/>
        <pt x="2266" y="1278" on="1"/>
        <pt x="2259" y="1262" on="1"/>
        <pt x="2276" y="1226" on="0"/>
        <pt x="2291" y="1226" on="1"/>
        <pt x="2291" y="1226" on="0"/>
        <pt x="2363" y="1247" on="1"/>
        <pt x="2369" y="1233" on="0"/>
      </contour>
      <contour>
        <pt x="2355" y="188" on="1"/>
        <pt x="2355" y="111" on="0"/>
        <pt x="2340" y="29" on="1"/>
        <pt x="2324" y="29" on="1"/>
        <pt x="2277" y="950" on="1"/>
        <pt x="2277" y="964" on="0"/>
        <pt x="2285" y="1022" on="1"/>
        <pt x="2295" y="1090" on="0"/>
        <pt x="2297" y="1112" on="1"/>
        <pt x="2313" y="1112" on="1"/>
      </contour>
      <contour>
        <pt x="1434" y="1258" on="1"/>
        <pt x="1432" y="1258" on="0"/>
        <pt x="1425" y="1247" on="0"/>
        <pt x="1419" y="1247" on="1"/>
        <pt x="1414" y="1247" on="0"/>
        <pt x="1367" y="1308" on="0"/>
        <pt x="1361" y="1308" on="1"/>
        <pt x="1357" y="1308" on="0"/>
        <pt x="1325" y="1253" on="1"/>
        <pt x="1282" y="1176" on="0"/>
        <pt x="1259" y="1142" on="1"/>
        <pt x="1208" y="1063" on="0"/>
        <pt x="1173" y="1063" on="1"/>
        <pt x="1166" y="1063" on="0"/>
        <pt x="1160" y="1066" on="1"/>
        <pt x="1169" y="1103" on="0"/>
        <pt x="1230" y="1189" on="1"/>
        <pt x="1294" y="1279" on="0"/>
        <pt x="1315" y="1345" on="1"/>
        <pt x="1311" y="1372" on="0"/>
        <pt x="1293" y="1395" on="1"/>
        <pt x="1279" y="1413" on="0"/>
        <pt x="1279" y="1462" on="1"/>
        <pt x="1279" y="1505" on="0"/>
        <pt x="1303" y="1572" on="1"/>
        <pt x="1329" y="1647" on="0"/>
        <pt x="1354" y="1647" on="1"/>
        <pt x="1380" y="1647" on="0"/>
        <pt x="1385" y="1548" on="1"/>
        <pt x="1385" y="1493" on="0"/>
        <pt x="1385" y="1439" on="1"/>
        <pt x="1402" y="1402" on="0"/>
        <pt x="1434" y="1336" on="1"/>
      </contour>
      <contour>
        <pt x="1068" y="1416" on="1"/>
        <pt x="1068" y="1384" on="0"/>
        <pt x="1052" y="1349" on="1"/>
        <pt x="1047" y="1353" on="0"/>
        <pt x="1027" y="1379" on="1"/>
        <pt x="1010" y="1401" on="0"/>
        <pt x="1003" y="1401" on="1"/>
        <pt x="998" y="1401" on="0"/>
        <pt x="975" y="1347" on="1"/>
        <pt x="945" y="1279" on="0"/>
        <pt x="934" y="1261" on="1"/>
        <pt x="917" y="1231" on="0"/>
        <pt x="883" y="1199" on="1"/>
        <pt x="833" y="1152" on="0"/>
        <pt x="827" y="1144" on="1"/>
        <pt x="816" y="1171" on="1"/>
        <pt x="825" y="1192" on="0"/>
        <pt x="886" y="1290" on="1"/>
        <pt x="942" y="1379" on="0"/>
        <pt x="958" y="1436" on="1"/>
        <pt x="956" y="1440" on="0"/>
        <pt x="934" y="1483" on="1"/>
        <pt x="921" y="1510" on="0"/>
        <pt x="921" y="1524" on="1"/>
        <pt x="921" y="1570" on="0"/>
        <pt x="941" y="1644" on="1"/>
        <pt x="964" y="1729" on="0"/>
        <pt x="988" y="1729" on="1"/>
        <pt x="1011" y="1729" on="0"/>
        <pt x="1015" y="1694" on="1"/>
        <pt x="1019" y="1672" on="0"/>
        <pt x="1019" y="1602" on="1"/>
        <pt x="1020" y="1541" on="0"/>
        <pt x="1028" y="1511" on="1"/>
        <pt x="1030" y="1502" on="0"/>
        <pt x="1050" y="1474" on="1"/>
        <pt x="1068" y="1452" on="0"/>
      </contour>
      <contour>
        <pt x="2222" y="331" on="1"/>
        <pt x="2222" y="281" on="0"/>
        <pt x="2185" y="136" on="0"/>
        <pt x="2166" y="114" on="1"/>
        <pt x="2152" y="97" on="0"/>
        <pt x="1999" y="52" on="1"/>
        <pt x="1851" y="8" on="0"/>
        <pt x="1821" y="8" on="1"/>
        <pt x="1816" y="8" on="0"/>
        <pt x="1676" y="-12" on="0"/>
        <pt x="1670" y="-12" on="1"/>
        <pt x="1292" y="-73" on="1"/>
        <pt x="1283" y="-73" on="0"/>
        <pt x="1271" y="-56" on="1"/>
        <pt x="1258" y="-53" on="0"/>
        <pt x="1173" y="-53" on="1"/>
        <pt x="1168" y="-53" on="0"/>
        <pt x="1151" y="-37" on="0"/>
        <pt x="1147" y="-36" on="1"/>
        <pt x="1116" y="-27" on="0"/>
        <pt x="1087" y="1" on="1"/>
        <pt x="1062" y="26" on="0"/>
        <pt x="1049" y="93" on="1"/>
        <pt x="1044" y="117" on="0"/>
        <pt x="1034" y="206" on="1"/>
        <pt x="1032" y="211" on="0"/>
        <pt x="1029" y="223" on="1"/>
        <pt x="1015" y="188" on="0"/>
        <pt x="984" y="134" on="1"/>
        <pt x="918" y="70" on="0"/>
        <pt x="882" y="70" on="1"/>
        <pt x="877" y="70" on="0"/>
        <pt x="872" y="79" on="0"/>
        <pt x="866" y="79" on="1"/>
        <pt x="857" y="79" on="0"/>
        <pt x="846" y="62" on="1"/>
        <pt x="825" y="60" on="0"/>
        <pt x="804" y="57" on="1"/>
        <pt x="776" y="51" on="0"/>
        <pt x="756" y="22" on="1"/>
        <pt x="767" y="-21" on="0"/>
        <pt x="777" y="-63" on="1"/>
        <pt x="784" y="-99" on="0"/>
        <pt x="784" y="-166" on="1"/>
        <pt x="784" y="-371" on="0"/>
        <pt x="717" y="-371" on="1"/>
        <pt x="654" y="-371" on="0"/>
        <pt x="620" y="-172" on="1"/>
        <pt x="617" y="-120" on="0"/>
        <pt x="604" y="-41" on="1"/>
        <pt x="580" y="18" on="0"/>
        <pt x="568" y="18" on="1"/>
        <pt x="563" y="18" on="0"/>
        <pt x="490" y="-2" on="0"/>
        <pt x="484" y="-2" on="1"/>
        <pt x="453" y="-2" on="0"/>
        <pt x="419" y="43" on="1"/>
        <pt x="377" y="97" on="0"/>
        <pt x="373" y="176" on="1"/>
        <pt x="348" y="566" on="0"/>
        <pt x="338" y="924" on="1"/>
        <pt x="337" y="945" on="0"/>
        <pt x="321" y="1068" on="0"/>
        <pt x="321" y="1083" on="1"/>
        <pt x="321" y="1153" on="0"/>
        <pt x="351" y="1206" on="1"/>
        <pt x="373" y="1075" on="0"/>
        <pt x="382" y="852" on="1"/>
        <pt x="390" y="679" on="0"/>
        <pt x="397" y="505" on="1"/>
        <pt x="399" y="437" on="0"/>
        <pt x="401" y="369" on="1"/>
        <pt x="404" y="284" on="0"/>
        <pt x="423" y="231" on="1"/>
        <pt x="441" y="181" on="0"/>
        <pt x="466" y="164" on="1"/>
        <pt x="470" y="161" on="0"/>
        <pt x="509" y="161" on="1"/>
        <pt x="513" y="161" on="0"/>
        <pt x="593" y="174" on="1"/>
        <pt x="600" y="185" on="0"/>
        <pt x="604" y="200" on="1"/>
        <pt x="615" y="285" on="0"/>
        <pt x="645" y="419" on="1"/>
        <pt x="691" y="623" on="0"/>
        <pt x="724" y="623" on="1"/>
        <pt x="749" y="623" on="0"/>
        <pt x="761" y="433" on="1"/>
        <pt x="761" y="257" on="0"/>
        <pt x="715" y="187" on="1"/>
        <pt x="721" y="172" on="0"/>
        <pt x="736" y="172" on="1"/>
        <pt x="782" y="172" on="0"/>
        <pt x="995" y="253" on="0"/>
        <pt x="1009" y="276" on="1"/>
        <pt x="1027" y="303" on="0"/>
        <pt x="1027" y="335" on="1"/>
        <pt x="976" y="1108" on="1"/>
        <pt x="976" y="1140" on="0"/>
        <pt x="996" y="1205" on="1"/>
        <pt x="1012" y="1205" on="1"/>
        <pt x="1040" y="836" on="0"/>
        <pt x="1060" y="392" on="1"/>
        <pt x="1061" y="368" on="0"/>
        <pt x="1078" y="240" on="1"/>
        <pt x="1085" y="187" on="0"/>
        <pt x="1103" y="164" on="1"/>
        <pt x="1149" y="106" on="0"/>
        <pt x="1265" y="79" on="1"/>
        <pt x="1270" y="79" on="0"/>
        <pt x="1317" y="70" on="0"/>
        <pt x="1324" y="70" on="1"/>
        <pt x="1330" y="70" on="0"/>
        <pt x="1349" y="90" on="0"/>
        <pt x="1354" y="90" on="1"/>
        <pt x="1806" y="152" on="1"/>
        <pt x="1818" y="152" on="0"/>
        <pt x="1921" y="170" on="1"/>
        <pt x="2035" y="191" on="0"/>
        <pt x="2078" y="205" on="1"/>
        <pt x="2079" y="206" on="0"/>
        <pt x="2111" y="222" on="1"/>
        <pt x="2139" y="236" on="0"/>
        <pt x="2151" y="236" on="1"/>
        <pt x="2157" y="246" on="0"/>
        <pt x="2163" y="260" on="1"/>
        <pt x="2157" y="283" on="0"/>
        <pt x="2152" y="306" on="1"/>
        <pt x="2146" y="333" on="0"/>
        <pt x="2136" y="342" on="1"/>
        <pt x="2096" y="387" on="0"/>
        <pt x="2062" y="387" on="1"/>
        <pt x="1615" y="295" on="1"/>
        <pt x="1547" y="297" on="0"/>
        <pt x="1500" y="291" on="1"/>
        <pt x="1450" y="284" on="0"/>
        <pt x="1459" y="284" on="1"/>
        <pt x="1409" y="284" on="0"/>
        <pt x="1330" y="310" on="1"/>
        <pt x="1234" y="340" on="0"/>
        <pt x="1224" y="378" on="1"/>
        <pt x="1223" y="388" on="0"/>
        <pt x="1223" y="399" on="1"/>
        <pt x="1223" y="458" on="0"/>
        <pt x="1259" y="559" on="1"/>
        <pt x="1275" y="606" on="0"/>
        <pt x="1292" y="654" on="1"/>
        <pt x="1317" y="720" on="0"/>
        <pt x="1339" y="751" on="1"/>
        <pt x="1359" y="783" on="0"/>
        <pt x="1403" y="843" on="1"/>
        <pt x="1448" y="895" on="0"/>
        <pt x="1524" y="965" on="1"/>
        <pt x="1597" y="1032" on="0"/>
        <pt x="1607" y="1031" on="1"/>
        <pt x="1626" y="1031" on="1"/>
        <pt x="1632" y="1018" on="0"/>
        <pt x="1632" y="1001" on="1"/>
        <pt x="1632" y="920" on="0"/>
        <pt x="1570" y="885" on="1"/>
        <pt x="1534" y="864" on="0"/>
        <pt x="1425" y="749" on="1"/>
        <pt x="1283" y="598" on="0"/>
        <pt x="1283" y="515" on="1"/>
        <pt x="1283" y="480" on="0"/>
        <pt x="1328" y="456" on="1"/>
        <pt x="1362" y="438" on="0"/>
        <pt x="1382" y="438" on="1"/>
        <pt x="1693" y="438" on="1"/>
        <pt x="2083" y="520" on="1"/>
        <pt x="2127" y="520" on="0"/>
        <pt x="2169" y="477" on="1"/>
        <pt x="2222" y="423" on="0"/>
      </contour>
      <contour>
        <pt x="743" y="1488" on="1"/>
        <pt x="743" y="1438" on="0"/>
        <pt x="683" y="1352" on="1"/>
        <pt x="648" y="1308" on="0"/>
        <pt x="613" y="1264" on="1"/>
        <pt x="580" y="1215" on="0"/>
        <pt x="515" y="1135" on="1"/>
        <pt x="509" y="1149" on="0"/>
        <pt x="509" y="1165" on="1"/>
        <pt x="509" y="1221" on="0"/>
        <pt x="610" y="1362" on="1"/>
        <pt x="698" y="1484" on="0"/>
        <pt x="737" y="1513" on="1"/>
        <pt x="743" y="1511" on="0"/>
      </contour>
      <contour>
        <pt x="2263" y="1709" on="1"/>
        <pt x="2263" y="1715" on="0"/>
        <pt x="2258" y="1752" on="0"/>
        <pt x="2258" y="1757" on="1"/>
        <pt x="2241" y="1757" on="1"/>
        <pt x="2248" y="1709" on="0"/>
      </contour>
      <contour>
        <pt x="1351" y="1474" on="1"/>
        <pt x="1351" y="1511" on="1"/>
        <pt x="1330" y="1523" on="1"/>
        <pt x="1325" y="1484" on="1"/>
        <pt x="1326" y="1484" on="0"/>
        <pt x="1343" y="1474" on="0"/>
      </contour>
      <contour>
        <pt x="989" y="1556" on="1"/>
        <pt x="989" y="1593" on="1"/>
        <pt x="968" y="1605" on="1"/>
        <pt x="964" y="1586" on="0"/>
        <pt x="968" y="1569" on="1"/>
        <pt x="992" y="1556" on="0"/>
      </contour>
      <contour>
        <pt x="724" y="377" on="1"/>
        <pt x="724" y="401" on="0"/>
        <pt x="708" y="443" on="1"/>
        <pt x="705" y="446" on="0"/>
        <pt x="698" y="448" on="1"/>
        <pt x="694" y="428" on="0"/>
        <pt x="667" y="351" on="1"/>
        <pt x="645" y="289" on="0"/>
        <pt x="645" y="252" on="1"/>
        <pt x="645" y="237" on="0"/>
        <pt x="648" y="224" on="1"/>
        <pt x="672" y="243" on="0"/>
        <pt x="696" y="286" on="1"/>
        <pt x="724" y="337" on="0"/>
      </contour>
      <contour>
        <pt x="747" y="-166" on="1"/>
        <pt x="747" y="-157" on="0"/>
        <pt x="740" y="-116" on="1"/>
        <pt x="683" y="-32" on="0"/>
        <pt x="666" y="-32" on="1"/>
        <pt x="653" y="-32" on="1"/>
        <pt x="652" y="-34" on="0"/>
        <pt x="651" y="-35" on="1"/>
        <pt x="646" y="-44" on="0"/>
        <pt x="646" y="-58" on="1"/>
        <pt x="646" y="-96" on="0"/>
        <pt x="670" y="-149" on="1"/>
        <pt x="696" y="-207" on="0"/>
        <pt x="722" y="-207" on="1"/>
        <pt x="747" y="-207" on="0"/>
      </contour>
    </TTGlyph>
    <TTGlyph name="endash" xMin="321" yMin="-371" xMax="1345" yMax="1884">
      <contour>
        <pt x="1333" y="1573" on="1"/>
        <pt x="1333" y="1534" on="0"/>
        <pt x="1326" y="1483" on="1"/>
        <pt x="1298" y="1544" on="0"/>
        <pt x="1296" y="1544" on="1"/>
        <pt x="1293" y="1544" on="0"/>
        <pt x="1281" y="1500" on="1"/>
        <pt x="1264" y="1431" on="0"/>
        <pt x="1262" y="1425" on="1"/>
        <pt x="1255" y="1398" on="0"/>
        <pt x="1240" y="1370" on="1"/>
        <pt x="1224" y="1337" on="0"/>
        <pt x="1216" y="1335" on="1"/>
        <pt x="1214" y="1335" on="0"/>
        <pt x="1200" y="1309" on="0"/>
        <pt x="1197" y="1309" on="1"/>
        <pt x="1185" y="1309" on="1"/>
        <pt x="1185" y="1341" on="0"/>
        <pt x="1190" y="1355" on="1"/>
        <pt x="1222" y="1402" on="0"/>
        <pt x="1274" y="1581" on="1"/>
        <pt x="1273" y="1603" on="0"/>
        <pt x="1256" y="1657" on="1"/>
        <pt x="1255" y="1667" on="0"/>
        <pt x="1255" y="1679" on="1"/>
        <pt x="1255" y="1739" on="0"/>
        <pt x="1268" y="1810" on="1"/>
        <pt x="1281" y="1884" on="0"/>
        <pt x="1294" y="1884" on="1"/>
        <pt x="1296" y="1884" on="0"/>
        <pt x="1299" y="1881" on="1"/>
        <pt x="1308" y="1842" on="0"/>
        <pt x="1308" y="1775" on="1"/>
        <pt x="1308" y="1756" on="0"/>
        <pt x="1307" y="1681" on="0"/>
        <pt x="1307" y="1664" on="1"/>
        <pt x="1316" y="1634" on="0"/>
      </contour>
      <contour>
        <pt x="1345" y="1217" on="1"/>
        <pt x="1345" y="1174" on="0"/>
        <pt x="1335" y="1158" on="1"/>
        <pt x="1320" y="1144" on="0"/>
        <pt x="1292" y="1110" on="1"/>
        <pt x="1283" y="1087" on="0"/>
        <pt x="1265" y="1043" on="1"/>
        <pt x="1264" y="1090" on="0"/>
        <pt x="1268" y="1131" on="1"/>
        <pt x="1269" y="1141" on="0"/>
        <pt x="1265" y="1169" on="1"/>
        <pt x="1260" y="1198" on="0"/>
        <pt x="1260" y="1211" on="1"/>
        <pt x="1260" y="1249" on="0"/>
        <pt x="1279" y="1321" on="1"/>
        <pt x="1298" y="1390" on="0"/>
        <pt x="1306" y="1390" on="1"/>
        <pt x="1312" y="1390" on="0"/>
        <pt x="1322" y="1348" on="1"/>
        <pt x="1322" y="1289" on="1"/>
        <pt x="1314" y="1257" on="0"/>
        <pt x="1309" y="1257" on="1"/>
        <pt x="1312" y="1257" on="0"/>
        <pt x="1294" y="1278" on="1"/>
        <pt x="1290" y="1262" on="1"/>
        <pt x="1298" y="1226" on="0"/>
        <pt x="1306" y="1226" on="1"/>
        <pt x="1306" y="1226" on="0"/>
        <pt x="1342" y="1247" on="1"/>
        <pt x="1345" y="1233" on="0"/>
      </contour>
      <contour>
        <pt x="1338" y="188" on="1"/>
        <pt x="1338" y="111" on="0"/>
        <pt x="1331" y="29" on="1"/>
        <pt x="1322" y="29" on="1"/>
        <pt x="1299" y="950" on="1"/>
        <pt x="1299" y="964" on="0"/>
        <pt x="1303" y="1022" on="1"/>
        <pt x="1308" y="1090" on="0"/>
        <pt x="1309" y="1112" on="1"/>
        <pt x="1317" y="1112" on="1"/>
      </contour>
      <contour>
        <pt x="877" y="1258" on="1"/>
        <pt x="877" y="1258" on="0"/>
        <pt x="873" y="1247" on="0"/>
        <pt x="870" y="1247" on="1"/>
        <pt x="868" y="1247" on="0"/>
        <pt x="844" y="1308" on="0"/>
        <pt x="841" y="1308" on="1"/>
        <pt x="839" y="1308" on="0"/>
        <pt x="823" y="1253" on="1"/>
        <pt x="801" y="1176" on="0"/>
        <pt x="790" y="1142" on="1"/>
        <pt x="764" y="1063" on="0"/>
        <pt x="747" y="1063" on="1"/>
        <pt x="743" y="1063" on="0"/>
        <pt x="740" y="1066" on="1"/>
        <pt x="745" y="1103" on="0"/>
        <pt x="775" y="1189" on="1"/>
        <pt x="808" y="1279" on="0"/>
        <pt x="818" y="1345" on="1"/>
        <pt x="816" y="1372" on="0"/>
        <pt x="807" y="1395" on="1"/>
        <pt x="800" y="1413" on="0"/>
        <pt x="800" y="1462" on="1"/>
        <pt x="800" y="1505" on="0"/>
        <pt x="812" y="1572" on="1"/>
        <pt x="825" y="1647" on="0"/>
        <pt x="838" y="1647" on="1"/>
        <pt x="851" y="1647" on="0"/>
        <pt x="853" y="1548" on="1"/>
        <pt x="853" y="1493" on="0"/>
        <pt x="853" y="1439" on="1"/>
        <pt x="862" y="1402" on="0"/>
        <pt x="877" y="1336" on="1"/>
      </contour>
      <contour>
        <pt x="694" y="1416" on="1"/>
        <pt x="694" y="1384" on="0"/>
        <pt x="687" y="1349" on="1"/>
        <pt x="684" y="1353" on="0"/>
        <pt x="674" y="1379" on="1"/>
        <pt x="666" y="1401" on="0"/>
        <pt x="662" y="1401" on="1"/>
        <pt x="659" y="1401" on="0"/>
        <pt x="648" y="1347" on="1"/>
        <pt x="633" y="1279" on="0"/>
        <pt x="628" y="1261" on="1"/>
        <pt x="619" y="1231" on="0"/>
        <pt x="602" y="1199" on="1"/>
        <pt x="577" y="1152" on="0"/>
        <pt x="574" y="1144" on="1"/>
        <pt x="568" y="1171" on="1"/>
        <pt x="573" y="1192" on="0"/>
        <pt x="603" y="1290" on="1"/>
        <pt x="631" y="1379" on="0"/>
        <pt x="640" y="1436" on="1"/>
        <pt x="639" y="1440" on="0"/>
        <pt x="628" y="1483" on="1"/>
        <pt x="621" y="1510" on="0"/>
        <pt x="621" y="1524" on="1"/>
        <pt x="621" y="1570" on="0"/>
        <pt x="631" y="1644" on="1"/>
        <pt x="642" y="1729" on="0"/>
        <pt x="654" y="1729" on="1"/>
        <pt x="666" y="1729" on="0"/>
        <pt x="668" y="1694" on="1"/>
        <pt x="670" y="1672" on="0"/>
        <pt x="670" y="1602" on="1"/>
        <pt x="671" y="1541" on="0"/>
        <pt x="674" y="1511" on="1"/>
        <pt x="675" y="1502" on="0"/>
        <pt x="686" y="1474" on="1"/>
        <pt x="694" y="1452" on="0"/>
      </contour>
      <contour>
        <pt x="1272" y="331" on="1"/>
        <pt x="1272" y="281" on="0"/>
        <pt x="1253" y="136" on="0"/>
        <pt x="1244" y="114" on="1"/>
        <pt x="1236" y="97" on="0"/>
        <pt x="1160" y="52" on="1"/>
        <pt x="1086" y="8" on="0"/>
        <pt x="1071" y="8" on="1"/>
        <pt x="1069" y="8" on="0"/>
        <pt x="999" y="-12" on="0"/>
        <pt x="996" y="-12" on="1"/>
        <pt x="807" y="-73" on="1"/>
        <pt x="802" y="-73" on="0"/>
        <pt x="796" y="-56" on="1"/>
        <pt x="789" y="-53" on="0"/>
        <pt x="747" y="-53" on="1"/>
        <pt x="744" y="-53" on="0"/>
        <pt x="736" y="-37" on="0"/>
        <pt x="734" y="-36" on="1"/>
        <pt x="719" y="-27" on="0"/>
        <pt x="704" y="1" on="1"/>
        <pt x="691" y="26" on="0"/>
        <pt x="685" y="93" on="1"/>
        <pt x="682" y="117" on="0"/>
        <pt x="678" y="206" on="1"/>
        <pt x="677" y="211" on="0"/>
        <pt x="675" y="223" on="1"/>
        <pt x="668" y="188" on="0"/>
        <pt x="653" y="134" on="1"/>
        <pt x="620" y="70" on="0"/>
        <pt x="602" y="70" on="1"/>
        <pt x="599" y="70" on="0"/>
        <pt x="596" y="79" on="0"/>
        <pt x="594" y="79" on="1"/>
        <pt x="589" y="79" on="0"/>
        <pt x="584" y="62" on="1"/>
        <pt x="573" y="60" on="0"/>
        <pt x="562" y="57" on="1"/>
        <pt x="548" y="51" on="0"/>
        <pt x="538" y="22" on="1"/>
        <pt x="544" y="-21" on="0"/>
        <pt x="549" y="-63" on="1"/>
        <pt x="553" y="-99" on="0"/>
        <pt x="553" y="-166" on="1"/>
        <pt x="553" y="-371" on="0"/>
        <pt x="519" y="-371" on="1"/>
        <pt x="488" y="-371" on="0"/>
        <pt x="470" y="-172" on="1"/>
        <pt x="469" y="-120" on="0"/>
        <pt x="462" y="-41" on="1"/>
        <pt x="451" y="18" on="0"/>
        <pt x="445" y="18" on="1"/>
        <pt x="442" y="18" on="0"/>
        <pt x="405" y="-2" on="0"/>
        <pt x="402" y="-2" on="1"/>
        <pt x="387" y="-2" on="0"/>
        <pt x="370" y="43" on="1"/>
        <pt x="349" y="97" on="0"/>
        <pt x="347" y="176" on="1"/>
        <pt x="335" y="566" on="0"/>
        <pt x="330" y="924" on="1"/>
        <pt x="329" y="945" on="0"/>
        <pt x="321" y="1068" on="0"/>
        <pt x="321" y="1083" on="1"/>
        <pt x="321" y="1153" on="0"/>
        <pt x="336" y="1206" on="1"/>
        <pt x="347" y="1075" on="0"/>
        <pt x="352" y="852" on="1"/>
        <pt x="355" y="679" on="0"/>
        <pt x="359" y="505" on="1"/>
        <pt x="360" y="437" on="0"/>
        <pt x="361" y="369" on="1"/>
        <pt x="362" y="284" on="0"/>
        <pt x="372" y="231" on="1"/>
        <pt x="381" y="181" on="0"/>
        <pt x="393" y="164" on="1"/>
        <pt x="395" y="161" on="0"/>
        <pt x="415" y="161" on="1"/>
        <pt x="417" y="161" on="0"/>
        <pt x="457" y="174" on="1"/>
        <pt x="460" y="185" on="0"/>
        <pt x="462" y="200" on="1"/>
        <pt x="468" y="285" on="0"/>
        <pt x="483" y="419" on="1"/>
        <pt x="506" y="623" on="0"/>
        <pt x="523" y="623" on="1"/>
        <pt x="535" y="623" on="0"/>
        <pt x="541" y="433" on="1"/>
        <pt x="541" y="257" on="0"/>
        <pt x="518" y="187" on="1"/>
        <pt x="521" y="172" on="0"/>
        <pt x="528" y="172" on="1"/>
        <pt x="552" y="172" on="0"/>
        <pt x="658" y="253" on="0"/>
        <pt x="665" y="276" on="1"/>
        <pt x="674" y="303" on="0"/>
        <pt x="674" y="335" on="1"/>
        <pt x="649" y="1108" on="1"/>
        <pt x="649" y="1140" on="0"/>
        <pt x="658" y="1205" on="1"/>
        <pt x="667" y="1205" on="1"/>
        <pt x="680" y="836" on="0"/>
        <pt x="691" y="392" on="1"/>
        <pt x="691" y="368" on="0"/>
        <pt x="700" y="240" on="1"/>
        <pt x="703" y="187" on="0"/>
        <pt x="712" y="164" on="1"/>
        <pt x="735" y="106" on="0"/>
        <pt x="793" y="79" on="1"/>
        <pt x="795" y="79" on="0"/>
        <pt x="819" y="70" on="0"/>
        <pt x="823" y="70" on="1"/>
        <pt x="825" y="70" on="0"/>
        <pt x="835" y="90" on="0"/>
        <pt x="838" y="90" on="1"/>
        <pt x="1063" y="152" on="1"/>
        <pt x="1070" y="152" on="0"/>
        <pt x="1121" y="170" on="1"/>
        <pt x="1178" y="191" on="0"/>
        <pt x="1199" y="205" on="1"/>
        <pt x="1200" y="206" on="0"/>
        <pt x="1216" y="222" on="1"/>
        <pt x="1230" y="236" on="0"/>
        <pt x="1236" y="236" on="1"/>
        <pt x="1239" y="246" on="0"/>
        <pt x="1242" y="260" on="1"/>
        <pt x="1239" y="283" on="0"/>
        <pt x="1237" y="306" on="1"/>
        <pt x="1234" y="333" on="0"/>
        <pt x="1229" y="342" on="1"/>
        <pt x="1209" y="387" on="0"/>
        <pt x="1192" y="387" on="1"/>
        <pt x="968" y="295" on="1"/>
        <pt x="934" y="297" on="0"/>
        <pt x="911" y="291" on="1"/>
        <pt x="885" y="284" on="0"/>
        <pt x="890" y="284" on="1"/>
        <pt x="865" y="284" on="0"/>
        <pt x="826" y="310" on="1"/>
        <pt x="778" y="340" on="0"/>
        <pt x="772" y="378" on="1"/>
        <pt x="772" y="388" on="0"/>
        <pt x="772" y="399" on="1"/>
        <pt x="772" y="458" on="0"/>
        <pt x="790" y="559" on="1"/>
        <pt x="798" y="606" on="0"/>
        <pt x="806" y="654" on="1"/>
        <pt x="819" y="720" on="0"/>
        <pt x="830" y="751" on="1"/>
        <pt x="840" y="783" on="0"/>
        <pt x="862" y="843" on="1"/>
        <pt x="885" y="895" on="0"/>
        <pt x="923" y="965" on="1"/>
        <pt x="959" y="1032" on="0"/>
        <pt x="964" y="1031" on="1"/>
        <pt x="973" y="1031" on="1"/>
        <pt x="976" y="1018" on="0"/>
        <pt x="976" y="1001" on="1"/>
        <pt x="976" y="920" on="0"/>
        <pt x="946" y="885" on="1"/>
        <pt x="927" y="864" on="0"/>
        <pt x="873" y="749" on="1"/>
        <pt x="802" y="598" on="0"/>
        <pt x="802" y="515" on="1"/>
        <pt x="802" y="480" on="0"/>
        <pt x="824" y="456" on="1"/>
        <pt x="842" y="438" on="0"/>
        <pt x="852" y="438" on="1"/>
        <pt x="1007" y="438" on="1"/>
        <pt x="1202" y="520" on="1"/>
        <pt x="1224" y="520" on="0"/>
        <pt x="1245" y="477" on="1"/>
        <pt x="1272" y="423" on="0"/>
      </contour>
      <contour>
        <pt x="532" y="1488" on="1"/>
        <pt x="532" y="1438" on="0"/>
        <pt x="502" y="1352" on="1"/>
        <pt x="485" y="1308" on="0"/>
        <pt x="467" y="1264" on="1"/>
        <pt x="451" y="1215" on="0"/>
        <pt x="418" y="1135" on="1"/>
        <pt x="415" y="1149" on="0"/>
        <pt x="415" y="1165" on="1"/>
        <pt x="415" y="1221" on="0"/>
        <pt x="466" y="1362" on="1"/>
        <pt x="510" y="1484" on="0"/>
        <pt x="529" y="1513" on="1"/>
        <pt x="532" y="1511" on="0"/>
      </contour>
      <contour>
        <pt x="1292" y="1709" on="1"/>
        <pt x="1292" y="1715" on="0"/>
        <pt x="1290" y="1752" on="0"/>
        <pt x="1290" y="1757" on="1"/>
        <pt x="1281" y="1757" on="1"/>
        <pt x="1285" y="1709" on="0"/>
      </contour>
      <contour>
        <pt x="836" y="1474" on="1"/>
        <pt x="836" y="1511" on="1"/>
        <pt x="826" y="1523" on="1"/>
        <pt x="823" y="1484" on="1"/>
        <pt x="823" y="1484" on="0"/>
        <pt x="832" y="1474" on="0"/>
      </contour>
      <contour>
        <pt x="655" y="1556" on="1"/>
        <pt x="655" y="1593" on="1"/>
        <pt x="645" y="1605" on="1"/>
        <pt x="642" y="1586" on="0"/>
        <pt x="644" y="1569" on="1"/>
        <pt x="656" y="1556" on="0"/>
      </contour>
      <contour>
        <pt x="523" y="377" on="1"/>
        <pt x="523" y="401" on="0"/>
        <pt x="515" y="443" on="1"/>
        <pt x="513" y="446" on="0"/>
        <pt x="510" y="448" on="1"/>
        <pt x="507" y="428" on="0"/>
        <pt x="494" y="351" on="1"/>
        <pt x="483" y="289" on="0"/>
        <pt x="483" y="252" on="1"/>
        <pt x="483" y="237" on="0"/>
        <pt x="485" y="224" on="1"/>
        <pt x="496" y="243" on="0"/>
        <pt x="508" y="286" on="1"/>
        <pt x="523" y="337" on="0"/>
      </contour>
      <contour>
        <pt x="534" y="-166" on="1"/>
        <pt x="534" y="-157" on="0"/>
        <pt x="531" y="-116" on="1"/>
        <pt x="502" y="-32" on="0"/>
        <pt x="494" y="-32" on="1"/>
        <pt x="487" y="-32" on="1"/>
        <pt x="486" y="-34" on="0"/>
        <pt x="486" y="-35" on="1"/>
        <pt x="484" y="-44" on="0"/>
        <pt x="484" y="-58" on="1"/>
        <pt x="484" y="-96" on="0"/>
        <pt x="496" y="-149" on="1"/>
        <pt x="509" y="-207" on="0"/>
        <pt x="521" y="-207" on="1"/>
        <pt x="534" y="-207" on="0"/>
      </contour>
    </TTGlyph>
    <TTGlyph name="equal" xMin="142" yMin="226" xMax="842" yMax="1588">
      <contour>
        <pt x="142" y="226" on="1"/>
        <pt x="142" y="1588" on="1"/>
        <pt x="842" y="1588" on="1"/>
        <pt x="842" y="226" on="1"/>
      </contour>
      <contour>
        <pt x="284" y="368" on="1"/>
        <pt x="700" y="368" on="1"/>
        <pt x="700" y="1447" on="1"/>
        <pt x="284" y="1447" on="1"/>
      </contour>
    </TTGlyph>
    <TTGlyph name="exclam" xMin="142" yMin="226" xMax="842" yMax="1588">
      <contour>
        <pt x="142" y="226" on="1"/>
        <pt x="142" y="1588" on="1"/>
        <pt x="842" y="1588" on="1"/>
        <pt x="842" y="226" on="1"/>
      </contour>
      <contour>
        <pt x="284" y="368" on="1"/>
        <pt x="700" y="368" on="1"/>
        <pt x="700" y="1447" on="1"/>
        <pt x="284" y="1447" on="1"/>
      </contour>
    </TTGlyph>
    <TTGlyph name="figuredash" xMin="321" yMin="-371" xMax="4898" yMax="1884">
      <contour>
        <pt x="4846" y="1573" on="1"/>
        <pt x="4846" y="1534" on="0"/>
        <pt x="4812" y="1483" on="1"/>
        <pt x="4690" y="1544" on="0"/>
        <pt x="4678" y="1544" on="1"/>
        <pt x="4664" y="1544" on="0"/>
        <pt x="4614" y="1500" on="1"/>
        <pt x="4536" y="1431" on="0"/>
        <pt x="4528" y="1425" on="1"/>
        <pt x="4494" y="1398" on="0"/>
        <pt x="4430" y="1370" on="1"/>
        <pt x="4358" y="1337" on="0"/>
        <pt x="4320" y="1335" on="1"/>
        <pt x="4312" y="1335" on="0"/>
        <pt x="4250" y="1309" on="0"/>
        <pt x="4236" y="1309" on="1"/>
        <pt x="4183" y="1309" on="1"/>
        <pt x="4183" y="1341" on="0"/>
        <pt x="4205" y="1355" on="1"/>
        <pt x="4347" y="1402" on="0"/>
        <pt x="4581" y="1581" on="1"/>
        <pt x="4575" y="1603" on="0"/>
        <pt x="4500" y="1657" on="1"/>
        <pt x="4496" y="1667" on="0"/>
        <pt x="4496" y="1679" on="1"/>
        <pt x="4496" y="1739" on="0"/>
        <pt x="4552" y="1810" on="1"/>
        <pt x="4611" y="1884" on="0"/>
        <pt x="4670" y="1884" on="1"/>
        <pt x="4681" y="1884" on="0"/>
        <pt x="4691" y="1881" on="1"/>
        <pt x="4734" y="1842" on="0"/>
        <pt x="4734" y="1775" on="1"/>
        <pt x="4734" y="1756" on="0"/>
        <pt x="4726" y="1681" on="0"/>
        <pt x="4726" y="1664" on="1"/>
        <pt x="4767" y="1634" on="0"/>
      </contour>
      <contour>
        <pt x="4898" y="1217" on="1"/>
        <pt x="4898" y="1174" on="0"/>
        <pt x="4854" y="1158" on="1"/>
        <pt x="4786" y="1144" on="0"/>
        <pt x="4659" y="1110" on="1"/>
        <pt x="4621" y="1087" on="0"/>
        <pt x="4542" y="1043" on="1"/>
        <pt x="4534" y="1090" on="0"/>
        <pt x="4556" y="1131" on="1"/>
        <pt x="4559" y="1141" on="0"/>
        <pt x="4540" y="1169" on="1"/>
        <pt x="4519" y="1198" on="0"/>
        <pt x="4519" y="1211" on="1"/>
        <pt x="4519" y="1249" on="0"/>
        <pt x="4604" y="1321" on="1"/>
        <pt x="4687" y="1390" on="0"/>
        <pt x="4723" y="1390" on="1"/>
        <pt x="4750" y="1390" on="0"/>
        <pt x="4795" y="1348" on="1"/>
        <pt x="4795" y="1289" on="1"/>
        <pt x="4758" y="1257" on="0"/>
        <pt x="4739" y="1257" on="1"/>
        <pt x="4751" y="1257" on="0"/>
        <pt x="4668" y="1278" on="1"/>
        <pt x="4652" y="1262" on="1"/>
        <pt x="4690" y="1226" on="0"/>
        <pt x="4723" y="1226" on="1"/>
        <pt x="4723" y="1226" on="0"/>
        <pt x="4884" y="1247" on="1"/>
        <pt x="4898" y="1233" on="0"/>
      </contour>
      <contour>
        <pt x="4867" y="188" on="1"/>
        <pt x="4867" y="111" on="0"/>
        <pt x="4834" y="29" on="1"/>
        <pt x="4797" y="29" on="1"/>
        <pt x="4693" y="950" on="1"/>
        <pt x="4693" y="964" on="0"/>
        <pt x="4710" y="1022" on="1"/>
        <pt x="4732" y="1090" on="0"/>
        <pt x="4736" y="1112" on="1"/>
        <pt x="4773" y="1112" on="1"/>
      </contour>
      <contour>
        <pt x="2808" y="1258" on="1"/>
        <pt x="2805" y="1258" on="0"/>
        <pt x="2788" y="1247" on="0"/>
        <pt x="2774" y="1247" on="1"/>
        <pt x="2764" y="1247" on="0"/>
        <pt x="2659" y="1308" on="0"/>
        <pt x="2645" y="1308" on="1"/>
        <pt x="2636" y="1308" on="0"/>
        <pt x="2565" y="1253" on="1"/>
        <pt x="2468" y="1176" on="0"/>
        <pt x="2418" y="1142" on="1"/>
        <pt x="2303" y="1063" on="0"/>
        <pt x="2224" y="1063" on="1"/>
        <pt x="2209" y="1063" on="0"/>
        <pt x="2195" y="1066" on="1"/>
        <pt x="2216" y="1103" on="0"/>
        <pt x="2352" y="1189" on="1"/>
        <pt x="2496" y="1279" on="0"/>
        <pt x="2543" y="1345" on="1"/>
        <pt x="2534" y="1372" on="0"/>
        <pt x="2494" y="1395" on="1"/>
        <pt x="2461" y="1413" on="0"/>
        <pt x="2461" y="1462" on="1"/>
        <pt x="2461" y="1505" on="0"/>
        <pt x="2515" y="1572" on="1"/>
        <pt x="2574" y="1647" on="0"/>
        <pt x="2630" y="1647" on="1"/>
        <pt x="2688" y="1647" on="0"/>
        <pt x="2699" y="1548" on="1"/>
        <pt x="2698" y="1493" on="0"/>
        <pt x="2698" y="1439" on="1"/>
        <pt x="2738" y="1402" on="0"/>
        <pt x="2808" y="1336" on="1"/>
      </contour>
      <contour>
        <pt x="1990" y="1416" on="1"/>
        <pt x="1990" y="1384" on="0"/>
        <pt x="1955" y="1349" on="1"/>
        <pt x="1944" y="1353" on="0"/>
        <pt x="1899" y="1379" on="1"/>
        <pt x="1861" y="1401" on="0"/>
        <pt x="1846" y="1401" on="1"/>
        <pt x="1834" y="1401" on="0"/>
        <pt x="1782" y="1347" on="1"/>
        <pt x="1715" y="1279" on="0"/>
        <pt x="1691" y="1261" on="1"/>
        <pt x="1652" y="1231" on="0"/>
        <pt x="1577" y="1199" on="1"/>
        <pt x="1465" y="1152" on="0"/>
        <pt x="1451" y="1144" on="1"/>
        <pt x="1427" y="1171" on="1"/>
        <pt x="1447" y="1192" on="0"/>
        <pt x="1583" y="1290" on="1"/>
        <pt x="1708" y="1379" on="0"/>
        <pt x="1745" y="1436" on="1"/>
        <pt x="1741" y="1440" on="0"/>
        <pt x="1692" y="1483" on="1"/>
        <pt x="1663" y="1510" on="0"/>
        <pt x="1663" y="1524" on="1"/>
        <pt x="1663" y="1570" on="0"/>
        <pt x="1706" y="1644" on="1"/>
        <pt x="1757" y="1729" on="0"/>
        <pt x="1811" y="1729" on="1"/>
        <pt x="1863" y="1729" on="0"/>
        <pt x="1873" y="1694" on="1"/>
        <pt x="1880" y="1672" on="0"/>
        <pt x="1882" y="1602" on="1"/>
        <pt x="1884" y="1541" on="0"/>
        <pt x="1900" y="1511" on="1"/>
        <pt x="1905" y="1502" on="0"/>
        <pt x="1951" y="1474" on="1"/>
        <pt x="1990" y="1452" on="0"/>
      </contour>
      <contour>
        <pt x="4570" y="331" on="1"/>
        <pt x="4570" y="281" on="0"/>
        <pt x="4487" y="136" on="0"/>
        <pt x="4445" y="114" on="1"/>
        <pt x="4413" y="97" on="0"/>
        <pt x="4072" y="52" on="1"/>
        <pt x="3741" y="8" on="0"/>
        <pt x="3674" y="8" on="1"/>
        <pt x="3663" y="8" on="0"/>
        <pt x="3350" y="-12" on="0"/>
        <pt x="3336" y="-12" on="1"/>
        <pt x="2492" y="-73" on="1"/>
        <pt x="2471" y="-73" on="0"/>
        <pt x="2444" y="-56" on="1"/>
        <pt x="2414" y="-53" on="0"/>
        <pt x="2226" y="-53" on="1"/>
        <pt x="2213" y="-53" on="0"/>
        <pt x="2176" y="-37" on="0"/>
        <pt x="2168" y="-36" on="1"/>
        <pt x="2098" y="-27" on="0"/>
        <pt x="2034" y="1" on="1"/>
        <pt x="1977" y="26" on="0"/>
        <pt x="1948" y="93" on="1"/>
        <pt x="1936" y="117" on="0"/>
        <pt x="1915" y="206" on="1"/>
        <pt x="1911" y="211" on="0"/>
        <pt x="1903" y="223" on="1"/>
        <pt x="1873" y="188" on="0"/>
        <pt x="1803" y="134" on="1"/>
        <pt x="1656" y="70" on="0"/>
        <pt x="1575" y="70" on="1"/>
        <pt x="1563" y="70" on="0"/>
        <pt x="1552" y="79" on="0"/>
        <pt x="1540" y="79" on="1"/>
        <pt x="1519" y="79" on="0"/>
        <pt x="1495" y="62" on="1"/>
        <pt x="1447" y="60" on="0"/>
        <pt x="1400" y="57" on="1"/>
        <pt x="1337" y="51" on="0"/>
        <pt x="1293" y="22" on="1"/>
        <pt x="1317" y="-21" on="0"/>
        <pt x="1340" y="-63" on="1"/>
        <pt x="1356" y="-99" on="0"/>
        <pt x="1356" y="-166" on="1"/>
        <pt x="1356" y="-371" on="0"/>
        <pt x="1207" y="-371" on="1"/>
        <pt x="1066" y="-371" on="0"/>
        <pt x="989" y="-172" on="1"/>
        <pt x="983" y="-120" on="0"/>
        <pt x="953" y="-41" on="1"/>
        <pt x="900" y="18" on="0"/>
        <pt x="874" y="18" on="1"/>
        <pt x="862" y="18" on="0"/>
        <pt x="698" y="-2" on="0"/>
        <pt x="685" y="-2" on="1"/>
        <pt x="617" y="-2" on="0"/>
        <pt x="540" y="43" on="1"/>
        <pt x="447" y="97" on="0"/>
        <pt x="437" y="176" on="1"/>
        <pt x="382" y="566" on="0"/>
        <pt x="359" y="924" on="1"/>
        <pt x="357" y="945" on="0"/>
        <pt x="321" y="1068" on="0"/>
        <pt x="321" y="1083" on="1"/>
        <pt x="321" y="1153" on="0"/>
        <pt x="389" y="1206" on="1"/>
        <pt x="437" y="1075" on="0"/>
        <pt x="458" y="852" on="1"/>
        <pt x="475" y="679" on="0"/>
        <pt x="491" y="505" on="1"/>
        <pt x="495" y="437" on="0"/>
        <pt x="499" y="369" on="1"/>
        <pt x="506" y="284" on="0"/>
        <pt x="548" y="231" on="1"/>
        <pt x="589" y="181" on="0"/>
        <pt x="645" y="164" on="1"/>
        <pt x="653" y="161" on="0"/>
        <pt x="741" y="161" on="1"/>
        <pt x="751" y="161" on="0"/>
        <pt x="929" y="174" on="1"/>
        <pt x="944" y="185" on="0"/>
        <pt x="953" y="200" on="1"/>
        <pt x="978" y="285" on="0"/>
        <pt x="1045" y="419" on="1"/>
        <pt x="1148" y="623" on="0"/>
        <pt x="1222" y="623" on="1"/>
        <pt x="1278" y="623" on="0"/>
        <pt x="1304" y="433" on="1"/>
        <pt x="1304" y="257" on="0"/>
        <pt x="1202" y="187" on="1"/>
        <pt x="1216" y="172" on="0"/>
        <pt x="1248" y="172" on="1"/>
        <pt x="1352" y="172" on="0"/>
        <pt x="1828" y="253" on="0"/>
        <pt x="1859" y="276" on="1"/>
        <pt x="1898" y="303" on="0"/>
        <pt x="1898" y="335" on="1"/>
        <pt x="1785" y="1108" on="1"/>
        <pt x="1785" y="1140" on="0"/>
        <pt x="1829" y="1205" on="1"/>
        <pt x="1866" y="1205" on="1"/>
        <pt x="1927" y="836" on="0"/>
        <pt x="1973" y="392" on="1"/>
        <pt x="1975" y="368" on="0"/>
        <pt x="2013" y="240" on="1"/>
        <pt x="2029" y="187" on="0"/>
        <pt x="2069" y="164" on="1"/>
        <pt x="2172" y="106" on="0"/>
        <pt x="2430" y="79" on="1"/>
        <pt x="2441" y="79" on="0"/>
        <pt x="2548" y="70" on="0"/>
        <pt x="2563" y="70" on="1"/>
        <pt x="2575" y="70" on="0"/>
        <pt x="2619" y="90" on="0"/>
        <pt x="2630" y="90" on="1"/>
        <pt x="3639" y="152" on="1"/>
        <pt x="3667" y="152" on="0"/>
        <pt x="3896" y="170" on="1"/>
        <pt x="4151" y="191" on="0"/>
        <pt x="4247" y="205" on="1"/>
        <pt x="4249" y="206" on="0"/>
        <pt x="4322" y="222" on="1"/>
        <pt x="4383" y="236" on="0"/>
        <pt x="4410" y="236" on="1"/>
        <pt x="4424" y="246" on="0"/>
        <pt x="4437" y="260" on="1"/>
        <pt x="4425" y="283" on="0"/>
        <pt x="4414" y="306" on="1"/>
        <pt x="4400" y="333" on="0"/>
        <pt x="4378" y="342" on="1"/>
        <pt x="4288" y="387" on="0"/>
        <pt x="4212" y="387" on="1"/>
        <pt x="3214" y="295" on="1"/>
        <pt x="3060" y="297" on="0"/>
        <pt x="2956" y="291" on="1"/>
        <pt x="2844" y="284" on="0"/>
        <pt x="2865" y="284" on="1"/>
        <pt x="2753" y="284" on="0"/>
        <pt x="2576" y="310" on="1"/>
        <pt x="2362" y="340" on="0"/>
        <pt x="2339" y="378" on="1"/>
        <pt x="2336" y="388" on="0"/>
        <pt x="2336" y="399" on="1"/>
        <pt x="2336" y="458" on="0"/>
        <pt x="2417" y="559" on="1"/>
        <pt x="2454" y="606" on="0"/>
        <pt x="2491" y="654" on="1"/>
        <pt x="2547" y="720" on="0"/>
        <pt x="2597" y="751" on="1"/>
        <pt x="2641" y="783" on="0"/>
        <pt x="2740" y="843" on="1"/>
        <pt x="2840" y="895" on="0"/>
        <pt x="3010" y="965" on="1"/>
        <pt x="3173" y="1032" on="0"/>
        <pt x="3195" y="1031" on="1"/>
        <pt x="3237" y="1031" on="1"/>
        <pt x="3250" y="1018" on="0"/>
        <pt x="3250" y="1001" on="1"/>
        <pt x="3250" y="920" on="0"/>
        <pt x="3113" y="885" on="1"/>
        <pt x="3031" y="864" on="0"/>
        <pt x="2788" y="749" on="1"/>
        <pt x="2471" y="598" on="0"/>
        <pt x="2471" y="515" on="1"/>
        <pt x="2471" y="480" on="0"/>
        <pt x="2571" y="456" on="1"/>
        <pt x="2648" y="438" on="0"/>
        <pt x="2693" y="438" on="1"/>
        <pt x="3387" y="438" on="1"/>
        <pt x="4258" y="520" on="1"/>
        <pt x="4357" y="520" on="0"/>
        <pt x="4451" y="477" on="1"/>
        <pt x="4570" y="423" on="0"/>
      </contour>
      <contour>
        <pt x="1263" y="1488" on="1"/>
        <pt x="1263" y="1438" on="0"/>
        <pt x="1129" y="1352" on="1"/>
        <pt x="1052" y="1308" on="0"/>
        <pt x="974" y="1264" on="1"/>
        <pt x="900" y="1215" on="0"/>
        <pt x="755" y="1135" on="1"/>
        <pt x="741" y="1149" on="0"/>
        <pt x="741" y="1165" on="1"/>
        <pt x="741" y="1221" on="0"/>
        <pt x="967" y="1362" on="1"/>
        <pt x="1164" y="1484" on="0"/>
        <pt x="1250" y="1513" on="1"/>
        <pt x="1263" y="1511" on="0"/>
      </contour>
      <contour>
        <pt x="4661" y="1709" on="1"/>
        <pt x="4661" y="1715" on="0"/>
        <pt x="4650" y="1752" on="0"/>
        <pt x="4650" y="1757" on="1"/>
        <pt x="4612" y="1757" on="1"/>
        <pt x="4628" y="1709" on="0"/>
      </contour>
      <contour>
        <pt x="2624" y="1474" on="1"/>
        <pt x="2624" y="1511" on="1"/>
        <pt x="2576" y="1523" on="1"/>
        <pt x="2565" y="1484" on="1"/>
        <pt x="2567" y="1484" on="0"/>
        <pt x="2606" y="1474" on="0"/>
      </contour>
      <contour>
        <pt x="1814" y="1556" on="1"/>
        <pt x="1814" y="1593" on="1"/>
        <pt x="1768" y="1605" on="1"/>
        <pt x="1758" y="1586" on="0"/>
        <pt x="1766" y="1569" on="1"/>
        <pt x="1820" y="1556" on="0"/>
      </contour>
      <contour>
        <pt x="1222" y="377" on="1"/>
        <pt x="1222" y="401" on="0"/>
        <pt x="1186" y="443" on="1"/>
        <pt x="1180" y="446" on="0"/>
        <pt x="1164" y="448" on="1"/>
        <pt x="1154" y="428" on="0"/>
        <pt x="1094" y="351" on="1"/>
        <pt x="1044" y="289" on="0"/>
        <pt x="1044" y="252" on="1"/>
        <pt x="1044" y="237" on="0"/>
        <pt x="1052" y="224" on="1"/>
        <pt x="1105" y="243" on="0"/>
        <pt x="1158" y="286" on="1"/>
        <pt x="1222" y="337" on="0"/>
      </contour>
      <contour>
        <pt x="1274" y="-166" on="1"/>
        <pt x="1274" y="-157" on="0"/>
        <pt x="1258" y="-116" on="1"/>
        <pt x="1129" y="-32" on="0"/>
        <pt x="1093" y="-32" on="1"/>
        <pt x="1062" y="-32" on="1"/>
        <pt x="1060" y="-34" on="0"/>
        <pt x="1059" y="-35" on="1"/>
        <pt x="1048" y="-44" on="0"/>
        <pt x="1048" y="-58" on="1"/>
        <pt x="1048" y="-96" on="0"/>
        <pt x="1102" y="-149" on="1"/>
        <pt x="1160" y="-207" on="0"/>
        <pt x="1217" y="-207" on="1"/>
        <pt x="1274" y="-207" on="0"/>
      </contour>
    </TTGlyph>
    <TTGlyph name="gaffinalarabic" xMin="142" yMin="226" xMax="842" yMax="1588">
      <contour>
        <pt x="142" y="226" on="1"/>
        <pt x="142" y="1588" on="1"/>
        <pt x="842" y="1588" on="1"/>
        <pt x="842" y="226" on="1"/>
      </contour>
      <contour>
        <pt x="284" y="368" on="1"/>
        <pt x="700" y="368" on="1"/>
        <pt x="700" y="1447" on="1"/>
        <pt x="284" y="1447" on="1"/>
      </contour>
    </TTGlyph>
    <TTGlyph name="gafinitialarabic" xMin="142" yMin="226" xMax="842" yMax="1588">
      <contour>
        <pt x="142" y="226" on="1"/>
        <pt x="142" y="1588" on="1"/>
        <pt x="842" y="1588" on="1"/>
        <pt x="842" y="226" on="1"/>
      </contour>
      <contour>
        <pt x="284" y="368" on="1"/>
        <pt x="700" y="368" on="1"/>
        <pt x="700" y="1447" on="1"/>
        <pt x="284" y="1447" on="1"/>
      </contour>
    </TTGlyph>
    <TTGlyph name="gafmedialarabic" xMin="142" yMin="226" xMax="842" yMax="1588">
      <contour>
        <pt x="142" y="226" on="1"/>
        <pt x="142" y="1588" on="1"/>
        <pt x="842" y="1588" on="1"/>
        <pt x="842" y="226" on="1"/>
      </contour>
      <contour>
        <pt x="284" y="368" on="1"/>
        <pt x="700" y="368" on="1"/>
        <pt x="700" y="1447" on="1"/>
        <pt x="284" y="1447" on="1"/>
      </contour>
    </TTGlyph>
    <TTGlyph name="glyph41" xMin="142" yMin="226" xMax="842" yMax="1588">
      <contour>
        <pt x="142" y="226" on="1"/>
        <pt x="142" y="1588" on="1"/>
        <pt x="842" y="1588" on="1"/>
        <pt x="842" y="226" on="1"/>
      </contour>
      <contour>
        <pt x="284" y="368" on="1"/>
        <pt x="700" y="368" on="1"/>
        <pt x="700" y="1447" on="1"/>
        <pt x="284" y="1447" on="1"/>
      </contour>
    </TTGlyph>
    <TTGlyph name="glyph42" xMin="142" yMin="226" xMax="842" yMax="1588">
      <contour>
        <pt x="142" y="226" on="1"/>
        <pt x="142" y="1588" on="1"/>
        <pt x="842" y="1588" on="1"/>
        <pt x="842" y="226" on="1"/>
      </contour>
      <contour>
        <pt x="284" y="368" on="1"/>
        <pt x="700" y="368" on="1"/>
        <pt x="700" y="1447" on="1"/>
        <pt x="284" y="1447" on="1"/>
      </contour>
    </TTGlyph>
    <TTGlyph name="glyph43" xMin="142" yMin="226" xMax="842" yMax="1588">
      <contour>
        <pt x="142" y="226" on="1"/>
        <pt x="142" y="1588" on="1"/>
        <pt x="842" y="1588" on="1"/>
        <pt x="842" y="226" on="1"/>
      </contour>
      <contour>
        <pt x="284" y="368" on="1"/>
        <pt x="700" y="368" on="1"/>
        <pt x="700" y="1447" on="1"/>
        <pt x="284" y="1447" on="1"/>
      </contour>
    </TTGlyph>
    <TTGlyph name="glyph44" xMin="142" yMin="226" xMax="842" yMax="1588">
      <contour>
        <pt x="142" y="226" on="1"/>
        <pt x="142" y="1588" on="1"/>
        <pt x="842" y="1588" on="1"/>
        <pt x="842" y="226" on="1"/>
      </contour>
      <contour>
        <pt x="284" y="368" on="1"/>
        <pt x="700" y="368" on="1"/>
        <pt x="700" y="1447" on="1"/>
        <pt x="284" y="1447" on="1"/>
      </contour>
    </TTGlyph>
    <TTGlyph name="glyph45" xMin="142" yMin="226" xMax="842" yMax="1588">
      <contour>
        <pt x="142" y="226" on="1"/>
        <pt x="142" y="1588" on="1"/>
        <pt x="842" y="1588" on="1"/>
        <pt x="842" y="226" on="1"/>
      </contour>
      <contour>
        <pt x="284" y="368" on="1"/>
        <pt x="700" y="368" on="1"/>
        <pt x="700" y="1447" on="1"/>
        <pt x="284" y="1447" on="1"/>
      </contour>
    </TTGlyph>
    <TTGlyph name="glyph46" xMin="142" yMin="226" xMax="842" yMax="1588">
      <contour>
        <pt x="142" y="226" on="1"/>
        <pt x="142" y="1588" on="1"/>
        <pt x="842" y="1588" on="1"/>
        <pt x="842" y="226" on="1"/>
      </contour>
      <contour>
        <pt x="284" y="368" on="1"/>
        <pt x="700" y="368" on="1"/>
        <pt x="700" y="1447" on="1"/>
        <pt x="284" y="1447" on="1"/>
      </contour>
    </TTGlyph>
    <TTGlyph name="glyph47" xMin="142" yMin="226" xMax="842" yMax="1588">
      <contour>
        <pt x="142" y="226" on="1"/>
        <pt x="142" y="1588" on="1"/>
        <pt x="842" y="1588" on="1"/>
        <pt x="842" y="226" on="1"/>
      </contour>
      <contour>
        <pt x="284" y="368" on="1"/>
        <pt x="700" y="368" on="1"/>
        <pt x="700" y="1447" on="1"/>
        <pt x="284" y="1447" on="1"/>
      </contour>
    </TTGlyph>
    <TTGlyph name="glyph48" xMin="142" yMin="226" xMax="842" yMax="1588">
      <contour>
        <pt x="142" y="226" on="1"/>
        <pt x="142" y="1588" on="1"/>
        <pt x="842" y="1588" on="1"/>
        <pt x="842" y="226" on="1"/>
      </contour>
      <contour>
        <pt x="284" y="368" on="1"/>
        <pt x="700" y="368" on="1"/>
        <pt x="700" y="1447" on="1"/>
        <pt x="284" y="1447" on="1"/>
      </contour>
    </TTGlyph>
    <TTGlyph name="glyph50" xMin="142" yMin="226" xMax="842" yMax="1588">
      <contour>
        <pt x="142" y="226" on="1"/>
        <pt x="142" y="1588" on="1"/>
        <pt x="842" y="1588" on="1"/>
        <pt x="842" y="226" on="1"/>
      </contour>
      <contour>
        <pt x="284" y="368" on="1"/>
        <pt x="700" y="368" on="1"/>
        <pt x="700" y="1447" on="1"/>
        <pt x="284" y="1447" on="1"/>
      </contour>
    </TTGlyph>
    <TTGlyph name="glyph51" xMin="142" yMin="226" xMax="842" yMax="1588">
      <contour>
        <pt x="142" y="226" on="1"/>
        <pt x="142" y="1588" on="1"/>
        <pt x="842" y="1588" on="1"/>
        <pt x="842" y="226" on="1"/>
      </contour>
      <contour>
        <pt x="284" y="368" on="1"/>
        <pt x="700" y="368" on="1"/>
        <pt x="700" y="1447" on="1"/>
        <pt x="284" y="1447" on="1"/>
      </contour>
    </TTGlyph>
    <TTGlyph name="greater" xMin="142" yMin="226" xMax="842" yMax="1588">
      <contour>
        <pt x="142" y="226" on="1"/>
        <pt x="142" y="1588" on="1"/>
        <pt x="842" y="1588" on="1"/>
        <pt x="842" y="226" on="1"/>
      </contour>
      <contour>
        <pt x="284" y="368" on="1"/>
        <pt x="700" y="368" on="1"/>
        <pt x="700" y="1447" on="1"/>
        <pt x="284" y="1447" on="1"/>
      </contour>
    </TTGlyph>
    <TTGlyph name="hahhamzabovefinal" xMin="142" yMin="226" xMax="842" yMax="1588">
      <contour>
        <pt x="142" y="226" on="1"/>
        <pt x="142" y="1588" on="1"/>
        <pt x="842" y="1588" on="1"/>
        <pt x="842" y="226" on="1"/>
      </contour>
      <contour>
        <pt x="284" y="368" on="1"/>
        <pt x="700" y="368" on="1"/>
        <pt x="700" y="1447" on="1"/>
        <pt x="284" y="1447" on="1"/>
      </contour>
    </TTGlyph>
    <TTGlyph name="hahhamzaboveinitial" xMin="142" yMin="226" xMax="842" yMax="1588">
      <contour>
        <pt x="142" y="226" on="1"/>
        <pt x="142" y="1588" on="1"/>
        <pt x="842" y="1588" on="1"/>
        <pt x="842" y="226" on="1"/>
      </contour>
      <contour>
        <pt x="284" y="368" on="1"/>
        <pt x="700" y="368" on="1"/>
        <pt x="700" y="1447" on="1"/>
        <pt x="284" y="1447" on="1"/>
      </contour>
    </TTGlyph>
    <TTGlyph name="hahhamzabovemedial" xMin="142" yMin="226" xMax="842" yMax="1588">
      <contour>
        <pt x="142" y="226" on="1"/>
        <pt x="142" y="1588" on="1"/>
        <pt x="842" y="1588" on="1"/>
        <pt x="842" y="226" on="1"/>
      </contour>
      <contour>
        <pt x="284" y="368" on="1"/>
        <pt x="700" y="368" on="1"/>
        <pt x="700" y="1447" on="1"/>
        <pt x="284" y="1447" on="1"/>
      </contour>
    </TTGlyph>
    <TTGlyph name="hahthreedotsabovefinal" xMin="142" yMin="226" xMax="842" yMax="1588">
      <contour>
        <pt x="142" y="226" on="1"/>
        <pt x="142" y="1588" on="1"/>
        <pt x="842" y="1588" on="1"/>
        <pt x="842" y="226" on="1"/>
      </contour>
      <contour>
        <pt x="284" y="368" on="1"/>
        <pt x="700" y="368" on="1"/>
        <pt x="700" y="1447" on="1"/>
        <pt x="284" y="1447" on="1"/>
      </contour>
    </TTGlyph>
    <TTGlyph name="hahthreedotsaboveinitial" xMin="142" yMin="226" xMax="842" yMax="1588">
      <contour>
        <pt x="142" y="226" on="1"/>
        <pt x="142" y="1588" on="1"/>
        <pt x="842" y="1588" on="1"/>
        <pt x="842" y="226" on="1"/>
      </contour>
      <contour>
        <pt x="284" y="368" on="1"/>
        <pt x="700" y="368" on="1"/>
        <pt x="700" y="1447" on="1"/>
        <pt x="284" y="1447" on="1"/>
      </contour>
    </TTGlyph>
    <TTGlyph name="hahthreedotsabovemedial" xMin="142" yMin="226" xMax="842" yMax="1588">
      <contour>
        <pt x="142" y="226" on="1"/>
        <pt x="142" y="1588" on="1"/>
        <pt x="842" y="1588" on="1"/>
        <pt x="842" y="226" on="1"/>
      </contour>
      <contour>
        <pt x="284" y="368" on="1"/>
        <pt x="700" y="368" on="1"/>
        <pt x="700" y="1447" on="1"/>
        <pt x="284" y="1447" on="1"/>
      </contour>
    </TTGlyph>
    <TTGlyph name="hehdoachashmeefinalarabic" xMin="142" yMin="226" xMax="842" yMax="1588">
      <contour>
        <pt x="142" y="226" on="1"/>
        <pt x="142" y="1588" on="1"/>
        <pt x="842" y="1588" on="1"/>
        <pt x="842" y="226" on="1"/>
      </contour>
      <contour>
        <pt x="284" y="368" on="1"/>
        <pt x="700" y="368" on="1"/>
        <pt x="700" y="1447" on="1"/>
        <pt x="284" y="1447" on="1"/>
      </contour>
    </TTGlyph>
    <TTGlyph name="hehdoachashmeeinitialarabic" xMin="142" yMin="226" xMax="842" yMax="1588">
      <contour>
        <pt x="142" y="226" on="1"/>
        <pt x="142" y="1588" on="1"/>
        <pt x="842" y="1588" on="1"/>
        <pt x="842" y="226" on="1"/>
      </contour>
      <contour>
        <pt x="284" y="368" on="1"/>
        <pt x="700" y="368" on="1"/>
        <pt x="700" y="1447" on="1"/>
        <pt x="284" y="1447" on="1"/>
      </contour>
    </TTGlyph>
    <TTGlyph name="hehdoachashmeemedialarabic" xMin="142" yMin="226" xMax="842" yMax="1588">
      <contour>
        <pt x="142" y="226" on="1"/>
        <pt x="142" y="1588" on="1"/>
        <pt x="842" y="1588" on="1"/>
        <pt x="842" y="226" on="1"/>
      </contour>
      <contour>
        <pt x="284" y="368" on="1"/>
        <pt x="700" y="368" on="1"/>
        <pt x="700" y="1447" on="1"/>
        <pt x="284" y="1447" on="1"/>
      </contour>
    </TTGlyph>
    <TTGlyph name="hehfinalaltonearabic" xMin="142" yMin="226" xMax="842" yMax="1588">
      <contour>
        <pt x="142" y="226" on="1"/>
        <pt x="142" y="1588" on="1"/>
        <pt x="842" y="1588" on="1"/>
        <pt x="842" y="226" on="1"/>
      </contour>
      <contour>
        <pt x="284" y="368" on="1"/>
        <pt x="700" y="368" on="1"/>
        <pt x="700" y="1447" on="1"/>
        <pt x="284" y="1447" on="1"/>
      </contour>
    </TTGlyph>
    <TTGlyph name="hehhamzaabovefinalarabic" xMin="142" yMin="226" xMax="842" yMax="1588">
      <contour>
        <pt x="142" y="226" on="1"/>
        <pt x="142" y="1588" on="1"/>
        <pt x="842" y="1588" on="1"/>
        <pt x="842" y="226" on="1"/>
      </contour>
      <contour>
        <pt x="284" y="368" on="1"/>
        <pt x="700" y="368" on="1"/>
        <pt x="700" y="1447" on="1"/>
        <pt x="284" y="1447" on="1"/>
      </contour>
    </TTGlyph>
    <TTGlyph name="hehinitialaltonearabic" xMin="142" yMin="226" xMax="842" yMax="1588">
      <contour>
        <pt x="142" y="226" on="1"/>
        <pt x="142" y="1588" on="1"/>
        <pt x="842" y="1588" on="1"/>
        <pt x="842" y="226" on="1"/>
      </contour>
      <contour>
        <pt x="284" y="368" on="1"/>
        <pt x="700" y="368" on="1"/>
        <pt x="700" y="1447" on="1"/>
        <pt x="284" y="1447" on="1"/>
      </contour>
    </TTGlyph>
    <TTGlyph name="hehmedialaltonearabic" xMin="142" yMin="226" xMax="842" yMax="1588">
      <contour>
        <pt x="142" y="226" on="1"/>
        <pt x="142" y="1588" on="1"/>
        <pt x="842" y="1588" on="1"/>
        <pt x="842" y="226" on="1"/>
      </contour>
      <contour>
        <pt x="284" y="368" on="1"/>
        <pt x="700" y="368" on="1"/>
        <pt x="700" y="1447" on="1"/>
        <pt x="284" y="1447" on="1"/>
      </contour>
    </TTGlyph>
    <TTGlyph name="hyphen" xMin="321" yMin="-371" xMax="4898" yMax="1884">
      <contour>
        <pt x="4846" y="1573" on="1"/>
        <pt x="4846" y="1534" on="0"/>
        <pt x="4812" y="1483" on="1"/>
        <pt x="4690" y="1544" on="0"/>
        <pt x="4678" y="1544" on="1"/>
        <pt x="4664" y="1544" on="0"/>
        <pt x="4614" y="1500" on="1"/>
        <pt x="4536" y="1431" on="0"/>
        <pt x="4528" y="1425" on="1"/>
        <pt x="4494" y="1398" on="0"/>
        <pt x="4430" y="1370" on="1"/>
        <pt x="4358" y="1337" on="0"/>
        <pt x="4320" y="1335" on="1"/>
        <pt x="4312" y="1335" on="0"/>
        <pt x="4250" y="1309" on="0"/>
        <pt x="4236" y="1309" on="1"/>
        <pt x="4183" y="1309" on="1"/>
        <pt x="4183" y="1341" on="0"/>
        <pt x="4205" y="1355" on="1"/>
        <pt x="4347" y="1402" on="0"/>
        <pt x="4581" y="1581" on="1"/>
        <pt x="4575" y="1603" on="0"/>
        <pt x="4500" y="1657" on="1"/>
        <pt x="4496" y="1667" on="0"/>
        <pt x="4496" y="1679" on="1"/>
        <pt x="4496" y="1739" on="0"/>
        <pt x="4552" y="1810" on="1"/>
        <pt x="4611" y="1884" on="0"/>
        <pt x="4670" y="1884" on="1"/>
        <pt x="4681" y="1884" on="0"/>
        <pt x="4691" y="1881" on="1"/>
        <pt x="4734" y="1842" on="0"/>
        <pt x="4734" y="1775" on="1"/>
        <pt x="4734" y="1756" on="0"/>
        <pt x="4726" y="1681" on="0"/>
        <pt x="4726" y="1664" on="1"/>
        <pt x="4767" y="1634" on="0"/>
      </contour>
      <contour>
        <pt x="4898" y="1217" on="1"/>
        <pt x="4898" y="1174" on="0"/>
        <pt x="4854" y="1158" on="1"/>
        <pt x="4786" y="1144" on="0"/>
        <pt x="4659" y="1110" on="1"/>
        <pt x="4621" y="1087" on="0"/>
        <pt x="4542" y="1043" on="1"/>
        <pt x="4534" y="1090" on="0"/>
        <pt x="4556" y="1131" on="1"/>
        <pt x="4559" y="1141" on="0"/>
        <pt x="4540" y="1169" on="1"/>
        <pt x="4519" y="1198" on="0"/>
        <pt x="4519" y="1211" on="1"/>
        <pt x="4519" y="1249" on="0"/>
        <pt x="4604" y="1321" on="1"/>
        <pt x="4687" y="1390" on="0"/>
        <pt x="4723" y="1390" on="1"/>
        <pt x="4750" y="1390" on="0"/>
        <pt x="4795" y="1348" on="1"/>
        <pt x="4795" y="1289" on="1"/>
        <pt x="4758" y="1257" on="0"/>
        <pt x="4739" y="1257" on="1"/>
        <pt x="4751" y="1257" on="0"/>
        <pt x="4668" y="1278" on="1"/>
        <pt x="4652" y="1262" on="1"/>
        <pt x="4690" y="1226" on="0"/>
        <pt x="4723" y="1226" on="1"/>
        <pt x="4723" y="1226" on="0"/>
        <pt x="4884" y="1247" on="1"/>
        <pt x="4898" y="1233" on="0"/>
      </contour>
      <contour>
        <pt x="4867" y="188" on="1"/>
        <pt x="4867" y="111" on="0"/>
        <pt x="4834" y="29" on="1"/>
        <pt x="4797" y="29" on="1"/>
        <pt x="4693" y="950" on="1"/>
        <pt x="4693" y="964" on="0"/>
        <pt x="4710" y="1022" on="1"/>
        <pt x="4732" y="1090" on="0"/>
        <pt x="4736" y="1112" on="1"/>
        <pt x="4773" y="1112" on="1"/>
      </contour>
      <contour>
        <pt x="2808" y="1258" on="1"/>
        <pt x="2805" y="1258" on="0"/>
        <pt x="2788" y="1247" on="0"/>
        <pt x="2774" y="1247" on="1"/>
        <pt x="2764" y="1247" on="0"/>
        <pt x="2659" y="1308" on="0"/>
        <pt x="2645" y="1308" on="1"/>
        <pt x="2636" y="1308" on="0"/>
        <pt x="2565" y="1253" on="1"/>
        <pt x="2468" y="1176" on="0"/>
        <pt x="2418" y="1142" on="1"/>
        <pt x="2303" y="1063" on="0"/>
        <pt x="2224" y="1063" on="1"/>
        <pt x="2209" y="1063" on="0"/>
        <pt x="2195" y="1066" on="1"/>
        <pt x="2216" y="1103" on="0"/>
        <pt x="2352" y="1189" on="1"/>
        <pt x="2496" y="1279" on="0"/>
        <pt x="2543" y="1345" on="1"/>
        <pt x="2534" y="1372" on="0"/>
        <pt x="2494" y="1395" on="1"/>
        <pt x="2461" y="1413" on="0"/>
        <pt x="2461" y="1462" on="1"/>
        <pt x="2461" y="1505" on="0"/>
        <pt x="2515" y="1572" on="1"/>
        <pt x="2574" y="1647" on="0"/>
        <pt x="2630" y="1647" on="1"/>
        <pt x="2688" y="1647" on="0"/>
        <pt x="2699" y="1548" on="1"/>
        <pt x="2698" y="1493" on="0"/>
        <pt x="2698" y="1439" on="1"/>
        <pt x="2738" y="1402" on="0"/>
        <pt x="2808" y="1336" on="1"/>
      </contour>
      <contour>
        <pt x="1990" y="1416" on="1"/>
        <pt x="1990" y="1384" on="0"/>
        <pt x="1955" y="1349" on="1"/>
        <pt x="1944" y="1353" on="0"/>
        <pt x="1899" y="1379" on="1"/>
        <pt x="1861" y="1401" on="0"/>
        <pt x="1846" y="1401" on="1"/>
        <pt x="1834" y="1401" on="0"/>
        <pt x="1782" y="1347" on="1"/>
        <pt x="1715" y="1279" on="0"/>
        <pt x="1691" y="1261" on="1"/>
        <pt x="1652" y="1231" on="0"/>
        <pt x="1577" y="1199" on="1"/>
        <pt x="1465" y="1152" on="0"/>
        <pt x="1451" y="1144" on="1"/>
        <pt x="1427" y="1171" on="1"/>
        <pt x="1447" y="1192" on="0"/>
        <pt x="1583" y="1290" on="1"/>
        <pt x="1708" y="1379" on="0"/>
        <pt x="1745" y="1436" on="1"/>
        <pt x="1741" y="1440" on="0"/>
        <pt x="1692" y="1483" on="1"/>
        <pt x="1663" y="1510" on="0"/>
        <pt x="1663" y="1524" on="1"/>
        <pt x="1663" y="1570" on="0"/>
        <pt x="1706" y="1644" on="1"/>
        <pt x="1757" y="1729" on="0"/>
        <pt x="1811" y="1729" on="1"/>
        <pt x="1863" y="1729" on="0"/>
        <pt x="1873" y="1694" on="1"/>
        <pt x="1880" y="1672" on="0"/>
        <pt x="1882" y="1602" on="1"/>
        <pt x="1884" y="1541" on="0"/>
        <pt x="1900" y="1511" on="1"/>
        <pt x="1905" y="1502" on="0"/>
        <pt x="1951" y="1474" on="1"/>
        <pt x="1990" y="1452" on="0"/>
      </contour>
      <contour>
        <pt x="4570" y="331" on="1"/>
        <pt x="4570" y="281" on="0"/>
        <pt x="4487" y="136" on="0"/>
        <pt x="4445" y="114" on="1"/>
        <pt x="4413" y="97" on="0"/>
        <pt x="4072" y="52" on="1"/>
        <pt x="3741" y="8" on="0"/>
        <pt x="3674" y="8" on="1"/>
        <pt x="3663" y="8" on="0"/>
        <pt x="3350" y="-12" on="0"/>
        <pt x="3336" y="-12" on="1"/>
        <pt x="2492" y="-73" on="1"/>
        <pt x="2471" y="-73" on="0"/>
        <pt x="2444" y="-56" on="1"/>
        <pt x="2414" y="-53" on="0"/>
        <pt x="2226" y="-53" on="1"/>
        <pt x="2213" y="-53" on="0"/>
        <pt x="2176" y="-37" on="0"/>
        <pt x="2168" y="-36" on="1"/>
        <pt x="2098" y="-27" on="0"/>
        <pt x="2034" y="1" on="1"/>
        <pt x="1977" y="26" on="0"/>
        <pt x="1948" y="93" on="1"/>
        <pt x="1936" y="117" on="0"/>
        <pt x="1915" y="206" on="1"/>
        <pt x="1911" y="211" on="0"/>
        <pt x="1903" y="223" on="1"/>
        <pt x="1873" y="188" on="0"/>
        <pt x="1803" y="134" on="1"/>
        <pt x="1656" y="70" on="0"/>
        <pt x="1575" y="70" on="1"/>
        <pt x="1563" y="70" on="0"/>
        <pt x="1552" y="79" on="0"/>
        <pt x="1540" y="79" on="1"/>
        <pt x="1519" y="79" on="0"/>
        <pt x="1495" y="62" on="1"/>
        <pt x="1447" y="60" on="0"/>
        <pt x="1400" y="57" on="1"/>
        <pt x="1337" y="51" on="0"/>
        <pt x="1293" y="22" on="1"/>
        <pt x="1317" y="-21" on="0"/>
        <pt x="1340" y="-63" on="1"/>
        <pt x="1356" y="-99" on="0"/>
        <pt x="1356" y="-166" on="1"/>
        <pt x="1356" y="-371" on="0"/>
        <pt x="1207" y="-371" on="1"/>
        <pt x="1066" y="-371" on="0"/>
        <pt x="989" y="-172" on="1"/>
        <pt x="983" y="-120" on="0"/>
        <pt x="953" y="-41" on="1"/>
        <pt x="900" y="18" on="0"/>
        <pt x="874" y="18" on="1"/>
        <pt x="862" y="18" on="0"/>
        <pt x="698" y="-2" on="0"/>
        <pt x="685" y="-2" on="1"/>
        <pt x="617" y="-2" on="0"/>
        <pt x="540" y="43" on="1"/>
        <pt x="447" y="97" on="0"/>
        <pt x="437" y="176" on="1"/>
        <pt x="382" y="566" on="0"/>
        <pt x="359" y="924" on="1"/>
        <pt x="357" y="945" on="0"/>
        <pt x="321" y="1068" on="0"/>
        <pt x="321" y="1083" on="1"/>
        <pt x="321" y="1153" on="0"/>
        <pt x="389" y="1206" on="1"/>
        <pt x="437" y="1075" on="0"/>
        <pt x="458" y="852" on="1"/>
        <pt x="475" y="679" on="0"/>
        <pt x="491" y="505" on="1"/>
        <pt x="495" y="437" on="0"/>
        <pt x="499" y="369" on="1"/>
        <pt x="506" y="284" on="0"/>
        <pt x="548" y="231" on="1"/>
        <pt x="589" y="181" on="0"/>
        <pt x="645" y="164" on="1"/>
        <pt x="653" y="161" on="0"/>
        <pt x="741" y="161" on="1"/>
        <pt x="751" y="161" on="0"/>
        <pt x="929" y="174" on="1"/>
        <pt x="944" y="185" on="0"/>
        <pt x="953" y="200" on="1"/>
        <pt x="978" y="285" on="0"/>
        <pt x="1045" y="419" on="1"/>
        <pt x="1148" y="623" on="0"/>
        <pt x="1222" y="623" on="1"/>
        <pt x="1278" y="623" on="0"/>
        <pt x="1304" y="433" on="1"/>
        <pt x="1304" y="257" on="0"/>
        <pt x="1202" y="187" on="1"/>
        <pt x="1216" y="172" on="0"/>
        <pt x="1248" y="172" on="1"/>
        <pt x="1352" y="172" on="0"/>
        <pt x="1828" y="253" on="0"/>
        <pt x="1859" y="276" on="1"/>
        <pt x="1898" y="303" on="0"/>
        <pt x="1898" y="335" on="1"/>
        <pt x="1785" y="1108" on="1"/>
        <pt x="1785" y="1140" on="0"/>
        <pt x="1829" y="1205" on="1"/>
        <pt x="1866" y="1205" on="1"/>
        <pt x="1927" y="836" on="0"/>
        <pt x="1973" y="392" on="1"/>
        <pt x="1975" y="368" on="0"/>
        <pt x="2013" y="240" on="1"/>
        <pt x="2029" y="187" on="0"/>
        <pt x="2069" y="164" on="1"/>
        <pt x="2172" y="106" on="0"/>
        <pt x="2430" y="79" on="1"/>
        <pt x="2441" y="79" on="0"/>
        <pt x="2548" y="70" on="0"/>
        <pt x="2563" y="70" on="1"/>
        <pt x="2575" y="70" on="0"/>
        <pt x="2619" y="90" on="0"/>
        <pt x="2630" y="90" on="1"/>
        <pt x="3639" y="152" on="1"/>
        <pt x="3667" y="152" on="0"/>
        <pt x="3896" y="170" on="1"/>
        <pt x="4151" y="191" on="0"/>
        <pt x="4247" y="205" on="1"/>
        <pt x="4249" y="206" on="0"/>
        <pt x="4322" y="222" on="1"/>
        <pt x="4383" y="236" on="0"/>
        <pt x="4410" y="236" on="1"/>
        <pt x="4424" y="246" on="0"/>
        <pt x="4437" y="260" on="1"/>
        <pt x="4425" y="283" on="0"/>
        <pt x="4414" y="306" on="1"/>
        <pt x="4400" y="333" on="0"/>
        <pt x="4378" y="342" on="1"/>
        <pt x="4288" y="387" on="0"/>
        <pt x="4212" y="387" on="1"/>
        <pt x="3214" y="295" on="1"/>
        <pt x="3060" y="297" on="0"/>
        <pt x="2956" y="291" on="1"/>
        <pt x="2844" y="284" on="0"/>
        <pt x="2865" y="284" on="1"/>
        <pt x="2753" y="284" on="0"/>
        <pt x="2576" y="310" on="1"/>
        <pt x="2362" y="340" on="0"/>
        <pt x="2339" y="378" on="1"/>
        <pt x="2336" y="388" on="0"/>
        <pt x="2336" y="399" on="1"/>
        <pt x="2336" y="458" on="0"/>
        <pt x="2417" y="559" on="1"/>
        <pt x="2454" y="606" on="0"/>
        <pt x="2491" y="654" on="1"/>
        <pt x="2547" y="720" on="0"/>
        <pt x="2597" y="751" on="1"/>
        <pt x="2641" y="783" on="0"/>
        <pt x="2740" y="843" on="1"/>
        <pt x="2840" y="895" on="0"/>
        <pt x="3010" y="965" on="1"/>
        <pt x="3173" y="1032" on="0"/>
        <pt x="3195" y="1031" on="1"/>
        <pt x="3237" y="1031" on="1"/>
        <pt x="3250" y="1018" on="0"/>
        <pt x="3250" y="1001" on="1"/>
        <pt x="3250" y="920" on="0"/>
        <pt x="3113" y="885" on="1"/>
        <pt x="3031" y="864" on="0"/>
        <pt x="2788" y="749" on="1"/>
        <pt x="2471" y="598" on="0"/>
        <pt x="2471" y="515" on="1"/>
        <pt x="2471" y="480" on="0"/>
        <pt x="2571" y="456" on="1"/>
        <pt x="2648" y="438" on="0"/>
        <pt x="2693" y="438" on="1"/>
        <pt x="3387" y="438" on="1"/>
        <pt x="4258" y="520" on="1"/>
        <pt x="4357" y="520" on="0"/>
        <pt x="4451" y="477" on="1"/>
        <pt x="4570" y="423" on="0"/>
      </contour>
      <contour>
        <pt x="1263" y="1488" on="1"/>
        <pt x="1263" y="1438" on="0"/>
        <pt x="1129" y="1352" on="1"/>
        <pt x="1052" y="1308" on="0"/>
        <pt x="974" y="1264" on="1"/>
        <pt x="900" y="1215" on="0"/>
        <pt x="755" y="1135" on="1"/>
        <pt x="741" y="1149" on="0"/>
        <pt x="741" y="1165" on="1"/>
        <pt x="741" y="1221" on="0"/>
        <pt x="967" y="1362" on="1"/>
        <pt x="1164" y="1484" on="0"/>
        <pt x="1250" y="1513" on="1"/>
        <pt x="1263" y="1511" on="0"/>
      </contour>
      <contour>
        <pt x="4661" y="1709" on="1"/>
        <pt x="4661" y="1715" on="0"/>
        <pt x="4650" y="1752" on="0"/>
        <pt x="4650" y="1757" on="1"/>
        <pt x="4612" y="1757" on="1"/>
        <pt x="4628" y="1709" on="0"/>
      </contour>
      <contour>
        <pt x="2624" y="1474" on="1"/>
        <pt x="2624" y="1511" on="1"/>
        <pt x="2576" y="1523" on="1"/>
        <pt x="2565" y="1484" on="1"/>
        <pt x="2567" y="1484" on="0"/>
        <pt x="2606" y="1474" on="0"/>
      </contour>
      <contour>
        <pt x="1814" y="1556" on="1"/>
        <pt x="1814" y="1593" on="1"/>
        <pt x="1768" y="1605" on="1"/>
        <pt x="1758" y="1586" on="0"/>
        <pt x="1766" y="1569" on="1"/>
        <pt x="1820" y="1556" on="0"/>
      </contour>
      <contour>
        <pt x="1222" y="377" on="1"/>
        <pt x="1222" y="401" on="0"/>
        <pt x="1186" y="443" on="1"/>
        <pt x="1180" y="446" on="0"/>
        <pt x="1164" y="448" on="1"/>
        <pt x="1154" y="428" on="0"/>
        <pt x="1094" y="351" on="1"/>
        <pt x="1044" y="289" on="0"/>
        <pt x="1044" y="252" on="1"/>
        <pt x="1044" y="237" on="0"/>
        <pt x="1052" y="224" on="1"/>
        <pt x="1105" y="243" on="0"/>
        <pt x="1158" y="286" on="1"/>
        <pt x="1222" y="337" on="0"/>
      </contour>
      <contour>
        <pt x="1274" y="-166" on="1"/>
        <pt x="1274" y="-157" on="0"/>
        <pt x="1258" y="-116" on="1"/>
        <pt x="1129" y="-32" on="0"/>
        <pt x="1093" y="-32" on="1"/>
        <pt x="1062" y="-32" on="1"/>
        <pt x="1060" y="-34" on="0"/>
        <pt x="1059" y="-35" on="1"/>
        <pt x="1048" y="-44" on="0"/>
        <pt x="1048" y="-58" on="1"/>
        <pt x="1048" y="-96" on="0"/>
        <pt x="1102" y="-149" on="1"/>
        <pt x="1160" y="-207" on="0"/>
        <pt x="1217" y="-207" on="1"/>
        <pt x="1274" y="-207" on="0"/>
      </contour>
    </TTGlyph>
    <TTGlyph name="irghizufinal" xMin="142" yMin="226" xMax="842" yMax="1588">
      <contour>
        <pt x="142" y="226" on="1"/>
        <pt x="142" y="1588" on="1"/>
        <pt x="842" y="1588" on="1"/>
        <pt x="842" y="226" on="1"/>
      </contour>
      <contour>
        <pt x="284" y="368" on="1"/>
        <pt x="700" y="368" on="1"/>
        <pt x="700" y="1447" on="1"/>
        <pt x="284" y="1447" on="1"/>
      </contour>
    </TTGlyph>
    <TTGlyph name="jehfinalarabic" xMin="142" yMin="226" xMax="842" yMax="1588">
      <contour>
        <pt x="142" y="226" on="1"/>
        <pt x="142" y="1588" on="1"/>
        <pt x="842" y="1588" on="1"/>
        <pt x="842" y="226" on="1"/>
      </contour>
      <contour>
        <pt x="284" y="368" on="1"/>
        <pt x="700" y="368" on="1"/>
        <pt x="700" y="1447" on="1"/>
        <pt x="284" y="1447" on="1"/>
      </contour>
    </TTGlyph>
    <TTGlyph name="kafringfinal" xMin="142" yMin="226" xMax="842" yMax="1588">
      <contour>
        <pt x="142" y="226" on="1"/>
        <pt x="142" y="1588" on="1"/>
        <pt x="842" y="1588" on="1"/>
        <pt x="842" y="226" on="1"/>
      </contour>
      <contour>
        <pt x="284" y="368" on="1"/>
        <pt x="700" y="368" on="1"/>
        <pt x="700" y="1447" on="1"/>
        <pt x="284" y="1447" on="1"/>
      </contour>
    </TTGlyph>
    <TTGlyph name="kafringinitial" xMin="142" yMin="226" xMax="842" yMax="1588">
      <contour>
        <pt x="142" y="226" on="1"/>
        <pt x="142" y="1588" on="1"/>
        <pt x="842" y="1588" on="1"/>
        <pt x="842" y="226" on="1"/>
      </contour>
      <contour>
        <pt x="284" y="368" on="1"/>
        <pt x="700" y="368" on="1"/>
        <pt x="700" y="1447" on="1"/>
        <pt x="284" y="1447" on="1"/>
      </contour>
    </TTGlyph>
    <TTGlyph name="kafringmedial" xMin="142" yMin="226" xMax="842" yMax="1588">
      <contour>
        <pt x="142" y="226" on="1"/>
        <pt x="142" y="1588" on="1"/>
        <pt x="842" y="1588" on="1"/>
        <pt x="842" y="226" on="1"/>
      </contour>
      <contour>
        <pt x="284" y="368" on="1"/>
        <pt x="700" y="368" on="1"/>
        <pt x="700" y="1447" on="1"/>
        <pt x="284" y="1447" on="1"/>
      </contour>
    </TTGlyph>
    <TTGlyph name="kashidaautoarabic" xMin="142" yMin="226" xMax="842" yMax="1588">
      <contour>
        <pt x="142" y="226" on="1"/>
        <pt x="142" y="1588" on="1"/>
        <pt x="842" y="1588" on="1"/>
        <pt x="842" y="226" on="1"/>
      </contour>
      <contour>
        <pt x="284" y="368" on="1"/>
        <pt x="700" y="368" on="1"/>
        <pt x="700" y="1447" on="1"/>
        <pt x="284" y="1447" on="1"/>
      </contour>
    </TTGlyph>
    <TTGlyph name="kashidaautonosidebearingarabic" xMin="142" yMin="226" xMax="842" yMax="1588">
      <contour>
        <pt x="142" y="226" on="1"/>
        <pt x="142" y="1588" on="1"/>
        <pt x="842" y="1588" on="1"/>
        <pt x="842" y="226" on="1"/>
      </contour>
      <contour>
        <pt x="284" y="368" on="1"/>
        <pt x="700" y="368" on="1"/>
        <pt x="700" y="1447" on="1"/>
        <pt x="284" y="1447" on="1"/>
      </contour>
    </TTGlyph>
    <TTGlyph name="kehehfinalarabic" xMin="142" yMin="226" xMax="842" yMax="1588">
      <contour>
        <pt x="142" y="226" on="1"/>
        <pt x="142" y="1588" on="1"/>
        <pt x="842" y="1588" on="1"/>
        <pt x="842" y="226" on="1"/>
      </contour>
      <contour>
        <pt x="284" y="368" on="1"/>
        <pt x="700" y="368" on="1"/>
        <pt x="700" y="1447" on="1"/>
        <pt x="284" y="1447" on="1"/>
      </contour>
    </TTGlyph>
    <TTGlyph name="kehehinitialarabic" xMin="142" yMin="226" xMax="842" yMax="1588">
      <contour>
        <pt x="142" y="226" on="1"/>
        <pt x="142" y="1588" on="1"/>
        <pt x="842" y="1588" on="1"/>
        <pt x="842" y="226" on="1"/>
      </contour>
      <contour>
        <pt x="284" y="368" on="1"/>
        <pt x="700" y="368" on="1"/>
        <pt x="700" y="1447" on="1"/>
        <pt x="284" y="1447" on="1"/>
      </contour>
    </TTGlyph>
    <TTGlyph name="kehehmedialarabic" xMin="142" yMin="226" xMax="842" yMax="1588">
      <contour>
        <pt x="142" y="226" on="1"/>
        <pt x="142" y="1588" on="1"/>
        <pt x="842" y="1588" on="1"/>
        <pt x="842" y="226" on="1"/>
      </contour>
      <contour>
        <pt x="284" y="368" on="1"/>
        <pt x="700" y="368" on="1"/>
        <pt x="700" y="1447" on="1"/>
        <pt x="284" y="1447" on="1"/>
      </contour>
    </TTGlyph>
    <TTGlyph name="kirghizyifinal" xMin="142" yMin="226" xMax="842" yMax="1588">
      <contour>
        <pt x="142" y="226" on="1"/>
        <pt x="142" y="1588" on="1"/>
        <pt x="842" y="1588" on="1"/>
        <pt x="842" y="226" on="1"/>
      </contour>
      <contour>
        <pt x="284" y="368" on="1"/>
        <pt x="700" y="368" on="1"/>
        <pt x="700" y="1447" on="1"/>
        <pt x="284" y="1447" on="1"/>
      </contour>
    </TTGlyph>
    <TTGlyph name="lammeemjeeminitialarabic" xMin="142" yMin="226" xMax="842" yMax="1588">
      <contour>
        <pt x="142" y="226" on="1"/>
        <pt x="142" y="1588" on="1"/>
        <pt x="842" y="1588" on="1"/>
        <pt x="842" y="226" on="1"/>
      </contour>
      <contour>
        <pt x="284" y="368" on="1"/>
        <pt x="700" y="368" on="1"/>
        <pt x="700" y="1447" on="1"/>
        <pt x="284" y="1447" on="1"/>
      </contour>
    </TTGlyph>
    <TTGlyph name="lammeemkhahinitialarabic" xMin="142" yMin="226" xMax="842" yMax="1588">
      <contour>
        <pt x="142" y="226" on="1"/>
        <pt x="142" y="1588" on="1"/>
        <pt x="842" y="1588" on="1"/>
        <pt x="842" y="226" on="1"/>
      </contour>
      <contour>
        <pt x="284" y="368" on="1"/>
        <pt x="700" y="368" on="1"/>
        <pt x="700" y="1447" on="1"/>
        <pt x="284" y="1447" on="1"/>
      </contour>
    </TTGlyph>
    <TTGlyph name="lamthreedotsabovefinal" xMin="142" yMin="226" xMax="842" yMax="1588">
      <contour>
        <pt x="142" y="226" on="1"/>
        <pt x="142" y="1588" on="1"/>
        <pt x="842" y="1588" on="1"/>
        <pt x="842" y="226" on="1"/>
      </contour>
      <contour>
        <pt x="284" y="368" on="1"/>
        <pt x="700" y="368" on="1"/>
        <pt x="700" y="1447" on="1"/>
        <pt x="284" y="1447" on="1"/>
      </contour>
    </TTGlyph>
    <TTGlyph name="lamthreedotsaboveinitial" xMin="142" yMin="226" xMax="842" yMax="1588">
      <contour>
        <pt x="142" y="226" on="1"/>
        <pt x="142" y="1588" on="1"/>
        <pt x="842" y="1588" on="1"/>
        <pt x="842" y="226" on="1"/>
      </contour>
      <contour>
        <pt x="284" y="368" on="1"/>
        <pt x="700" y="368" on="1"/>
        <pt x="700" y="1447" on="1"/>
        <pt x="284" y="1447" on="1"/>
      </contour>
    </TTGlyph>
    <TTGlyph name="lamthreedotsabovemedial" xMin="142" yMin="226" xMax="842" yMax="1588">
      <contour>
        <pt x="142" y="226" on="1"/>
        <pt x="142" y="1588" on="1"/>
        <pt x="842" y="1588" on="1"/>
        <pt x="842" y="226" on="1"/>
      </contour>
      <contour>
        <pt x="284" y="368" on="1"/>
        <pt x="700" y="368" on="1"/>
        <pt x="700" y="1447" on="1"/>
        <pt x="284" y="1447" on="1"/>
      </contour>
    </TTGlyph>
    <TTGlyph name="less" xMin="142" yMin="226" xMax="842" yMax="1588">
      <contour>
        <pt x="142" y="226" on="1"/>
        <pt x="142" y="1588" on="1"/>
        <pt x="842" y="1588" on="1"/>
        <pt x="842" y="226" on="1"/>
      </contour>
      <contour>
        <pt x="284" y="368" on="1"/>
        <pt x="700" y="368" on="1"/>
        <pt x="700" y="1447" on="1"/>
        <pt x="284" y="1447" on="1"/>
      </contour>
    </TTGlyph>
    <TTGlyph name="meemmeemisolatedarabic" xMin="142" yMin="226" xMax="842" yMax="1588">
      <contour>
        <pt x="142" y="226" on="1"/>
        <pt x="142" y="1588" on="1"/>
        <pt x="842" y="1588" on="1"/>
        <pt x="842" y="226" on="1"/>
      </contour>
      <contour>
        <pt x="284" y="368" on="1"/>
        <pt x="700" y="368" on="1"/>
        <pt x="700" y="1447" on="1"/>
        <pt x="284" y="1447" on="1"/>
      </contour>
    </TTGlyph>
    <TTGlyph name="multiply" xMin="142" yMin="226" xMax="842" yMax="1588">
      <contour>
        <pt x="142" y="226" on="1"/>
        <pt x="142" y="1588" on="1"/>
        <pt x="842" y="1588" on="1"/>
        <pt x="842" y="226" on="1"/>
      </contour>
      <contour>
        <pt x="284" y="368" on="1"/>
        <pt x="700" y="368" on="1"/>
        <pt x="700" y="1447" on="1"/>
        <pt x="284" y="1447" on="1"/>
      </contour>
    </TTGlyph>
    <TTGlyph name="noonghunnafinalarabic" xMin="142" yMin="226" xMax="842" yMax="1588">
      <contour>
        <pt x="142" y="226" on="1"/>
        <pt x="142" y="1588" on="1"/>
        <pt x="842" y="1588" on="1"/>
        <pt x="842" y="226" on="1"/>
      </contour>
      <contour>
        <pt x="284" y="368" on="1"/>
        <pt x="700" y="368" on="1"/>
        <pt x="700" y="1447" on="1"/>
        <pt x="284" y="1447" on="1"/>
      </contour>
    </TTGlyph>
    <TTGlyph name="noonjeemisolatedarabic" xMin="142" yMin="226" xMax="842" yMax="1588">
      <contour>
        <pt x="142" y="226" on="1"/>
        <pt x="142" y="1588" on="1"/>
        <pt x="842" y="1588" on="1"/>
        <pt x="842" y="226" on="1"/>
      </contour>
      <contour>
        <pt x="284" y="368" on="1"/>
        <pt x="700" y="368" on="1"/>
        <pt x="700" y="1447" on="1"/>
        <pt x="284" y="1447" on="1"/>
      </contour>
    </TTGlyph>
    <TTGlyph name="noonmeemisolatedarabic" xMin="142" yMin="226" xMax="842" yMax="1588">
      <contour>
        <pt x="142" y="226" on="1"/>
        <pt x="142" y="1588" on="1"/>
        <pt x="842" y="1588" on="1"/>
        <pt x="842" y="226" on="1"/>
      </contour>
      <contour>
        <pt x="284" y="368" on="1"/>
        <pt x="700" y="368" on="1"/>
        <pt x="700" y="1447" on="1"/>
        <pt x="284" y="1447" on="1"/>
      </contour>
    </TTGlyph>
    <TTGlyph name="noonringfinal" xMin="142" yMin="226" xMax="842" yMax="1588">
      <contour>
        <pt x="142" y="226" on="1"/>
        <pt x="142" y="1588" on="1"/>
        <pt x="842" y="1588" on="1"/>
        <pt x="842" y="226" on="1"/>
      </contour>
      <contour>
        <pt x="284" y="368" on="1"/>
        <pt x="700" y="368" on="1"/>
        <pt x="700" y="1447" on="1"/>
        <pt x="284" y="1447" on="1"/>
      </contour>
    </TTGlyph>
    <TTGlyph name="noonringinitial" xMin="142" yMin="226" xMax="842" yMax="1588">
      <contour>
        <pt x="142" y="226" on="1"/>
        <pt x="142" y="1588" on="1"/>
        <pt x="842" y="1588" on="1"/>
        <pt x="842" y="226" on="1"/>
      </contour>
      <contour>
        <pt x="284" y="368" on="1"/>
        <pt x="700" y="368" on="1"/>
        <pt x="700" y="1447" on="1"/>
        <pt x="284" y="1447" on="1"/>
      </contour>
    </TTGlyph>
    <TTGlyph name="noonringmedial" xMin="142" yMin="226" xMax="842" yMax="1588">
      <contour>
        <pt x="142" y="226" on="1"/>
        <pt x="142" y="1588" on="1"/>
        <pt x="842" y="1588" on="1"/>
        <pt x="842" y="226" on="1"/>
      </contour>
      <contour>
        <pt x="284" y="368" on="1"/>
        <pt x="700" y="368" on="1"/>
        <pt x="700" y="1447" on="1"/>
        <pt x="284" y="1447" on="1"/>
      </contour>
    </TTGlyph>
    <TTGlyph name="numbersign" xMin="142" yMin="226" xMax="842" yMax="1588">
      <contour>
        <pt x="142" y="226" on="1"/>
        <pt x="142" y="1588" on="1"/>
        <pt x="842" y="1588" on="1"/>
        <pt x="842" y="226" on="1"/>
      </contour>
      <contour>
        <pt x="284" y="368" on="1"/>
        <pt x="700" y="368" on="1"/>
        <pt x="700" y="1447" on="1"/>
        <pt x="284" y="1447" on="1"/>
      </contour>
    </TTGlyph>
    <TTGlyph name="parenleft" xMin="142" yMin="226" xMax="842" yMax="1588">
      <contour>
        <pt x="142" y="226" on="1"/>
        <pt x="142" y="1588" on="1"/>
        <pt x="842" y="1588" on="1"/>
        <pt x="842" y="226" on="1"/>
      </contour>
      <contour>
        <pt x="284" y="368" on="1"/>
        <pt x="700" y="368" on="1"/>
        <pt x="700" y="1447" on="1"/>
        <pt x="284" y="1447" on="1"/>
      </contour>
    </TTGlyph>
    <TTGlyph name="parenright" xMin="142" yMin="226" xMax="842" yMax="1588">
      <contour>
        <pt x="142" y="226" on="1"/>
        <pt x="142" y="1588" on="1"/>
        <pt x="842" y="1588" on="1"/>
        <pt x="842" y="226" on="1"/>
      </contour>
      <contour>
        <pt x="284" y="368" on="1"/>
        <pt x="700" y="368" on="1"/>
        <pt x="700" y="1447" on="1"/>
        <pt x="284" y="1447" on="1"/>
      </contour>
    </TTGlyph>
    <TTGlyph name="pashtoefinal" xMin="142" yMin="226" xMax="842" yMax="1588">
      <contour>
        <pt x="142" y="226" on="1"/>
        <pt x="142" y="1588" on="1"/>
        <pt x="842" y="1588" on="1"/>
        <pt x="842" y="226" on="1"/>
      </contour>
      <contour>
        <pt x="284" y="368" on="1"/>
        <pt x="700" y="368" on="1"/>
        <pt x="700" y="1447" on="1"/>
        <pt x="284" y="1447" on="1"/>
      </contour>
    </TTGlyph>
    <TTGlyph name="pashtoeinitial" xMin="142" yMin="226" xMax="842" yMax="1588">
      <contour>
        <pt x="142" y="226" on="1"/>
        <pt x="142" y="1588" on="1"/>
        <pt x="842" y="1588" on="1"/>
        <pt x="842" y="226" on="1"/>
      </contour>
      <contour>
        <pt x="284" y="368" on="1"/>
        <pt x="700" y="368" on="1"/>
        <pt x="700" y="1447" on="1"/>
        <pt x="284" y="1447" on="1"/>
      </contour>
    </TTGlyph>
    <TTGlyph name="pashtoemedial" xMin="142" yMin="226" xMax="842" yMax="1588">
      <contour>
        <pt x="142" y="226" on="1"/>
        <pt x="142" y="1588" on="1"/>
        <pt x="842" y="1588" on="1"/>
        <pt x="842" y="226" on="1"/>
      </contour>
      <contour>
        <pt x="284" y="368" on="1"/>
        <pt x="700" y="368" on="1"/>
        <pt x="700" y="1447" on="1"/>
        <pt x="284" y="1447" on="1"/>
      </contour>
    </TTGlyph>
    <TTGlyph name="pehfinalarabic" xMin="142" yMin="226" xMax="842" yMax="1588">
      <contour>
        <pt x="142" y="226" on="1"/>
        <pt x="142" y="1588" on="1"/>
        <pt x="842" y="1588" on="1"/>
        <pt x="842" y="226" on="1"/>
      </contour>
      <contour>
        <pt x="284" y="368" on="1"/>
        <pt x="700" y="368" on="1"/>
        <pt x="700" y="1447" on="1"/>
        <pt x="284" y="1447" on="1"/>
      </contour>
    </TTGlyph>
    <TTGlyph name="pehinitialarabic" xMin="142" yMin="226" xMax="842" yMax="1588">
      <contour>
        <pt x="142" y="226" on="1"/>
        <pt x="142" y="1588" on="1"/>
        <pt x="842" y="1588" on="1"/>
        <pt x="842" y="226" on="1"/>
      </contour>
      <contour>
        <pt x="284" y="368" on="1"/>
        <pt x="700" y="368" on="1"/>
        <pt x="700" y="1447" on="1"/>
        <pt x="284" y="1447" on="1"/>
      </contour>
    </TTGlyph>
    <TTGlyph name="pehmedialarabic" xMin="142" yMin="226" xMax="842" yMax="1588">
      <contour>
        <pt x="142" y="226" on="1"/>
        <pt x="142" y="1588" on="1"/>
        <pt x="842" y="1588" on="1"/>
        <pt x="842" y="226" on="1"/>
      </contour>
      <contour>
        <pt x="284" y="368" on="1"/>
        <pt x="700" y="368" on="1"/>
        <pt x="700" y="1447" on="1"/>
        <pt x="284" y="1447" on="1"/>
      </contour>
    </TTGlyph>
    <TTGlyph name="percent" xMin="142" yMin="226" xMax="842" yMax="1588">
      <contour>
        <pt x="142" y="226" on="1"/>
        <pt x="142" y="1588" on="1"/>
        <pt x="842" y="1588" on="1"/>
        <pt x="842" y="226" on="1"/>
      </contour>
      <contour>
        <pt x="284" y="368" on="1"/>
        <pt x="700" y="368" on="1"/>
        <pt x="700" y="1447" on="1"/>
        <pt x="284" y="1447" on="1"/>
      </contour>
    </TTGlyph>
    <TTGlyph name="period" xMin="142" yMin="226" xMax="842" yMax="1588">
      <contour>
        <pt x="142" y="226" on="1"/>
        <pt x="142" y="1588" on="1"/>
        <pt x="842" y="1588" on="1"/>
        <pt x="842" y="226" on="1"/>
      </contour>
      <contour>
        <pt x="284" y="368" on="1"/>
        <pt x="700" y="368" on="1"/>
        <pt x="700" y="1447" on="1"/>
        <pt x="284" y="1447" on="1"/>
      </contour>
    </TTGlyph>
    <TTGlyph name="plus" xMin="142" yMin="226" xMax="842" yMax="1588">
      <contour>
        <pt x="142" y="226" on="1"/>
        <pt x="142" y="1588" on="1"/>
        <pt x="842" y="1588" on="1"/>
        <pt x="842" y="226" on="1"/>
      </contour>
      <contour>
        <pt x="284" y="368" on="1"/>
        <pt x="700" y="368" on="1"/>
        <pt x="700" y="1447" on="1"/>
        <pt x="284" y="1447" on="1"/>
      </contour>
    </TTGlyph>
    <TTGlyph name="quotedbl" xMin="142" yMin="226" xMax="842" yMax="1588">
      <contour>
        <pt x="142" y="226" on="1"/>
        <pt x="142" y="1588" on="1"/>
        <pt x="842" y="1588" on="1"/>
        <pt x="842" y="226" on="1"/>
      </contour>
      <contour>
        <pt x="284" y="368" on="1"/>
        <pt x="700" y="368" on="1"/>
        <pt x="700" y="1447" on="1"/>
        <pt x="284" y="1447" on="1"/>
      </contour>
    </TTGlyph>
    <TTGlyph name="quotesingle" xMin="142" yMin="226" xMax="842" yMax="1588">
      <contour>
        <pt x="142" y="226" on="1"/>
        <pt x="142" y="1588" on="1"/>
        <pt x="842" y="1588" on="1"/>
        <pt x="842" y="226" on="1"/>
      </contour>
      <contour>
        <pt x="284" y="368" on="1"/>
        <pt x="700" y="368" on="1"/>
        <pt x="700" y="1447" on="1"/>
        <pt x="284" y="1447" on="1"/>
      </contour>
    </TTGlyph>
    <TTGlyph name="rehdotbelowdotabovefinal" xMin="142" yMin="226" xMax="842" yMax="1588">
      <contour>
        <pt x="142" y="226" on="1"/>
        <pt x="142" y="1588" on="1"/>
        <pt x="842" y="1588" on="1"/>
        <pt x="842" y="226" on="1"/>
      </contour>
      <contour>
        <pt x="284" y="368" on="1"/>
        <pt x="700" y="368" on="1"/>
        <pt x="700" y="1447" on="1"/>
        <pt x="284" y="1447" on="1"/>
      </contour>
    </TTGlyph>
    <TTGlyph name="rehringfinal" xMin="142" yMin="226" xMax="842" yMax="1588">
      <contour>
        <pt x="142" y="226" on="1"/>
        <pt x="142" y="1588" on="1"/>
        <pt x="842" y="1588" on="1"/>
        <pt x="842" y="226" on="1"/>
      </contour>
      <contour>
        <pt x="284" y="368" on="1"/>
        <pt x="700" y="368" on="1"/>
        <pt x="700" y="1447" on="1"/>
        <pt x="284" y="1447" on="1"/>
      </contour>
    </TTGlyph>
    <TTGlyph name="rrehfinalarabic" xMin="142" yMin="226" xMax="842" yMax="1588">
      <contour>
        <pt x="142" y="226" on="1"/>
        <pt x="142" y="1588" on="1"/>
        <pt x="842" y="1588" on="1"/>
        <pt x="842" y="226" on="1"/>
      </contour>
      <contour>
        <pt x="284" y="368" on="1"/>
        <pt x="700" y="368" on="1"/>
        <pt x="700" y="1447" on="1"/>
        <pt x="284" y="1447" on="1"/>
      </contour>
    </TTGlyph>
    <TTGlyph name="seendotbelowdotabovefinal" xMin="142" yMin="226" xMax="842" yMax="1588">
      <contour>
        <pt x="142" y="226" on="1"/>
        <pt x="142" y="1588" on="1"/>
        <pt x="842" y="1588" on="1"/>
        <pt x="842" y="226" on="1"/>
      </contour>
      <contour>
        <pt x="284" y="368" on="1"/>
        <pt x="700" y="368" on="1"/>
        <pt x="700" y="1447" on="1"/>
        <pt x="284" y="1447" on="1"/>
      </contour>
    </TTGlyph>
    <TTGlyph name="seendotbelowdotaboveinitial" xMin="142" yMin="226" xMax="842" yMax="1588">
      <contour>
        <pt x="142" y="226" on="1"/>
        <pt x="142" y="1588" on="1"/>
        <pt x="842" y="1588" on="1"/>
        <pt x="842" y="226" on="1"/>
      </contour>
      <contour>
        <pt x="284" y="368" on="1"/>
        <pt x="700" y="368" on="1"/>
        <pt x="700" y="1447" on="1"/>
        <pt x="284" y="1447" on="1"/>
      </contour>
    </TTGlyph>
    <TTGlyph name="seendotbelowdotabovemedial" xMin="142" yMin="226" xMax="842" yMax="1588">
      <contour>
        <pt x="142" y="226" on="1"/>
        <pt x="142" y="1588" on="1"/>
        <pt x="842" y="1588" on="1"/>
        <pt x="842" y="226" on="1"/>
      </contour>
      <contour>
        <pt x="284" y="368" on="1"/>
        <pt x="700" y="368" on="1"/>
        <pt x="700" y="1447" on="1"/>
        <pt x="284" y="1447" on="1"/>
      </contour>
    </TTGlyph>
    <TTGlyph name="shaddadammaarabic" xMin="142" yMin="226" xMax="842" yMax="1588">
      <contour>
        <pt x="142" y="226" on="1"/>
        <pt x="142" y="1588" on="1"/>
        <pt x="842" y="1588" on="1"/>
        <pt x="842" y="226" on="1"/>
      </contour>
      <contour>
        <pt x="284" y="368" on="1"/>
        <pt x="700" y="368" on="1"/>
        <pt x="700" y="1447" on="1"/>
        <pt x="284" y="1447" on="1"/>
      </contour>
    </TTGlyph>
    <TTGlyph name="shaddadammatanarabic" xMin="142" yMin="226" xMax="842" yMax="1588">
      <contour>
        <pt x="142" y="226" on="1"/>
        <pt x="142" y="1588" on="1"/>
        <pt x="842" y="1588" on="1"/>
        <pt x="842" y="226" on="1"/>
      </contour>
      <contour>
        <pt x="284" y="368" on="1"/>
        <pt x="700" y="368" on="1"/>
        <pt x="700" y="1447" on="1"/>
        <pt x="284" y="1447" on="1"/>
      </contour>
    </TTGlyph>
    <TTGlyph name="shaddafathaarabic" xMin="142" yMin="226" xMax="842" yMax="1588">
      <contour>
        <pt x="142" y="226" on="1"/>
        <pt x="142" y="1588" on="1"/>
        <pt x="842" y="1588" on="1"/>
        <pt x="842" y="226" on="1"/>
      </contour>
      <contour>
        <pt x="284" y="368" on="1"/>
        <pt x="700" y="368" on="1"/>
        <pt x="700" y="1447" on="1"/>
        <pt x="284" y="1447" on="1"/>
      </contour>
    </TTGlyph>
    <TTGlyph name="shaddakasraarabic" xMin="142" yMin="226" xMax="842" yMax="1588">
      <contour>
        <pt x="142" y="226" on="1"/>
        <pt x="142" y="1588" on="1"/>
        <pt x="842" y="1588" on="1"/>
        <pt x="842" y="226" on="1"/>
      </contour>
      <contour>
        <pt x="284" y="368" on="1"/>
        <pt x="700" y="368" on="1"/>
        <pt x="700" y="1447" on="1"/>
        <pt x="284" y="1447" on="1"/>
      </contour>
    </TTGlyph>
    <TTGlyph name="shaddakasratanarabic" xMin="142" yMin="226" xMax="842" yMax="1588">
      <contour>
        <pt x="142" y="226" on="1"/>
        <pt x="142" y="1588" on="1"/>
        <pt x="842" y="1588" on="1"/>
        <pt x="842" y="226" on="1"/>
      </contour>
      <contour>
        <pt x="284" y="368" on="1"/>
        <pt x="700" y="368" on="1"/>
        <pt x="700" y="1447" on="1"/>
        <pt x="284" y="1447" on="1"/>
      </contour>
    </TTGlyph>
    <TTGlyph name="slash" xMin="142" yMin="226" xMax="842" yMax="1588">
      <contour>
        <pt x="142" y="226" on="1"/>
        <pt x="142" y="1588" on="1"/>
        <pt x="842" y="1588" on="1"/>
        <pt x="842" y="226" on="1"/>
      </contour>
      <contour>
        <pt x="284" y="368" on="1"/>
        <pt x="700" y="368" on="1"/>
        <pt x="700" y="1447" on="1"/>
        <pt x="284" y="1447" on="1"/>
      </contour>
    </TTGlyph>
    <TTGlyph name="space" xMin="142" yMin="226" xMax="842" yMax="1588">
      <contour>
        <pt x="142" y="226" on="1"/>
        <pt x="142" y="1588" on="1"/>
        <pt x="842" y="1588" on="1"/>
        <pt x="842" y="226" on="1"/>
      </contour>
      <contour>
        <pt x="284" y="368" on="1"/>
        <pt x="700" y="368" on="1"/>
        <pt x="700" y="1447" on="1"/>
        <pt x="284" y="1447" on="1"/>
      </contour>
    </TTGlyph>
    <TTGlyph name="tchehfinalarabic" xMin="142" yMin="226" xMax="842" yMax="1588">
      <contour>
        <pt x="142" y="226" on="1"/>
        <pt x="142" y="1588" on="1"/>
        <pt x="842" y="1588" on="1"/>
        <pt x="842" y="226" on="1"/>
      </contour>
      <contour>
        <pt x="284" y="368" on="1"/>
        <pt x="700" y="368" on="1"/>
        <pt x="700" y="1447" on="1"/>
        <pt x="284" y="1447" on="1"/>
      </contour>
    </TTGlyph>
    <TTGlyph name="tchehinitialarabic" xMin="142" yMin="226" xMax="842" yMax="1588">
      <contour>
        <pt x="142" y="226" on="1"/>
        <pt x="142" y="1588" on="1"/>
        <pt x="842" y="1588" on="1"/>
        <pt x="842" y="226" on="1"/>
      </contour>
      <contour>
        <pt x="284" y="368" on="1"/>
        <pt x="700" y="368" on="1"/>
        <pt x="700" y="1447" on="1"/>
        <pt x="284" y="1447" on="1"/>
      </contour>
    </TTGlyph>
    <TTGlyph name="tchehmedialarabic" xMin="142" yMin="226" xMax="842" yMax="1588">
      <contour>
        <pt x="142" y="226" on="1"/>
        <pt x="142" y="1588" on="1"/>
        <pt x="842" y="1588" on="1"/>
        <pt x="842" y="226" on="1"/>
      </contour>
      <contour>
        <pt x="284" y="368" on="1"/>
        <pt x="700" y="368" on="1"/>
        <pt x="700" y="1447" on="1"/>
        <pt x="284" y="1447" on="1"/>
      </contour>
    </TTGlyph>
    <TTGlyph name="tehhahisolatedarabic" xMin="142" yMin="226" xMax="842" yMax="1588">
      <contour>
        <pt x="142" y="226" on="1"/>
        <pt x="142" y="1588" on="1"/>
        <pt x="842" y="1588" on="1"/>
        <pt x="842" y="226" on="1"/>
      </contour>
      <contour>
        <pt x="284" y="368" on="1"/>
        <pt x="700" y="368" on="1"/>
        <pt x="700" y="1447" on="1"/>
        <pt x="284" y="1447" on="1"/>
      </contour>
    </TTGlyph>
    <TTGlyph name="tehjeemisolatedarabic" xMin="142" yMin="226" xMax="842" yMax="1588">
      <contour>
        <pt x="142" y="226" on="1"/>
        <pt x="142" y="1588" on="1"/>
        <pt x="842" y="1588" on="1"/>
        <pt x="842" y="226" on="1"/>
      </contour>
      <contour>
        <pt x="284" y="368" on="1"/>
        <pt x="700" y="368" on="1"/>
        <pt x="700" y="1447" on="1"/>
        <pt x="284" y="1447" on="1"/>
      </contour>
    </TTGlyph>
    <TTGlyph name="tehmeemisolatedarabic" xMin="142" yMin="226" xMax="842" yMax="1588">
      <contour>
        <pt x="142" y="226" on="1"/>
        <pt x="142" y="1588" on="1"/>
        <pt x="842" y="1588" on="1"/>
        <pt x="842" y="226" on="1"/>
      </contour>
      <contour>
        <pt x="284" y="368" on="1"/>
        <pt x="700" y="368" on="1"/>
        <pt x="700" y="1447" on="1"/>
        <pt x="284" y="1447" on="1"/>
      </contour>
    </TTGlyph>
    <TTGlyph name="tehnoonfinalarabic" xMin="142" yMin="226" xMax="842" yMax="1588">
      <contour>
        <pt x="142" y="226" on="1"/>
        <pt x="142" y="1588" on="1"/>
        <pt x="842" y="1588" on="1"/>
        <pt x="842" y="226" on="1"/>
      </contour>
      <contour>
        <pt x="284" y="368" on="1"/>
        <pt x="700" y="368" on="1"/>
        <pt x="700" y="1447" on="1"/>
        <pt x="284" y="1447" on="1"/>
      </contour>
    </TTGlyph>
    <TTGlyph name="tehringfinal" xMin="142" yMin="226" xMax="842" yMax="1588">
      <contour>
        <pt x="142" y="226" on="1"/>
        <pt x="142" y="1588" on="1"/>
        <pt x="842" y="1588" on="1"/>
        <pt x="842" y="226" on="1"/>
      </contour>
      <contour>
        <pt x="284" y="368" on="1"/>
        <pt x="700" y="368" on="1"/>
        <pt x="700" y="1447" on="1"/>
        <pt x="284" y="1447" on="1"/>
      </contour>
    </TTGlyph>
    <TTGlyph name="tehringinitial" xMin="142" yMin="226" xMax="842" yMax="1588">
      <contour>
        <pt x="142" y="226" on="1"/>
        <pt x="142" y="1588" on="1"/>
        <pt x="842" y="1588" on="1"/>
        <pt x="842" y="226" on="1"/>
      </contour>
      <contour>
        <pt x="284" y="368" on="1"/>
        <pt x="700" y="368" on="1"/>
        <pt x="700" y="1447" on="1"/>
        <pt x="284" y="1447" on="1"/>
      </contour>
    </TTGlyph>
    <TTGlyph name="tehringmedial" xMin="142" yMin="226" xMax="842" yMax="1588">
      <contour>
        <pt x="142" y="226" on="1"/>
        <pt x="142" y="1588" on="1"/>
        <pt x="842" y="1588" on="1"/>
        <pt x="842" y="226" on="1"/>
      </contour>
      <contour>
        <pt x="284" y="368" on="1"/>
        <pt x="700" y="368" on="1"/>
        <pt x="700" y="1447" on="1"/>
        <pt x="284" y="1447" on="1"/>
      </contour>
    </TTGlyph>
    <TTGlyph name="ttehfinalarabic" xMin="142" yMin="226" xMax="842" yMax="1588">
      <contour>
        <pt x="142" y="226" on="1"/>
        <pt x="142" y="1588" on="1"/>
        <pt x="842" y="1588" on="1"/>
        <pt x="842" y="226" on="1"/>
      </contour>
      <contour>
        <pt x="284" y="368" on="1"/>
        <pt x="700" y="368" on="1"/>
        <pt x="700" y="1447" on="1"/>
        <pt x="284" y="1447" on="1"/>
      </contour>
    </TTGlyph>
    <TTGlyph name="ttehinitialarabic" xMin="142" yMin="226" xMax="842" yMax="1588">
      <contour>
        <pt x="142" y="226" on="1"/>
        <pt x="142" y="1588" on="1"/>
        <pt x="842" y="1588" on="1"/>
        <pt x="842" y="226" on="1"/>
      </contour>
      <contour>
        <pt x="284" y="368" on="1"/>
        <pt x="700" y="368" on="1"/>
        <pt x="700" y="1447" on="1"/>
        <pt x="284" y="1447" on="1"/>
      </contour>
    </TTGlyph>
    <TTGlyph name="ttehmedialarabic" xMin="142" yMin="226" xMax="842" yMax="1588">
      <contour>
        <pt x="142" y="226" on="1"/>
        <pt x="142" y="1588" on="1"/>
        <pt x="842" y="1588" on="1"/>
        <pt x="842" y="226" on="1"/>
      </contour>
      <contour>
        <pt x="284" y="368" on="1"/>
        <pt x="700" y="368" on="1"/>
        <pt x="700" y="1447" on="1"/>
        <pt x="284" y="1447" on="1"/>
      </contour>
    </TTGlyph>
    <TTGlyph name="uni000D" xMin="142" yMin="226" xMax="842" yMax="1588">
      <contour>
        <pt x="142" y="226" on="1"/>
        <pt x="142" y="1588" on="1"/>
        <pt x="842" y="1588" on="1"/>
        <pt x="842" y="226" on="1"/>
      </contour>
      <contour>
        <pt x="284" y="368" on="1"/>
        <pt x="700" y="368" on="1"/>
        <pt x="700" y="1447" on="1"/>
        <pt x="284" y="1447" on="1"/>
      </contour>
    </TTGlyph>
    <TTGlyph name="uni00A0" xMin="142" yMin="226" xMax="842" yMax="1588">
      <contour>
        <pt x="142" y="226" on="1"/>
        <pt x="142" y="1588" on="1"/>
        <pt x="842" y="1588" on="1"/>
        <pt x="842" y="226" on="1"/>
      </contour>
      <contour>
        <pt x="284" y="368" on="1"/>
        <pt x="700" y="368" on="1"/>
        <pt x="700" y="1447" on="1"/>
        <pt x="284" y="1447" on="1"/>
      </contour>
    </TTGlyph>
    <TTGlyph name="uni00AD" xMin="142" yMin="226" xMax="842" yMax="1588">
      <contour>
        <pt x="142" y="226" on="1"/>
        <pt x="142" y="1588" on="1"/>
        <pt x="842" y="1588" on="1"/>
        <pt x="842" y="226" on="1"/>
      </contour>
      <contour>
        <pt x="284" y="368" on="1"/>
        <pt x="700" y="368" on="1"/>
        <pt x="700" y="1447" on="1"/>
        <pt x="284" y="1447" on="1"/>
      </contour>
    </TTGlyph>
    <TTGlyph name="uni0653" xMin="142" yMin="226" xMax="842" yMax="1588">
      <contour>
        <pt x="142" y="226" on="1"/>
        <pt x="142" y="1588" on="1"/>
        <pt x="842" y="1588" on="1"/>
        <pt x="842" y="226" on="1"/>
      </contour>
      <contour>
        <pt x="284" y="368" on="1"/>
        <pt x="700" y="368" on="1"/>
        <pt x="700" y="1447" on="1"/>
        <pt x="284" y="1447" on="1"/>
      </contour>
    </TTGlyph>
    <TTGlyph name="uni0654" xMin="142" yMin="226" xMax="842" yMax="1588">
      <contour>
        <pt x="142" y="226" on="1"/>
        <pt x="142" y="1588" on="1"/>
        <pt x="842" y="1588" on="1"/>
        <pt x="842" y="226" on="1"/>
      </contour>
      <contour>
        <pt x="284" y="368" on="1"/>
        <pt x="700" y="368" on="1"/>
        <pt x="700" y="1447" on="1"/>
        <pt x="284" y="1447" on="1"/>
      </contour>
    </TTGlyph>
    <TTGlyph name="uni0655" xMin="142" yMin="226" xMax="842" yMax="1588">
      <contour>
        <pt x="142" y="226" on="1"/>
        <pt x="142" y="1588" on="1"/>
        <pt x="842" y="1588" on="1"/>
        <pt x="842" y="226" on="1"/>
      </contour>
      <contour>
        <pt x="284" y="368" on="1"/>
        <pt x="700" y="368" on="1"/>
        <pt x="700" y="1447" on="1"/>
        <pt x="284" y="1447" on="1"/>
      </contour>
    </TTGlyph>
    <TTGlyph name="uni066B" xMin="142" yMin="226" xMax="842" yMax="1588">
      <contour>
        <pt x="142" y="226" on="1"/>
        <pt x="142" y="1588" on="1"/>
        <pt x="842" y="1588" on="1"/>
        <pt x="842" y="226" on="1"/>
      </contour>
      <contour>
        <pt x="284" y="368" on="1"/>
        <pt x="700" y="368" on="1"/>
        <pt x="700" y="1447" on="1"/>
        <pt x="284" y="1447" on="1"/>
      </contour>
    </TTGlyph>
    <TTGlyph name="uni066C" xMin="142" yMin="226" xMax="842" yMax="1588">
      <contour>
        <pt x="142" y="226" on="1"/>
        <pt x="142" y="1588" on="1"/>
        <pt x="842" y="1588" on="1"/>
        <pt x="842" y="226" on="1"/>
      </contour>
      <contour>
        <pt x="284" y="368" on="1"/>
        <pt x="700" y="368" on="1"/>
        <pt x="700" y="1447" on="1"/>
        <pt x="284" y="1447" on="1"/>
      </contour>
    </TTGlyph>
    <TTGlyph name="uni0671" xMin="142" yMin="226" xMax="842" yMax="1588">
      <contour>
        <pt x="142" y="226" on="1"/>
        <pt x="142" y="1588" on="1"/>
        <pt x="842" y="1588" on="1"/>
        <pt x="842" y="226" on="1"/>
      </contour>
      <contour>
        <pt x="284" y="368" on="1"/>
        <pt x="700" y="368" on="1"/>
        <pt x="700" y="1447" on="1"/>
        <pt x="284" y="1447" on="1"/>
      </contour>
    </TTGlyph>
    <TTGlyph name="uni067C" xMin="142" yMin="226" xMax="842" yMax="1588">
      <contour>
        <pt x="142" y="226" on="1"/>
        <pt x="142" y="1588" on="1"/>
        <pt x="842" y="1588" on="1"/>
        <pt x="842" y="226" on="1"/>
      </contour>
      <contour>
        <pt x="284" y="368" on="1"/>
        <pt x="700" y="368" on="1"/>
        <pt x="700" y="1447" on="1"/>
        <pt x="284" y="1447" on="1"/>
      </contour>
    </TTGlyph>
    <TTGlyph name="uni0681" xMin="142" yMin="226" xMax="842" yMax="1588">
      <contour>
        <pt x="142" y="226" on="1"/>
        <pt x="142" y="1588" on="1"/>
        <pt x="842" y="1588" on="1"/>
        <pt x="842" y="226" on="1"/>
      </contour>
      <contour>
        <pt x="284" y="368" on="1"/>
        <pt x="700" y="368" on="1"/>
        <pt x="700" y="1447" on="1"/>
        <pt x="284" y="1447" on="1"/>
      </contour>
    </TTGlyph>
    <TTGlyph name="uni0685" xMin="142" yMin="226" xMax="842" yMax="1588">
      <contour>
        <pt x="142" y="226" on="1"/>
        <pt x="142" y="1588" on="1"/>
        <pt x="842" y="1588" on="1"/>
        <pt x="842" y="226" on="1"/>
      </contour>
      <contour>
        <pt x="284" y="368" on="1"/>
        <pt x="700" y="368" on="1"/>
        <pt x="700" y="1447" on="1"/>
        <pt x="284" y="1447" on="1"/>
      </contour>
    </TTGlyph>
    <TTGlyph name="uni0689" xMin="142" yMin="226" xMax="842" yMax="1588">
      <contour>
        <pt x="142" y="226" on="1"/>
        <pt x="142" y="1588" on="1"/>
        <pt x="842" y="1588" on="1"/>
        <pt x="842" y="226" on="1"/>
      </contour>
      <contour>
        <pt x="284" y="368" on="1"/>
        <pt x="700" y="368" on="1"/>
        <pt x="700" y="1447" on="1"/>
        <pt x="284" y="1447" on="1"/>
      </contour>
    </TTGlyph>
    <TTGlyph name="uni0693" xMin="142" yMin="226" xMax="842" yMax="1588">
      <contour>
        <pt x="142" y="226" on="1"/>
        <pt x="142" y="1588" on="1"/>
        <pt x="842" y="1588" on="1"/>
        <pt x="842" y="226" on="1"/>
      </contour>
      <contour>
        <pt x="284" y="368" on="1"/>
        <pt x="700" y="368" on="1"/>
        <pt x="700" y="1447" on="1"/>
        <pt x="284" y="1447" on="1"/>
      </contour>
    </TTGlyph>
    <TTGlyph name="uni0696" xMin="142" yMin="226" xMax="842" yMax="1588">
      <contour>
        <pt x="142" y="226" on="1"/>
        <pt x="142" y="1588" on="1"/>
        <pt x="842" y="1588" on="1"/>
        <pt x="842" y="226" on="1"/>
      </contour>
      <contour>
        <pt x="284" y="368" on="1"/>
        <pt x="700" y="368" on="1"/>
        <pt x="700" y="1447" on="1"/>
        <pt x="284" y="1447" on="1"/>
      </contour>
    </TTGlyph>
    <TTGlyph name="uni069A" xMin="142" yMin="226" xMax="842" yMax="1588">
      <contour>
        <pt x="142" y="226" on="1"/>
        <pt x="142" y="1588" on="1"/>
        <pt x="842" y="1588" on="1"/>
        <pt x="842" y="226" on="1"/>
      </contour>
      <contour>
        <pt x="284" y="368" on="1"/>
        <pt x="700" y="368" on="1"/>
        <pt x="700" y="1447" on="1"/>
        <pt x="284" y="1447" on="1"/>
      </contour>
    </TTGlyph>
    <TTGlyph name="uni06A9" xMin="142" yMin="226" xMax="842" yMax="1588">
      <contour>
        <pt x="142" y="226" on="1"/>
        <pt x="142" y="1588" on="1"/>
        <pt x="842" y="1588" on="1"/>
        <pt x="842" y="226" on="1"/>
      </contour>
      <contour>
        <pt x="284" y="368" on="1"/>
        <pt x="700" y="368" on="1"/>
        <pt x="700" y="1447" on="1"/>
        <pt x="284" y="1447" on="1"/>
      </contour>
    </TTGlyph>
    <TTGlyph name="uni06AB" xMin="142" yMin="226" xMax="842" yMax="1588">
      <contour>
        <pt x="142" y="226" on="1"/>
        <pt x="142" y="1588" on="1"/>
        <pt x="842" y="1588" on="1"/>
        <pt x="842" y="226" on="1"/>
      </contour>
      <contour>
        <pt x="284" y="368" on="1"/>
        <pt x="700" y="368" on="1"/>
        <pt x="700" y="1447" on="1"/>
        <pt x="284" y="1447" on="1"/>
      </contour>
    </TTGlyph>
    <TTGlyph name="uni06B7" xMin="142" yMin="226" xMax="842" yMax="1588">
      <contour>
        <pt x="142" y="226" on="1"/>
        <pt x="142" y="1588" on="1"/>
        <pt x="842" y="1588" on="1"/>
        <pt x="842" y="226" on="1"/>
      </contour>
      <contour>
        <pt x="284" y="368" on="1"/>
        <pt x="700" y="368" on="1"/>
        <pt x="700" y="1447" on="1"/>
        <pt x="284" y="1447" on="1"/>
      </contour>
    </TTGlyph>
    <TTGlyph name="uni06BC" xMin="142" yMin="226" xMax="842" yMax="1588">
      <contour>
        <pt x="142" y="226" on="1"/>
        <pt x="142" y="1588" on="1"/>
        <pt x="842" y="1588" on="1"/>
        <pt x="842" y="226" on="1"/>
      </contour>
      <contour>
        <pt x="284" y="368" on="1"/>
        <pt x="700" y="368" on="1"/>
        <pt x="700" y="1447" on="1"/>
        <pt x="284" y="1447" on="1"/>
      </contour>
    </TTGlyph>
    <TTGlyph name="uni06BE" xMin="142" yMin="226" xMax="842" yMax="1588">
      <contour>
        <pt x="142" y="226" on="1"/>
        <pt x="142" y="1588" on="1"/>
        <pt x="842" y="1588" on="1"/>
        <pt x="842" y="226" on="1"/>
      </contour>
      <contour>
        <pt x="284" y="368" on="1"/>
        <pt x="700" y="368" on="1"/>
        <pt x="700" y="1447" on="1"/>
        <pt x="284" y="1447" on="1"/>
      </contour>
    </TTGlyph>
    <TTGlyph name="uni06C2" xMin="142" yMin="226" xMax="842" yMax="1588">
      <contour>
        <pt x="142" y="226" on="1"/>
        <pt x="142" y="1588" on="1"/>
        <pt x="842" y="1588" on="1"/>
        <pt x="842" y="226" on="1"/>
      </contour>
      <contour>
        <pt x="284" y="368" on="1"/>
        <pt x="700" y="368" on="1"/>
        <pt x="700" y="1447" on="1"/>
        <pt x="284" y="1447" on="1"/>
      </contour>
    </TTGlyph>
    <TTGlyph name="uni06C7" xMin="142" yMin="226" xMax="842" yMax="1588">
      <contour>
        <pt x="142" y="226" on="1"/>
        <pt x="142" y="1588" on="1"/>
        <pt x="842" y="1588" on="1"/>
        <pt x="842" y="226" on="1"/>
      </contour>
      <contour>
        <pt x="284" y="368" on="1"/>
        <pt x="700" y="368" on="1"/>
        <pt x="700" y="1447" on="1"/>
        <pt x="284" y="1447" on="1"/>
      </contour>
    </TTGlyph>
    <TTGlyph name="uni06C9" xMin="142" yMin="226" xMax="842" yMax="1588">
      <contour>
        <pt x="142" y="226" on="1"/>
        <pt x="142" y="1588" on="1"/>
        <pt x="842" y="1588" on="1"/>
        <pt x="842" y="226" on="1"/>
      </contour>
      <contour>
        <pt x="284" y="368" on="1"/>
        <pt x="700" y="368" on="1"/>
        <pt x="700" y="1447" on="1"/>
        <pt x="284" y="1447" on="1"/>
      </contour>
    </TTGlyph>
    <TTGlyph name="uni06CC" xMin="142" yMin="226" xMax="842" yMax="1588">
      <contour>
        <pt x="142" y="226" on="1"/>
        <pt x="142" y="1588" on="1"/>
        <pt x="842" y="1588" on="1"/>
        <pt x="842" y="226" on="1"/>
      </contour>
      <contour>
        <pt x="284" y="368" on="1"/>
        <pt x="700" y="368" on="1"/>
        <pt x="700" y="1447" on="1"/>
        <pt x="284" y="1447" on="1"/>
      </contour>
    </TTGlyph>
    <TTGlyph name="uni06CD" xMin="142" yMin="226" xMax="842" yMax="1588">
      <contour>
        <pt x="142" y="226" on="1"/>
        <pt x="142" y="1588" on="1"/>
        <pt x="842" y="1588" on="1"/>
        <pt x="842" y="226" on="1"/>
      </contour>
      <contour>
        <pt x="284" y="368" on="1"/>
        <pt x="700" y="368" on="1"/>
        <pt x="700" y="1447" on="1"/>
        <pt x="284" y="1447" on="1"/>
      </contour>
    </TTGlyph>
    <TTGlyph name="uni06D0" xMin="142" yMin="226" xMax="842" yMax="1588">
      <contour>
        <pt x="142" y="226" on="1"/>
        <pt x="142" y="1588" on="1"/>
        <pt x="842" y="1588" on="1"/>
        <pt x="842" y="226" on="1"/>
      </contour>
      <contour>
        <pt x="284" y="368" on="1"/>
        <pt x="700" y="368" on="1"/>
        <pt x="700" y="1447" on="1"/>
        <pt x="284" y="1447" on="1"/>
      </contour>
    </TTGlyph>
    <TTGlyph name="uni06D1" xMin="142" yMin="226" xMax="842" yMax="1588">
      <contour>
        <pt x="142" y="226" on="1"/>
        <pt x="142" y="1588" on="1"/>
        <pt x="842" y="1588" on="1"/>
        <pt x="842" y="226" on="1"/>
      </contour>
      <contour>
        <pt x="284" y="368" on="1"/>
        <pt x="700" y="368" on="1"/>
        <pt x="700" y="1447" on="1"/>
        <pt x="284" y="1447" on="1"/>
      </contour>
    </TTGlyph>
    <TTGlyph name="uni06D3" xMin="142" yMin="226" xMax="842" yMax="1588">
      <contour>
        <pt x="142" y="226" on="1"/>
        <pt x="142" y="1588" on="1"/>
        <pt x="842" y="1588" on="1"/>
        <pt x="842" y="226" on="1"/>
      </contour>
      <contour>
        <pt x="284" y="368" on="1"/>
        <pt x="700" y="368" on="1"/>
        <pt x="700" y="1447" on="1"/>
        <pt x="284" y="1447" on="1"/>
      </contour>
    </TTGlyph>
    <TTGlyph name="uni06D4" xMin="142" yMin="226" xMax="842" yMax="1588">
      <contour>
        <pt x="142" y="226" on="1"/>
        <pt x="142" y="1588" on="1"/>
        <pt x="842" y="1588" on="1"/>
        <pt x="842" y="226" on="1"/>
      </contour>
      <contour>
        <pt x="284" y="368" on="1"/>
        <pt x="700" y="368" on="1"/>
        <pt x="700" y="1447" on="1"/>
        <pt x="284" y="1447" on="1"/>
      </contour>
    </TTGlyph>
    <TTGlyph name="uni06F0" xMin="142" yMin="226" xMax="842" yMax="1588">
      <contour>
        <pt x="142" y="226" on="1"/>
        <pt x="142" y="1588" on="1"/>
        <pt x="842" y="1588" on="1"/>
        <pt x="842" y="226" on="1"/>
      </contour>
      <contour>
        <pt x="284" y="368" on="1"/>
        <pt x="700" y="368" on="1"/>
        <pt x="700" y="1447" on="1"/>
        <pt x="284" y="1447" on="1"/>
      </contour>
    </TTGlyph>
    <TTGlyph name="uni06F1" xMin="142" yMin="226" xMax="842" yMax="1588">
      <contour>
        <pt x="142" y="226" on="1"/>
        <pt x="142" y="1588" on="1"/>
        <pt x="842" y="1588" on="1"/>
        <pt x="842" y="226" on="1"/>
      </contour>
      <contour>
        <pt x="284" y="368" on="1"/>
        <pt x="700" y="368" on="1"/>
        <pt x="700" y="1447" on="1"/>
        <pt x="284" y="1447" on="1"/>
      </contour>
    </TTGlyph>
    <TTGlyph name="uni06F2" xMin="142" yMin="226" xMax="842" yMax="1588">
      <contour>
        <pt x="142" y="226" on="1"/>
        <pt x="142" y="1588" on="1"/>
        <pt x="842" y="1588" on="1"/>
        <pt x="842" y="226" on="1"/>
      </contour>
      <contour>
        <pt x="284" y="368" on="1"/>
        <pt x="700" y="368" on="1"/>
        <pt x="700" y="1447" on="1"/>
        <pt x="284" y="1447" on="1"/>
      </contour>
    </TTGlyph>
    <TTGlyph name="uni06F3" xMin="142" yMin="226" xMax="842" yMax="1588">
      <contour>
        <pt x="142" y="226" on="1"/>
        <pt x="142" y="1588" on="1"/>
        <pt x="842" y="1588" on="1"/>
        <pt x="842" y="226" on="1"/>
      </contour>
      <contour>
        <pt x="284" y="368" on="1"/>
        <pt x="700" y="368" on="1"/>
        <pt x="700" y="1447" on="1"/>
        <pt x="284" y="1447" on="1"/>
      </contour>
    </TTGlyph>
    <TTGlyph name="uni06F4" xMin="142" yMin="226" xMax="842" yMax="1588">
      <contour>
        <pt x="142" y="226" on="1"/>
        <pt x="142" y="1588" on="1"/>
        <pt x="842" y="1588" on="1"/>
        <pt x="842" y="226" on="1"/>
      </contour>
      <contour>
        <pt x="284" y="368" on="1"/>
        <pt x="700" y="368" on="1"/>
        <pt x="700" y="1447" on="1"/>
        <pt x="284" y="1447" on="1"/>
      </contour>
    </TTGlyph>
    <TTGlyph name="uni06F5" xMin="142" yMin="226" xMax="842" yMax="1588">
      <contour>
        <pt x="142" y="226" on="1"/>
        <pt x="142" y="1588" on="1"/>
        <pt x="842" y="1588" on="1"/>
        <pt x="842" y="226" on="1"/>
      </contour>
      <contour>
        <pt x="284" y="368" on="1"/>
        <pt x="700" y="368" on="1"/>
        <pt x="700" y="1447" on="1"/>
        <pt x="284" y="1447" on="1"/>
      </contour>
    </TTGlyph>
    <TTGlyph name="uni06F6" xMin="142" yMin="226" xMax="842" yMax="1588">
      <contour>
        <pt x="142" y="226" on="1"/>
        <pt x="142" y="1588" on="1"/>
        <pt x="842" y="1588" on="1"/>
        <pt x="842" y="226" on="1"/>
      </contour>
      <contour>
        <pt x="284" y="368" on="1"/>
        <pt x="700" y="368" on="1"/>
        <pt x="700" y="1447" on="1"/>
        <pt x="284" y="1447" on="1"/>
      </contour>
    </TTGlyph>
    <TTGlyph name="uni06F7" xMin="142" yMin="226" xMax="842" yMax="1588">
      <contour>
        <pt x="142" y="226" on="1"/>
        <pt x="142" y="1588" on="1"/>
        <pt x="842" y="1588" on="1"/>
        <pt x="842" y="226" on="1"/>
      </contour>
      <contour>
        <pt x="284" y="368" on="1"/>
        <pt x="700" y="368" on="1"/>
        <pt x="700" y="1447" on="1"/>
        <pt x="284" y="1447" on="1"/>
      </contour>
    </TTGlyph>
    <TTGlyph name="uni06F8" xMin="142" yMin="226" xMax="842" yMax="1588">
      <contour>
        <pt x="142" y="226" on="1"/>
        <pt x="142" y="1588" on="1"/>
        <pt x="842" y="1588" on="1"/>
        <pt x="842" y="226" on="1"/>
      </contour>
      <contour>
        <pt x="284" y="368" on="1"/>
        <pt x="700" y="368" on="1"/>
        <pt x="700" y="1447" on="1"/>
        <pt x="284" y="1447" on="1"/>
      </contour>
    </TTGlyph>
    <TTGlyph name="uni06F9" xMin="142" yMin="226" xMax="842" yMax="1588">
      <contour>
        <pt x="142" y="226" on="1"/>
        <pt x="142" y="1588" on="1"/>
        <pt x="842" y="1588" on="1"/>
        <pt x="842" y="226" on="1"/>
      </contour>
      <contour>
        <pt x="284" y="368" on="1"/>
        <pt x="700" y="368" on="1"/>
        <pt x="700" y="1447" on="1"/>
        <pt x="284" y="1447" on="1"/>
      </contour>
    </TTGlyph>
    <TTGlyph name="uni2010" xMin="321" yMin="-371" xMax="4898" yMax="1884">
      <contour>
        <pt x="4846" y="1573" on="1"/>
        <pt x="4846" y="1534" on="0"/>
        <pt x="4812" y="1483" on="1"/>
        <pt x="4690" y="1544" on="0"/>
        <pt x="4678" y="1544" on="1"/>
        <pt x="4664" y="1544" on="0"/>
        <pt x="4614" y="1500" on="1"/>
        <pt x="4536" y="1431" on="0"/>
        <pt x="4528" y="1425" on="1"/>
        <pt x="4494" y="1398" on="0"/>
        <pt x="4430" y="1370" on="1"/>
        <pt x="4358" y="1337" on="0"/>
        <pt x="4320" y="1335" on="1"/>
        <pt x="4312" y="1335" on="0"/>
        <pt x="4250" y="1309" on="0"/>
        <pt x="4236" y="1309" on="1"/>
        <pt x="4183" y="1309" on="1"/>
        <pt x="4183" y="1341" on="0"/>
        <pt x="4205" y="1355" on="1"/>
        <pt x="4347" y="1402" on="0"/>
        <pt x="4581" y="1581" on="1"/>
        <pt x="4575" y="1603" on="0"/>
        <pt x="4500" y="1657" on="1"/>
        <pt x="4496" y="1667" on="0"/>
        <pt x="4496" y="1679" on="1"/>
        <pt x="4496" y="1739" on="0"/>
        <pt x="4552" y="1810" on="1"/>
        <pt x="4611" y="1884" on="0"/>
        <pt x="4670" y="1884" on="1"/>
        <pt x="4681" y="1884" on="0"/>
        <pt x="4691" y="1881" on="1"/>
        <pt x="4734" y="1842" on="0"/>
        <pt x="4734" y="1775" on="1"/>
        <pt x="4734" y="1756" on="0"/>
        <pt x="4726" y="1681" on="0"/>
        <pt x="4726" y="1664" on="1"/>
        <pt x="4767" y="1634" on="0"/>
      </contour>
      <contour>
        <pt x="4898" y="1217" on="1"/>
        <pt x="4898" y="1174" on="0"/>
        <pt x="4854" y="1158" on="1"/>
        <pt x="4786" y="1144" on="0"/>
        <pt x="4659" y="1110" on="1"/>
        <pt x="4621" y="1087" on="0"/>
        <pt x="4542" y="1043" on="1"/>
        <pt x="4534" y="1090" on="0"/>
        <pt x="4556" y="1131" on="1"/>
        <pt x="4559" y="1141" on="0"/>
        <pt x="4540" y="1169" on="1"/>
        <pt x="4519" y="1198" on="0"/>
        <pt x="4519" y="1211" on="1"/>
        <pt x="4519" y="1249" on="0"/>
        <pt x="4604" y="1321" on="1"/>
        <pt x="4687" y="1390" on="0"/>
        <pt x="4723" y="1390" on="1"/>
        <pt x="4750" y="1390" on="0"/>
        <pt x="4795" y="1348" on="1"/>
        <pt x="4795" y="1289" on="1"/>
        <pt x="4758" y="1257" on="0"/>
        <pt x="4739" y="1257" on="1"/>
        <pt x="4751" y="1257" on="0"/>
        <pt x="4668" y="1278" on="1"/>
        <pt x="4652" y="1262" on="1"/>
        <pt x="4690" y="1226" on="0"/>
        <pt x="4723" y="1226" on="1"/>
        <pt x="4723" y="1226" on="0"/>
        <pt x="4884" y="1247" on="1"/>
        <pt x="4898" y="1233" on="0"/>
      </contour>
      <contour>
        <pt x="4867" y="188" on="1"/>
        <pt x="4867" y="111" on="0"/>
        <pt x="4834" y="29" on="1"/>
        <pt x="4797" y="29" on="1"/>
        <pt x="4693" y="950" on="1"/>
        <pt x="4693" y="964" on="0"/>
        <pt x="4710" y="1022" on="1"/>
        <pt x="4732" y="1090" on="0"/>
        <pt x="4736" y="1112" on="1"/>
        <pt x="4773" y="1112" on="1"/>
      </contour>
      <contour>
        <pt x="2808" y="1258" on="1"/>
        <pt x="2805" y="1258" on="0"/>
        <pt x="2788" y="1247" on="0"/>
        <pt x="2774" y="1247" on="1"/>
        <pt x="2764" y="1247" on="0"/>
        <pt x="2659" y="1308" on="0"/>
        <pt x="2645" y="1308" on="1"/>
        <pt x="2636" y="1308" on="0"/>
        <pt x="2565" y="1253" on="1"/>
        <pt x="2468" y="1176" on="0"/>
        <pt x="2418" y="1142" on="1"/>
        <pt x="2303" y="1063" on="0"/>
        <pt x="2224" y="1063" on="1"/>
        <pt x="2209" y="1063" on="0"/>
        <pt x="2195" y="1066" on="1"/>
        <pt x="2216" y="1103" on="0"/>
        <pt x="2352" y="1189" on="1"/>
        <pt x="2496" y="1279" on="0"/>
        <pt x="2543" y="1345" on="1"/>
        <pt x="2534" y="1372" on="0"/>
        <pt x="2494" y="1395" on="1"/>
        <pt x="2461" y="1413" on="0"/>
        <pt x="2461" y="1462" on="1"/>
        <pt x="2461" y="1505" on="0"/>
        <pt x="2515" y="1572" on="1"/>
        <pt x="2574" y="1647" on="0"/>
        <pt x="2630" y="1647" on="1"/>
        <pt x="2688" y="1647" on="0"/>
        <pt x="2699" y="1548" on="1"/>
        <pt x="2698" y="1493" on="0"/>
        <pt x="2698" y="1439" on="1"/>
        <pt x="2738" y="1402" on="0"/>
        <pt x="2808" y="1336" on="1"/>
      </contour>
      <contour>
        <pt x="1990" y="1416" on="1"/>
        <pt x="1990" y="1384" on="0"/>
        <pt x="1955" y="1349" on="1"/>
        <pt x="1944" y="1353" on="0"/>
        <pt x="1899" y="1379" on="1"/>
        <pt x="1861" y="1401" on="0"/>
        <pt x="1846" y="1401" on="1"/>
        <pt x="1834" y="1401" on="0"/>
        <pt x="1782" y="1347" on="1"/>
        <pt x="1715" y="1279" on="0"/>
        <pt x="1691" y="1261" on="1"/>
        <pt x="1652" y="1231" on="0"/>
        <pt x="1577" y="1199" on="1"/>
        <pt x="1465" y="1152" on="0"/>
        <pt x="1451" y="1144" on="1"/>
        <pt x="1427" y="1171" on="1"/>
        <pt x="1447" y="1192" on="0"/>
        <pt x="1583" y="1290" on="1"/>
        <pt x="1708" y="1379" on="0"/>
        <pt x="1745" y="1436" on="1"/>
        <pt x="1741" y="1440" on="0"/>
        <pt x="1692" y="1483" on="1"/>
        <pt x="1663" y="1510" on="0"/>
        <pt x="1663" y="1524" on="1"/>
        <pt x="1663" y="1570" on="0"/>
        <pt x="1706" y="1644" on="1"/>
        <pt x="1757" y="1729" on="0"/>
        <pt x="1811" y="1729" on="1"/>
        <pt x="1863" y="1729" on="0"/>
        <pt x="1873" y="1694" on="1"/>
        <pt x="1880" y="1672" on="0"/>
        <pt x="1882" y="1602" on="1"/>
        <pt x="1884" y="1541" on="0"/>
        <pt x="1900" y="1511" on="1"/>
        <pt x="1905" y="1502" on="0"/>
        <pt x="1951" y="1474" on="1"/>
        <pt x="1990" y="1452" on="0"/>
      </contour>
      <contour>
        <pt x="4570" y="331" on="1"/>
        <pt x="4570" y="281" on="0"/>
        <pt x="4487" y="136" on="0"/>
        <pt x="4445" y="114" on="1"/>
        <pt x="4413" y="97" on="0"/>
        <pt x="4072" y="52" on="1"/>
        <pt x="3741" y="8" on="0"/>
        <pt x="3674" y="8" on="1"/>
        <pt x="3663" y="8" on="0"/>
        <pt x="3350" y="-12" on="0"/>
        <pt x="3336" y="-12" on="1"/>
        <pt x="2492" y="-73" on="1"/>
        <pt x="2471" y="-73" on="0"/>
        <pt x="2444" y="-56" on="1"/>
        <pt x="2414" y="-53" on="0"/>
        <pt x="2226" y="-53" on="1"/>
        <pt x="2213" y="-53" on="0"/>
        <pt x="2176" y="-37" on="0"/>
        <pt x="2168" y="-36" on="1"/>
        <pt x="2098" y="-27" on="0"/>
        <pt x="2034" y="1" on="1"/>
        <pt x="1977" y="26" on="0"/>
        <pt x="1948" y="93" on="1"/>
        <pt x="1936" y="117" on="0"/>
        <pt x="1915" y="206" on="1"/>
        <pt x="1911" y="211" on="0"/>
        <pt x="1903" y="223" on="1"/>
        <pt x="1873" y="188" on="0"/>
        <pt x="1803" y="134" on="1"/>
        <pt x="1656" y="70" on="0"/>
        <pt x="1575" y="70" on="1"/>
        <pt x="1563" y="70" on="0"/>
        <pt x="1552" y="79" on="0"/>
        <pt x="1540" y="79" on="1"/>
        <pt x="1519" y="79" on="0"/>
        <pt x="1495" y="62" on="1"/>
        <pt x="1447" y="60" on="0"/>
        <pt x="1400" y="57" on="1"/>
        <pt x="1337" y="51" on="0"/>
        <pt x="1293" y="22" on="1"/>
        <pt x="1317" y="-21" on="0"/>
        <pt x="1340" y="-63" on="1"/>
        <pt x="1356" y="-99" on="0"/>
        <pt x="1356" y="-166" on="1"/>
        <pt x="1356" y="-371" on="0"/>
        <pt x="1207" y="-371" on="1"/>
        <pt x="1066" y="-371" on="0"/>
        <pt x="989" y="-172" on="1"/>
        <pt x="983" y="-120" on="0"/>
        <pt x="953" y="-41" on="1"/>
        <pt x="900" y="18" on="0"/>
        <pt x="874" y="18" on="1"/>
        <pt x="862" y="18" on="0"/>
        <pt x="698" y="-2" on="0"/>
        <pt x="685" y="-2" on="1"/>
        <pt x="617" y="-2" on="0"/>
        <pt x="540" y="43" on="1"/>
        <pt x="447" y="97" on="0"/>
        <pt x="437" y="176" on="1"/>
        <pt x="382" y="566" on="0"/>
        <pt x="359" y="924" on="1"/>
        <pt x="357" y="945" on="0"/>
        <pt x="321" y="1068" on="0"/>
        <pt x="321" y="1083" on="1"/>
        <pt x="321" y="1153" on="0"/>
        <pt x="389" y="1206" on="1"/>
        <pt x="437" y="1075" on="0"/>
        <pt x="458" y="852" on="1"/>
        <pt x="475" y="679" on="0"/>
        <pt x="491" y="505" on="1"/>
        <pt x="495" y="437" on="0"/>
        <pt x="499" y="369" on="1"/>
        <pt x="506" y="284" on="0"/>
        <pt x="548" y="231" on="1"/>
        <pt x="589" y="181" on="0"/>
        <pt x="645" y="164" on="1"/>
        <pt x="653" y="161" on="0"/>
        <pt x="741" y="161" on="1"/>
        <pt x="751" y="161" on="0"/>
        <pt x="929" y="174" on="1"/>
        <pt x="944" y="185" on="0"/>
        <pt x="953" y="200" on="1"/>
        <pt x="978" y="285" on="0"/>
        <pt x="1045" y="419" on="1"/>
        <pt x="1148" y="623" on="0"/>
        <pt x="1222" y="623" on="1"/>
        <pt x="1278" y="623" on="0"/>
        <pt x="1304" y="433" on="1"/>
        <pt x="1304" y="257" on="0"/>
        <pt x="1202" y="187" on="1"/>
        <pt x="1216" y="172" on="0"/>
        <pt x="1248" y="172" on="1"/>
        <pt x="1352" y="172" on="0"/>
        <pt x="1828" y="253" on="0"/>
        <pt x="1859" y="276" on="1"/>
        <pt x="1898" y="303" on="0"/>
        <pt x="1898" y="335" on="1"/>
        <pt x="1785" y="1108" on="1"/>
        <pt x="1785" y="1140" on="0"/>
        <pt x="1829" y="1205" on="1"/>
        <pt x="1866" y="1205" on="1"/>
        <pt x="1927" y="836" on="0"/>
        <pt x="1973" y="392" on="1"/>
        <pt x="1975" y="368" on="0"/>
        <pt x="2013" y="240" on="1"/>
        <pt x="2029" y="187" on="0"/>
        <pt x="2069" y="164" on="1"/>
        <pt x="2172" y="106" on="0"/>
        <pt x="2430" y="79" on="1"/>
        <pt x="2441" y="79" on="0"/>
        <pt x="2548" y="70" on="0"/>
        <pt x="2563" y="70" on="1"/>
        <pt x="2575" y="70" on="0"/>
        <pt x="2619" y="90" on="0"/>
        <pt x="2630" y="90" on="1"/>
        <pt x="3639" y="152" on="1"/>
        <pt x="3667" y="152" on="0"/>
        <pt x="3896" y="170" on="1"/>
        <pt x="4151" y="191" on="0"/>
        <pt x="4247" y="205" on="1"/>
        <pt x="4249" y="206" on="0"/>
        <pt x="4322" y="222" on="1"/>
        <pt x="4383" y="236" on="0"/>
        <pt x="4410" y="236" on="1"/>
        <pt x="4424" y="246" on="0"/>
        <pt x="4437" y="260" on="1"/>
        <pt x="4425" y="283" on="0"/>
        <pt x="4414" y="306" on="1"/>
        <pt x="4400" y="333" on="0"/>
        <pt x="4378" y="342" on="1"/>
        <pt x="4288" y="387" on="0"/>
        <pt x="4212" y="387" on="1"/>
        <pt x="3214" y="295" on="1"/>
        <pt x="3060" y="297" on="0"/>
        <pt x="2956" y="291" on="1"/>
        <pt x="2844" y="284" on="0"/>
        <pt x="2865" y="284" on="1"/>
        <pt x="2753" y="284" on="0"/>
        <pt x="2576" y="310" on="1"/>
        <pt x="2362" y="340" on="0"/>
        <pt x="2339" y="378" on="1"/>
        <pt x="2336" y="388" on="0"/>
        <pt x="2336" y="399" on="1"/>
        <pt x="2336" y="458" on="0"/>
        <pt x="2417" y="559" on="1"/>
        <pt x="2454" y="606" on="0"/>
        <pt x="2491" y="654" on="1"/>
        <pt x="2547" y="720" on="0"/>
        <pt x="2597" y="751" on="1"/>
        <pt x="2641" y="783" on="0"/>
        <pt x="2740" y="843" on="1"/>
        <pt x="2840" y="895" on="0"/>
        <pt x="3010" y="965" on="1"/>
        <pt x="3173" y="1032" on="0"/>
        <pt x="3195" y="1031" on="1"/>
        <pt x="3237" y="1031" on="1"/>
        <pt x="3250" y="1018" on="0"/>
        <pt x="3250" y="1001" on="1"/>
        <pt x="3250" y="920" on="0"/>
        <pt x="3113" y="885" on="1"/>
        <pt x="3031" y="864" on="0"/>
        <pt x="2788" y="749" on="1"/>
        <pt x="2471" y="598" on="0"/>
        <pt x="2471" y="515" on="1"/>
        <pt x="2471" y="480" on="0"/>
        <pt x="2571" y="456" on="1"/>
        <pt x="2648" y="438" on="0"/>
        <pt x="2693" y="438" on="1"/>
        <pt x="3387" y="438" on="1"/>
        <pt x="4258" y="520" on="1"/>
        <pt x="4357" y="520" on="0"/>
        <pt x="4451" y="477" on="1"/>
        <pt x="4570" y="423" on="0"/>
      </contour>
      <contour>
        <pt x="1263" y="1488" on="1"/>
        <pt x="1263" y="1438" on="0"/>
        <pt x="1129" y="1352" on="1"/>
        <pt x="1052" y="1308" on="0"/>
        <pt x="974" y="1264" on="1"/>
        <pt x="900" y="1215" on="0"/>
        <pt x="755" y="1135" on="1"/>
        <pt x="741" y="1149" on="0"/>
        <pt x="741" y="1165" on="1"/>
        <pt x="741" y="1221" on="0"/>
        <pt x="967" y="1362" on="1"/>
        <pt x="1164" y="1484" on="0"/>
        <pt x="1250" y="1513" on="1"/>
        <pt x="1263" y="1511" on="0"/>
      </contour>
      <contour>
        <pt x="4661" y="1709" on="1"/>
        <pt x="4661" y="1715" on="0"/>
        <pt x="4650" y="1752" on="0"/>
        <pt x="4650" y="1757" on="1"/>
        <pt x="4612" y="1757" on="1"/>
        <pt x="4628" y="1709" on="0"/>
      </contour>
      <contour>
        <pt x="2624" y="1474" on="1"/>
        <pt x="2624" y="1511" on="1"/>
        <pt x="2576" y="1523" on="1"/>
        <pt x="2565" y="1484" on="1"/>
        <pt x="2567" y="1484" on="0"/>
        <pt x="2606" y="1474" on="0"/>
      </contour>
      <contour>
        <pt x="1814" y="1556" on="1"/>
        <pt x="1814" y="1593" on="1"/>
        <pt x="1768" y="1605" on="1"/>
        <pt x="1758" y="1586" on="0"/>
        <pt x="1766" y="1569" on="1"/>
        <pt x="1820" y="1556" on="0"/>
      </contour>
      <contour>
        <pt x="1222" y="377" on="1"/>
        <pt x="1222" y="401" on="0"/>
        <pt x="1186" y="443" on="1"/>
        <pt x="1180" y="446" on="0"/>
        <pt x="1164" y="448" on="1"/>
        <pt x="1154" y="428" on="0"/>
        <pt x="1094" y="351" on="1"/>
        <pt x="1044" y="289" on="0"/>
        <pt x="1044" y="252" on="1"/>
        <pt x="1044" y="237" on="0"/>
        <pt x="1052" y="224" on="1"/>
        <pt x="1105" y="243" on="0"/>
        <pt x="1158" y="286" on="1"/>
        <pt x="1222" y="337" on="0"/>
      </contour>
      <contour>
        <pt x="1274" y="-166" on="1"/>
        <pt x="1274" y="-157" on="0"/>
        <pt x="1258" y="-116" on="1"/>
        <pt x="1129" y="-32" on="0"/>
        <pt x="1093" y="-32" on="1"/>
        <pt x="1062" y="-32" on="1"/>
        <pt x="1060" y="-34" on="0"/>
        <pt x="1059" y="-35" on="1"/>
        <pt x="1048" y="-44" on="0"/>
        <pt x="1048" y="-58" on="1"/>
        <pt x="1048" y="-96" on="0"/>
        <pt x="1102" y="-149" on="1"/>
        <pt x="1160" y="-207" on="0"/>
        <pt x="1217" y="-207" on="1"/>
        <pt x="1274" y="-207" on="0"/>
      </contour>
    </TTGlyph>
    <TTGlyph name="uni2011" xMin="321" yMin="-371" xMax="4898" yMax="1884">
      <contour>
        <pt x="4846" y="1573" on="1"/>
        <pt x="4846" y="1534" on="0"/>
        <pt x="4812" y="1483" on="1"/>
        <pt x="4690" y="1544" on="0"/>
        <pt x="4678" y="1544" on="1"/>
        <pt x="4664" y="1544" on="0"/>
        <pt x="4614" y="1500" on="1"/>
        <pt x="4536" y="1431" on="0"/>
        <pt x="4528" y="1425" on="1"/>
        <pt x="4494" y="1398" on="0"/>
        <pt x="4430" y="1370" on="1"/>
        <pt x="4358" y="1337" on="0"/>
        <pt x="4320" y="1335" on="1"/>
        <pt x="4312" y="1335" on="0"/>
        <pt x="4250" y="1309" on="0"/>
        <pt x="4236" y="1309" on="1"/>
        <pt x="4183" y="1309" on="1"/>
        <pt x="4183" y="1341" on="0"/>
        <pt x="4205" y="1355" on="1"/>
        <pt x="4347" y="1402" on="0"/>
        <pt x="4581" y="1581" on="1"/>
        <pt x="4575" y="1603" on="0"/>
        <pt x="4500" y="1657" on="1"/>
        <pt x="4496" y="1667" on="0"/>
        <pt x="4496" y="1679" on="1"/>
        <pt x="4496" y="1739" on="0"/>
        <pt x="4552" y="1810" on="1"/>
        <pt x="4611" y="1884" on="0"/>
        <pt x="4670" y="1884" on="1"/>
        <pt x="4681" y="1884" on="0"/>
        <pt x="4691" y="1881" on="1"/>
        <pt x="4734" y="1842" on="0"/>
        <pt x="4734" y="1775" on="1"/>
        <pt x="4734" y="1756" on="0"/>
        <pt x="4726" y="1681" on="0"/>
        <pt x="4726" y="1664" on="1"/>
        <pt x="4767" y="1634" on="0"/>
      </contour>
      <contour>
        <pt x="4898" y="1217" on="1"/>
        <pt x="4898" y="1174" on="0"/>
        <pt x="4854" y="1158" on="1"/>
        <pt x="4786" y="1144" on="0"/>
        <pt x="4659" y="1110" on="1"/>
        <pt x="4621" y="1087" on="0"/>
        <pt x="4542" y="1043" on="1"/>
        <pt x="4534" y="1090" on="0"/>
        <pt x="4556" y="1131" on="1"/>
        <pt x="4559" y="1141" on="0"/>
        <pt x="4540" y="1169" on="1"/>
        <pt x="4519" y="1198" on="0"/>
        <pt x="4519" y="1211" on="1"/>
        <pt x="4519" y="1249" on="0"/>
        <pt x="4604" y="1321" on="1"/>
        <pt x="4687" y="1390" on="0"/>
        <pt x="4723" y="1390" on="1"/>
        <pt x="4750" y="1390" on="0"/>
        <pt x="4795" y="1348" on="1"/>
        <pt x="4795" y="1289" on="1"/>
        <pt x="4758" y="1257" on="0"/>
        <pt x="4739" y="1257" on="1"/>
        <pt x="4751" y="1257" on="0"/>
        <pt x="4668" y="1278" on="1"/>
        <pt x="4652" y="1262" on="1"/>
        <pt x="4690" y="1226" on="0"/>
        <pt x="4723" y="1226" on="1"/>
        <pt x="4723" y="1226" on="0"/>
        <pt x="4884" y="1247" on="1"/>
        <pt x="4898" y="1233" on="0"/>
      </contour>
      <contour>
        <pt x="4867" y="188" on="1"/>
        <pt x="4867" y="111" on="0"/>
        <pt x="4834" y="29" on="1"/>
        <pt x="4797" y="29" on="1"/>
        <pt x="4693" y="950" on="1"/>
        <pt x="4693" y="964" on="0"/>
        <pt x="4710" y="1022" on="1"/>
        <pt x="4732" y="1090" on="0"/>
        <pt x="4736" y="1112" on="1"/>
        <pt x="4773" y="1112" on="1"/>
      </contour>
      <contour>
        <pt x="2808" y="1258" on="1"/>
        <pt x="2805" y="1258" on="0"/>
        <pt x="2788" y="1247" on="0"/>
        <pt x="2774" y="1247" on="1"/>
        <pt x="2764" y="1247" on="0"/>
        <pt x="2659" y="1308" on="0"/>
        <pt x="2645" y="1308" on="1"/>
        <pt x="2636" y="1308" on="0"/>
        <pt x="2565" y="1253" on="1"/>
        <pt x="2468" y="1176" on="0"/>
        <pt x="2418" y="1142" on="1"/>
        <pt x="2303" y="1063" on="0"/>
        <pt x="2224" y="1063" on="1"/>
        <pt x="2209" y="1063" on="0"/>
        <pt x="2195" y="1066" on="1"/>
        <pt x="2216" y="1103" on="0"/>
        <pt x="2352" y="1189" on="1"/>
        <pt x="2496" y="1279" on="0"/>
        <pt x="2543" y="1345" on="1"/>
        <pt x="2534" y="1372" on="0"/>
        <pt x="2494" y="1395" on="1"/>
        <pt x="2461" y="1413" on="0"/>
        <pt x="2461" y="1462" on="1"/>
        <pt x="2461" y="1505" on="0"/>
        <pt x="2515" y="1572" on="1"/>
        <pt x="2574" y="1647" on="0"/>
        <pt x="2630" y="1647" on="1"/>
        <pt x="2688" y="1647" on="0"/>
        <pt x="2699" y="1548" on="1"/>
        <pt x="2698" y="1493" on="0"/>
        <pt x="2698" y="1439" on="1"/>
        <pt x="2738" y="1402" on="0"/>
        <pt x="2808" y="1336" on="1"/>
      </contour>
      <contour>
        <pt x="1990" y="1416" on="1"/>
        <pt x="1990" y="1384" on="0"/>
        <pt x="1955" y="1349" on="1"/>
        <pt x="1944" y="1353" on="0"/>
        <pt x="1899" y="1379" on="1"/>
        <pt x="1861" y="1401" on="0"/>
        <pt x="1846" y="1401" on="1"/>
        <pt x="1834" y="1401" on="0"/>
        <pt x="1782" y="1347" on="1"/>
        <pt x="1715" y="1279" on="0"/>
        <pt x="1691" y="1261" on="1"/>
        <pt x="1652" y="1231" on="0"/>
        <pt x="1577" y="1199" on="1"/>
        <pt x="1465" y="1152" on="0"/>
        <pt x="1451" y="1144" on="1"/>
        <pt x="1427" y="1171" on="1"/>
        <pt x="1447" y="1192" on="0"/>
        <pt x="1583" y="1290" on="1"/>
        <pt x="1708" y="1379" on="0"/>
        <pt x="1745" y="1436" on="1"/>
        <pt x="1741" y="1440" on="0"/>
        <pt x="1692" y="1483" on="1"/>
        <pt x="1663" y="1510" on="0"/>
        <pt x="1663" y="1524" on="1"/>
        <pt x="1663" y="1570" on="0"/>
        <pt x="1706" y="1644" on="1"/>
        <pt x="1757" y="1729" on="0"/>
        <pt x="1811" y="1729" on="1"/>
        <pt x="1863" y="1729" on="0"/>
        <pt x="1873" y="1694" on="1"/>
        <pt x="1880" y="1672" on="0"/>
        <pt x="1882" y="1602" on="1"/>
        <pt x="1884" y="1541" on="0"/>
        <pt x="1900" y="1511" on="1"/>
        <pt x="1905" y="1502" on="0"/>
        <pt x="1951" y="1474" on="1"/>
        <pt x="1990" y="1452" on="0"/>
      </contour>
      <contour>
        <pt x="4570" y="331" on="1"/>
        <pt x="4570" y="281" on="0"/>
        <pt x="4487" y="136" on="0"/>
        <pt x="4445" y="114" on="1"/>
        <pt x="4413" y="97" on="0"/>
        <pt x="4072" y="52" on="1"/>
        <pt x="3741" y="8" on="0"/>
        <pt x="3674" y="8" on="1"/>
        <pt x="3663" y="8" on="0"/>
        <pt x="3350" y="-12" on="0"/>
        <pt x="3336" y="-12" on="1"/>
        <pt x="2492" y="-73" on="1"/>
        <pt x="2471" y="-73" on="0"/>
        <pt x="2444" y="-56" on="1"/>
        <pt x="2414" y="-53" on="0"/>
        <pt x="2226" y="-53" on="1"/>
        <pt x="2213" y="-53" on="0"/>
        <pt x="2176" y="-37" on="0"/>
        <pt x="2168" y="-36" on="1"/>
        <pt x="2098" y="-27" on="0"/>
        <pt x="2034" y="1" on="1"/>
        <pt x="1977" y="26" on="0"/>
        <pt x="1948" y="93" on="1"/>
        <pt x="1936" y="117" on="0"/>
        <pt x="1915" y="206" on="1"/>
        <pt x="1911" y="211" on="0"/>
        <pt x="1903" y="223" on="1"/>
        <pt x="1873" y="188" on="0"/>
        <pt x="1803" y="134" on="1"/>
        <pt x="1656" y="70" on="0"/>
        <pt x="1575" y="70" on="1"/>
        <pt x="1563" y="70" on="0"/>
        <pt x="1552" y="79" on="0"/>
        <pt x="1540" y="79" on="1"/>
        <pt x="1519" y="79" on="0"/>
        <pt x="1495" y="62" on="1"/>
        <pt x="1447" y="60" on="0"/>
        <pt x="1400" y="57" on="1"/>
        <pt x="1337" y="51" on="0"/>
        <pt x="1293" y="22" on="1"/>
        <pt x="1317" y="-21" on="0"/>
        <pt x="1340" y="-63" on="1"/>
        <pt x="1356" y="-99" on="0"/>
        <pt x="1356" y="-166" on="1"/>
        <pt x="1356" y="-371" on="0"/>
        <pt x="1207" y="-371" on="1"/>
        <pt x="1066" y="-371" on="0"/>
        <pt x="989" y="-172" on="1"/>
        <pt x="983" y="-120" on="0"/>
        <pt x="953" y="-41" on="1"/>
        <pt x="900" y="18" on="0"/>
        <pt x="874" y="18" on="1"/>
        <pt x="862" y="18" on="0"/>
        <pt x="698" y="-2" on="0"/>
        <pt x="685" y="-2" on="1"/>
        <pt x="617" y="-2" on="0"/>
        <pt x="540" y="43" on="1"/>
        <pt x="447" y="97" on="0"/>
        <pt x="437" y="176" on="1"/>
        <pt x="382" y="566" on="0"/>
        <pt x="359" y="924" on="1"/>
        <pt x="357" y="945" on="0"/>
        <pt x="321" y="1068" on="0"/>
        <pt x="321" y="1083" on="1"/>
        <pt x="321" y="1153" on="0"/>
        <pt x="389" y="1206" on="1"/>
        <pt x="437" y="1075" on="0"/>
        <pt x="458" y="852" on="1"/>
        <pt x="475" y="679" on="0"/>
        <pt x="491" y="505" on="1"/>
        <pt x="495" y="437" on="0"/>
        <pt x="499" y="369" on="1"/>
        <pt x="506" y="284" on="0"/>
        <pt x="548" y="231" on="1"/>
        <pt x="589" y="181" on="0"/>
        <pt x="645" y="164" on="1"/>
        <pt x="653" y="161" on="0"/>
        <pt x="741" y="161" on="1"/>
        <pt x="751" y="161" on="0"/>
        <pt x="929" y="174" on="1"/>
        <pt x="944" y="185" on="0"/>
        <pt x="953" y="200" on="1"/>
        <pt x="978" y="285" on="0"/>
        <pt x="1045" y="419" on="1"/>
        <pt x="1148" y="623" on="0"/>
        <pt x="1222" y="623" on="1"/>
        <pt x="1278" y="623" on="0"/>
        <pt x="1304" y="433" on="1"/>
        <pt x="1304" y="257" on="0"/>
        <pt x="1202" y="187" on="1"/>
        <pt x="1216" y="172" on="0"/>
        <pt x="1248" y="172" on="1"/>
        <pt x="1352" y="172" on="0"/>
        <pt x="1828" y="253" on="0"/>
        <pt x="1859" y="276" on="1"/>
        <pt x="1898" y="303" on="0"/>
        <pt x="1898" y="335" on="1"/>
        <pt x="1785" y="1108" on="1"/>
        <pt x="1785" y="1140" on="0"/>
        <pt x="1829" y="1205" on="1"/>
        <pt x="1866" y="1205" on="1"/>
        <pt x="1927" y="836" on="0"/>
        <pt x="1973" y="392" on="1"/>
        <pt x="1975" y="368" on="0"/>
        <pt x="2013" y="240" on="1"/>
        <pt x="2029" y="187" on="0"/>
        <pt x="2069" y="164" on="1"/>
        <pt x="2172" y="106" on="0"/>
        <pt x="2430" y="79" on="1"/>
        <pt x="2441" y="79" on="0"/>
        <pt x="2548" y="70" on="0"/>
        <pt x="2563" y="70" on="1"/>
        <pt x="2575" y="70" on="0"/>
        <pt x="2619" y="90" on="0"/>
        <pt x="2630" y="90" on="1"/>
        <pt x="3639" y="152" on="1"/>
        <pt x="3667" y="152" on="0"/>
        <pt x="3896" y="170" on="1"/>
        <pt x="4151" y="191" on="0"/>
        <pt x="4247" y="205" on="1"/>
        <pt x="4249" y="206" on="0"/>
        <pt x="4322" y="222" on="1"/>
        <pt x="4383" y="236" on="0"/>
        <pt x="4410" y="236" on="1"/>
        <pt x="4424" y="246" on="0"/>
        <pt x="4437" y="260" on="1"/>
        <pt x="4425" y="283" on="0"/>
        <pt x="4414" y="306" on="1"/>
        <pt x="4400" y="333" on="0"/>
        <pt x="4378" y="342" on="1"/>
        <pt x="4288" y="387" on="0"/>
        <pt x="4212" y="387" on="1"/>
        <pt x="3214" y="295" on="1"/>
        <pt x="3060" y="297" on="0"/>
        <pt x="2956" y="291" on="1"/>
        <pt x="2844" y="284" on="0"/>
        <pt x="2865" y="284" on="1"/>
        <pt x="2753" y="284" on="0"/>
        <pt x="2576" y="310" on="1"/>
        <pt x="2362" y="340" on="0"/>
        <pt x="2339" y="378" on="1"/>
        <pt x="2336" y="388" on="0"/>
        <pt x="2336" y="399" on="1"/>
        <pt x="2336" y="458" on="0"/>
        <pt x="2417" y="559" on="1"/>
        <pt x="2454" y="606" on="0"/>
        <pt x="2491" y="654" on="1"/>
        <pt x="2547" y="720" on="0"/>
        <pt x="2597" y="751" on="1"/>
        <pt x="2641" y="783" on="0"/>
        <pt x="2740" y="843" on="1"/>
        <pt x="2840" y="895" on="0"/>
        <pt x="3010" y="965" on="1"/>
        <pt x="3173" y="1032" on="0"/>
        <pt x="3195" y="1031" on="1"/>
        <pt x="3237" y="1031" on="1"/>
        <pt x="3250" y="1018" on="0"/>
        <pt x="3250" y="1001" on="1"/>
        <pt x="3250" y="920" on="0"/>
        <pt x="3113" y="885" on="1"/>
        <pt x="3031" y="864" on="0"/>
        <pt x="2788" y="749" on="1"/>
        <pt x="2471" y="598" on="0"/>
        <pt x="2471" y="515" on="1"/>
        <pt x="2471" y="480" on="0"/>
        <pt x="2571" y="456" on="1"/>
        <pt x="2648" y="438" on="0"/>
        <pt x="2693" y="438" on="1"/>
        <pt x="3387" y="438" on="1"/>
        <pt x="4258" y="520" on="1"/>
        <pt x="4357" y="520" on="0"/>
        <pt x="4451" y="477" on="1"/>
        <pt x="4570" y="423" on="0"/>
      </contour>
      <contour>
        <pt x="1263" y="1488" on="1"/>
        <pt x="1263" y="1438" on="0"/>
        <pt x="1129" y="1352" on="1"/>
        <pt x="1052" y="1308" on="0"/>
        <pt x="974" y="1264" on="1"/>
        <pt x="900" y="1215" on="0"/>
        <pt x="755" y="1135" on="1"/>
        <pt x="741" y="1149" on="0"/>
        <pt x="741" y="1165" on="1"/>
        <pt x="741" y="1221" on="0"/>
        <pt x="967" y="1362" on="1"/>
        <pt x="1164" y="1484" on="0"/>
        <pt x="1250" y="1513" on="1"/>
        <pt x="1263" y="1511" on="0"/>
      </contour>
      <contour>
        <pt x="4661" y="1709" on="1"/>
        <pt x="4661" y="1715" on="0"/>
        <pt x="4650" y="1752" on="0"/>
        <pt x="4650" y="1757" on="1"/>
        <pt x="4612" y="1757" on="1"/>
        <pt x="4628" y="1709" on="0"/>
      </contour>
      <contour>
        <pt x="2624" y="1474" on="1"/>
        <pt x="2624" y="1511" on="1"/>
        <pt x="2576" y="1523" on="1"/>
        <pt x="2565" y="1484" on="1"/>
        <pt x="2567" y="1484" on="0"/>
        <pt x="2606" y="1474" on="0"/>
      </contour>
      <contour>
        <pt x="1814" y="1556" on="1"/>
        <pt x="1814" y="1593" on="1"/>
        <pt x="1768" y="1605" on="1"/>
        <pt x="1758" y="1586" on="0"/>
        <pt x="1766" y="1569" on="1"/>
        <pt x="1820" y="1556" on="0"/>
      </contour>
      <contour>
        <pt x="1222" y="377" on="1"/>
        <pt x="1222" y="401" on="0"/>
        <pt x="1186" y="443" on="1"/>
        <pt x="1180" y="446" on="0"/>
        <pt x="1164" y="448" on="1"/>
        <pt x="1154" y="428" on="0"/>
        <pt x="1094" y="351" on="1"/>
        <pt x="1044" y="289" on="0"/>
        <pt x="1044" y="252" on="1"/>
        <pt x="1044" y="237" on="0"/>
        <pt x="1052" y="224" on="1"/>
        <pt x="1105" y="243" on="0"/>
        <pt x="1158" y="286" on="1"/>
        <pt x="1222" y="337" on="0"/>
      </contour>
      <contour>
        <pt x="1274" y="-166" on="1"/>
        <pt x="1274" y="-157" on="0"/>
        <pt x="1258" y="-116" on="1"/>
        <pt x="1129" y="-32" on="0"/>
        <pt x="1093" y="-32" on="1"/>
        <pt x="1062" y="-32" on="1"/>
        <pt x="1060" y="-34" on="0"/>
        <pt x="1059" y="-35" on="1"/>
        <pt x="1048" y="-44" on="0"/>
        <pt x="1048" y="-58" on="1"/>
        <pt x="1048" y="-96" on="0"/>
        <pt x="1102" y="-149" on="1"/>
        <pt x="1160" y="-207" on="0"/>
        <pt x="1217" y="-207" on="1"/>
        <pt x="1274" y="-207" on="0"/>
      </contour>
    </TTGlyph>
    <TTGlyph name="uniE000" xMin="0" yMin="0" xMax="1495" yMax="1495">
      <contour>
        <pt x="0" y="1495" on="1"/>
        <pt x="1495" y="1495" on="1"/>
        <pt x="1495" y="0" on="1"/>
        <pt x="0" y="0" on="1"/>
      </contour>
    </TTGlyph>
    <TTGlyph name="uniFB51" xMin="710" yMin="-342" xMax="2174" yMax="1418">
      <contour>
        <pt x="2174" y="574" on="1"/>
        <pt x="2103" y="498" on="0"/>
        <pt x="1950" y="357" on="1"/>
        <pt x="1954" y="271" on="0"/>
        <pt x="1979" y="82" on="1"/>
        <pt x="1966" y="57" on="1"/>
        <pt x="1791" y="53" on="0"/>
        <pt x="1669" y="79" on="1"/>
        <pt x="1602" y="-65" on="0"/>
        <pt x="1483" y="-342" on="1"/>
        <pt x="1438" y="-286" on="0"/>
        <pt x="1373" y="-148" on="1"/>
        <pt x="1292" y="24" on="0"/>
        <pt x="1265" y="68" on="1"/>
        <pt x="1174" y="53" on="0"/>
        <pt x="959" y="16" on="1"/>
        <pt x="939" y="42" on="0"/>
        <pt x="939" y="106" on="1"/>
        <pt x="939" y="158" on="0"/>
        <pt x="966" y="319" on="0"/>
        <pt x="966" y="318" on="1"/>
        <pt x="966" y="334" on="0"/>
        <pt x="831" y="457" on="0"/>
        <pt x="773" y="495" on="1"/>
        <pt x="752" y="503" on="0"/>
        <pt x="710" y="522" on="1"/>
        <pt x="864" y="679" on="0"/>
        <pt x="952" y="750" on="1"/>
        <pt x="949" y="843" on="0"/>
        <pt x="925" y="1028" on="1"/>
        <pt x="958" y="1028" on="0"/>
        <pt x="1102" y="1040" on="0"/>
        <pt x="1109" y="1040" on="1"/>
        <pt x="1120" y="1040" on="0"/>
        <pt x="1219" y="1020" on="0"/>
        <pt x="1232" y="1020" on="1"/>
        <pt x="1261" y="1020" on="0"/>
        <pt x="1324" y="1175" on="1"/>
        <pt x="1405" y="1377" on="0"/>
        <pt x="1429" y="1418" on="1"/>
        <pt x="1449" y="1418" on="0"/>
        <pt x="1463" y="1396" on="1"/>
        <pt x="1465" y="1391" on="0"/>
        <pt x="1649" y="1029" on="1"/>
        <pt x="1751" y="1033" on="0"/>
        <pt x="1772" y="1035" on="1"/>
        <pt x="1855" y="1042" on="0"/>
        <pt x="1901" y="1059" on="1"/>
        <pt x="1937" y="1059" on="1"/>
        <pt x="1934" y="816" on="0"/>
        <pt x="1940" y="769" on="1"/>
        <pt x="1943" y="755" on="0"/>
        <pt x="1968" y="741" on="1"/>
        <pt x="1988" y="729" on="0"/>
        <pt x="2008" y="718" on="1"/>
        <pt x="2027" y="691" on="0"/>
        <pt x="2062" y="650" on="1"/>
        <pt x="2098" y="628" on="0"/>
      </contour>
      <contour>
        <pt x="1877" y="881" on="1"/>
        <pt x="1877" y="922" on="0"/>
        <pt x="1854" y="967" on="1"/>
        <pt x="1838" y="967" on="0"/>
        <pt x="1777" y="979" on="0"/>
        <pt x="1764" y="979" on="1"/>
        <pt x="1725" y="979" on="0"/>
        <pt x="1673" y="952" on="1"/>
        <pt x="1611" y="920" on="0"/>
        <pt x="1612" y="880" on="1"/>
        <pt x="1612" y="846" on="1"/>
        <pt x="1712" y="907" on="0"/>
        <pt x="1744" y="907" on="1"/>
        <pt x="1805" y="907" on="0"/>
        <pt x="1805" y="866" on="1"/>
        <pt x="1805" y="804" on="0"/>
        <pt x="1744" y="724" on="1"/>
        <pt x="1780" y="724" on="1"/>
        <pt x="1822" y="727" on="0"/>
        <pt x="1852" y="788" on="1"/>
        <pt x="1877" y="840" on="0"/>
      </contour>
      <contour>
        <pt x="1569" y="973" on="1"/>
        <pt x="1569" y="1032" on="0"/>
        <pt x="1512" y="1130" on="1"/>
        <pt x="1478" y="1188" on="0"/>
        <pt x="1442" y="1245" on="1"/>
        <pt x="1410" y="1204" on="0"/>
        <pt x="1358" y="1119" on="1"/>
        <pt x="1314" y="1017" on="0"/>
        <pt x="1314" y="968" on="1"/>
        <pt x="1314" y="926" on="0"/>
        <pt x="1361" y="856" on="1"/>
        <pt x="1356" y="992" on="0"/>
        <pt x="1451" y="1061" on="1"/>
        <pt x="1487" y="1004" on="0"/>
        <pt x="1538" y="897" on="1"/>
        <pt x="1569" y="934" on="0"/>
      </contour>
      <contour>
        <pt x="2031" y="564" on="1"/>
        <pt x="2031" y="587" on="0"/>
        <pt x="1976" y="638" on="1"/>
        <pt x="1920" y="692" on="0"/>
        <pt x="1882" y="692" on="1"/>
        <pt x="1844" y="692" on="0"/>
        <pt x="1795" y="644" on="1"/>
        <pt x="1818" y="647" on="0"/>
        <pt x="1868" y="623" on="1"/>
        <pt x="1928" y="596" on="0"/>
        <pt x="1928" y="559" on="1"/>
        <pt x="1928" y="538" on="0"/>
        <pt x="1885" y="497" on="0"/>
        <pt x="1867" y="497" on="1"/>
        <pt x="1856" y="497" on="0"/>
        <pt x="1819" y="506" on="0"/>
        <pt x="1796" y="506" on="1"/>
        <pt x="1796" y="501" on="0"/>
        <pt x="1785" y="476" on="0"/>
        <pt x="1785" y="470" on="1"/>
        <pt x="1811" y="426" on="0"/>
        <pt x="1882" y="426" on="1"/>
        <pt x="1927" y="426" on="0"/>
        <pt x="1976" y="469" on="1"/>
        <pt x="2031" y="515" on="0"/>
      </contour>
      <contour>
        <pt x="1877" y="161" on="1"/>
        <pt x="1875" y="174" on="0"/>
        <pt x="1875" y="189" on="1"/>
        <pt x="1875" y="202" on="0"/>
        <pt x="1877" y="249" on="0"/>
        <pt x="1877" y="261" on="1"/>
        <pt x="1877" y="348" on="0"/>
        <pt x="1791" y="394" on="1"/>
        <pt x="1754" y="394" on="1"/>
        <pt x="1815" y="279" on="0"/>
        <pt x="1815" y="247" on="1"/>
        <pt x="1815" y="201" on="0"/>
        <pt x="1759" y="201" on="1"/>
        <pt x="1698" y="201" on="0"/>
        <pt x="1637" y="262" on="1"/>
        <pt x="1627" y="252" on="0"/>
        <pt x="1621" y="237" on="1"/>
        <pt x="1654" y="129" on="0"/>
        <pt x="1759" y="129" on="1"/>
        <pt x="1826" y="129" on="0"/>
      </contour>
      <contour>
        <pt x="1682" y="528" on="1"/>
        <pt x="1682" y="621" on="0"/>
        <pt x="1629" y="690" on="1"/>
        <pt x="1564" y="774" on="0"/>
        <pt x="1446" y="774" on="1"/>
        <pt x="1357" y="774" on="0"/>
        <pt x="1296" y="714" on="1"/>
        <pt x="1232" y="652" on="0"/>
        <pt x="1232" y="554" on="1"/>
        <pt x="1232" y="413" on="0"/>
        <pt x="1378" y="341" on="1"/>
        <pt x="1433" y="313" on="0"/>
        <pt x="1442" y="313" on="1"/>
        <pt x="1538" y="313" on="0"/>
        <pt x="1647" y="418" on="1"/>
        <pt x="1649" y="428" on="0"/>
        <pt x="1654" y="449" on="1"/>
        <pt x="1682" y="491" on="0"/>
      </contour>
      <contour>
        <pt x="1292" y="822" on="1"/>
        <pt x="1269" y="968" on="0"/>
        <pt x="1120" y="968" on="1"/>
        <pt x="1024" y="968" on="0"/>
        <pt x="1007" y="935" on="1"/>
        <pt x="1007" y="758" on="0"/>
        <pt x="1061" y="726" on="1"/>
        <pt x="1100" y="703" on="0"/>
        <pt x="1116" y="704" on="1"/>
        <pt x="1160" y="704" on="1"/>
        <pt x="1099" y="782" on="0"/>
        <pt x="1099" y="836" on="1"/>
        <pt x="1099" y="868" on="0"/>
        <pt x="1099" y="869" on="1"/>
        <pt x="1106" y="886" on="0"/>
        <pt x="1150" y="886" on="1"/>
        <pt x="1201" y="886" on="0"/>
        <pt x="1234" y="863" on="1"/>
        <pt x="1253" y="844" on="0"/>
      </contour>
      <contour>
        <pt x="1129" y="456" on="1"/>
        <pt x="1084" y="467" on="0"/>
        <pt x="1038" y="478" on="1"/>
        <pt x="976" y="494" on="0"/>
        <pt x="976" y="543" on="1"/>
        <pt x="976" y="581" on="0"/>
        <pt x="1037" y="603" on="1"/>
        <pt x="1084" y="617" on="0"/>
        <pt x="1129" y="630" on="1"/>
        <pt x="1047" y="682" on="0"/>
        <pt x="1011" y="682" on="1"/>
        <pt x="971" y="682" on="0"/>
        <pt x="863" y="581" on="0"/>
        <pt x="863" y="543" on="1"/>
        <pt x="863" y="517" on="0"/>
        <pt x="917" y="463" on="1"/>
        <pt x="975" y="406" on="0"/>
        <pt x="1017" y="406" on="1"/>
        <pt x="1034" y="406" on="0"/>
      </contour>
      <contour>
        <pt x="1590" y="124" on="1"/>
        <pt x="1590" y="137" on="0"/>
        <pt x="1553" y="211" on="1"/>
        <pt x="1554" y="177" on="0"/>
        <pt x="1523" y="112" on="1"/>
        <pt x="1492" y="45" on="0"/>
        <pt x="1463" y="26" on="1"/>
        <pt x="1401" y="88" on="0"/>
        <pt x="1386" y="152" on="1"/>
        <pt x="1384" y="157" on="0"/>
        <pt x="1385" y="193" on="1"/>
        <pt x="1386" y="215" on="0"/>
        <pt x="1370" y="231" on="1"/>
        <pt x="1324" y="185" on="0"/>
        <pt x="1324" y="149" on="1"/>
        <pt x="1324" y="99" on="0"/>
        <pt x="1374" y="8" on="1"/>
        <pt x="1444" y="-116" on="0"/>
        <pt x="1451" y="-133" on="1"/>
        <pt x="1491" y="-146" on="0"/>
        <pt x="1486" y="-146" on="1"/>
        <pt x="1590" y="88" on="0"/>
      </contour>
      <contour>
        <pt x="1303" y="237" on="1"/>
        <pt x="1303" y="251" on="0"/>
        <pt x="1291" y="269" on="0"/>
        <pt x="1291" y="271" on="1"/>
        <pt x="1172" y="201" on="0"/>
        <pt x="1129" y="201" on="1"/>
        <pt x="1116" y="201" on="0"/>
        <pt x="1098" y="218" on="1"/>
        <pt x="1098" y="279" on="1"/>
        <pt x="1099" y="308" on="0"/>
        <pt x="1170" y="383" on="1"/>
        <pt x="1134" y="383" on="1"/>
        <pt x="1053" y="347" on="0"/>
        <pt x="1034" y="324" on="1"/>
        <pt x="1007" y="294" on="0"/>
        <pt x="1007" y="221" on="1"/>
        <pt x="1007" y="108" on="0"/>
        <pt x="1104" y="108" on="1"/>
        <pt x="1180" y="108" on="0"/>
        <pt x="1239" y="143" on="1"/>
        <pt x="1303" y="179" on="0"/>
      </contour>
      <contour>
        <pt x="1560" y="549" on="1"/>
        <pt x="1560" y="507" on="0"/>
        <pt x="1521" y="469" on="1"/>
        <pt x="1487" y="436" on="0"/>
        <pt x="1457" y="436" on="1"/>
        <pt x="1415" y="436" on="0"/>
        <pt x="1344" y="503" on="0"/>
        <pt x="1344" y="543" on="1"/>
        <pt x="1344" y="586" on="0"/>
        <pt x="1371" y="617" on="1"/>
        <pt x="1400" y="651" on="0"/>
        <pt x="1446" y="651" on="1"/>
        <pt x="1501" y="651" on="0"/>
        <pt x="1533" y="613" on="1"/>
        <pt x="1560" y="582" on="0"/>
      </contour>
    </TTGlyph>
    <TTGlyph name="uniFB52" xMin="258" yMin="-379" xMax="2480" yMax="1689">
      <contour>
        <pt x="2480" y="1500" on="1"/>
        <pt x="2480" y="1457" on="0"/>
        <pt x="2441" y="1426" on="1"/>
        <pt x="2393" y="1396" on="0"/>
        <pt x="2345" y="1365" on="1"/>
        <pt x="2275" y="1320" on="0"/>
        <pt x="2160" y="1266" on="1"/>
        <pt x="2066" y="1221" on="0"/>
        <pt x="1971" y="1177" on="1"/>
        <pt x="1957" y="1179" on="0"/>
        <pt x="1957" y="1203" on="1"/>
        <pt x="1957" y="1257" on="0"/>
        <pt x="1991" y="1279" on="1"/>
        <pt x="2099" y="1348" on="0"/>
        <pt x="2432" y="1525" on="1"/>
        <pt x="2467" y="1525" on="1"/>
        <pt x="2480" y="1524" on="0"/>
      </contour>
      <contour>
        <pt x="2439" y="1095" on="1"/>
        <pt x="2439" y="1009" on="0"/>
        <pt x="2393" y="976" on="1"/>
        <pt x="2374" y="963" on="0"/>
        <pt x="2281" y="938" on="1"/>
        <pt x="2272" y="936" on="0"/>
        <pt x="2235" y="917" on="1"/>
        <pt x="2204" y="901" on="0"/>
        <pt x="2182" y="901" on="1"/>
        <pt x="2100" y="901" on="0"/>
        <pt x="2100" y="977" on="1"/>
        <pt x="2100" y="1011" on="0"/>
        <pt x="2145" y="1074" on="1"/>
        <pt x="2181" y="1074" on="1"/>
        <pt x="2181" y="1053" on="0"/>
        <pt x="2162" y="1019" on="1"/>
        <pt x="2188" y="993" on="0"/>
        <pt x="2209" y="993" on="1"/>
        <pt x="2235" y="993" on="0"/>
        <pt x="2257" y="1044" on="1"/>
        <pt x="2286" y="1111" on="0"/>
        <pt x="2301" y="1126" on="1"/>
        <pt x="2312" y="1099" on="0"/>
        <pt x="2351" y="1044" on="1"/>
        <pt x="2372" y="1085" on="0"/>
        <pt x="2424" y="1157" on="1"/>
        <pt x="2439" y="1128" on="0"/>
      </contour>
      <contour>
        <pt x="1793" y="1516" on="1"/>
        <pt x="1793" y="1473" on="0"/>
        <pt x="1675" y="1397" on="1"/>
        <pt x="1615" y="1362" on="0"/>
        <pt x="1556" y="1328" on="1"/>
        <pt x="1456" y="1267" on="0"/>
        <pt x="1275" y="1167" on="1"/>
        <pt x="1262" y="1182" on="0"/>
        <pt x="1262" y="1203" on="1"/>
        <pt x="1262" y="1253" on="0"/>
        <pt x="1329" y="1296" on="1"/>
        <pt x="1393" y="1334" on="0"/>
        <pt x="1458" y="1373" on="1"/>
        <pt x="1556" y="1445" on="0"/>
        <pt x="1779" y="1556" on="1"/>
        <pt x="1793" y="1542" on="0"/>
      </contour>
      <contour>
        <pt x="1629" y="895" on="1"/>
        <pt x="1629" y="862" on="0"/>
        <pt x="1609" y="831" on="1"/>
        <pt x="1585" y="799" on="0"/>
        <pt x="1553" y="799" on="1"/>
        <pt x="1529" y="799" on="0"/>
        <pt x="1489" y="829" on="1"/>
        <pt x="1446" y="863" on="0"/>
        <pt x="1446" y="895" on="1"/>
        <pt x="1446" y="914" on="0"/>
        <pt x="1517" y="993" on="0"/>
        <pt x="1543" y="993" on="1"/>
        <pt x="1574" y="993" on="0"/>
        <pt x="1603" y="952" on="1"/>
        <pt x="1629" y="917" on="0"/>
      </contour>
      <contour>
        <pt x="1793" y="722" on="1"/>
        <pt x="1793" y="703" on="0"/>
        <pt x="1727" y="624" on="0"/>
        <pt x="1706" y="624" on="1"/>
        <pt x="1691" y="624" on="0"/>
        <pt x="1656" y="653" on="1"/>
        <pt x="1610" y="688" on="0"/>
        <pt x="1595" y="696" on="1"/>
        <pt x="1502" y="604" on="0"/>
        <pt x="1481" y="604" on="1"/>
        <pt x="1436" y="604" on="0"/>
        <pt x="1364" y="701" on="1"/>
        <pt x="1378" y="727" on="0"/>
        <pt x="1411" y="759" on="1"/>
        <pt x="1451" y="799" on="0"/>
        <pt x="1471" y="799" on="1"/>
        <pt x="1484" y="799" on="0"/>
        <pt x="1565" y="747" on="0"/>
        <pt x="1579" y="747" on="1"/>
        <pt x="1592" y="747" on="0"/>
        <pt x="1674" y="829" on="0"/>
        <pt x="1686" y="829" on="1"/>
        <pt x="1722" y="829" on="0"/>
        <pt x="1760" y="782" on="1"/>
        <pt x="1793" y="741" on="0"/>
      </contour>
      <contour>
        <pt x="1057" y="1346" on="1"/>
        <pt x="1057" y="1327" on="0"/>
        <pt x="1026" y="1280" on="0"/>
        <pt x="1010" y="1280" on="1"/>
        <pt x="998" y="1280" on="0"/>
        <pt x="900" y="1331" on="0"/>
        <pt x="887" y="1331" on="1"/>
        <pt x="876" y="1331" on="0"/>
        <pt x="850" y="1293" on="1"/>
        <pt x="819" y="1247" on="0"/>
        <pt x="799" y="1232" on="1"/>
        <pt x="584" y="1075" on="0"/>
        <pt x="509" y="1075" on="1"/>
        <pt x="477" y="1075" on="0"/>
        <pt x="463" y="1090" on="1"/>
        <pt x="473" y="1116" on="0"/>
        <pt x="507" y="1153" on="1"/>
        <pt x="664" y="1219" on="0"/>
        <pt x="800" y="1357" on="1"/>
        <pt x="792" y="1365" on="0"/>
        <pt x="727" y="1408" on="1"/>
        <pt x="688" y="1434" on="0"/>
        <pt x="688" y="1475" on="1"/>
        <pt x="688" y="1532" on="0"/>
        <pt x="751" y="1612" on="1"/>
        <pt x="813" y="1689" on="0"/>
        <pt x="852" y="1689" on="1"/>
        <pt x="897" y="1689" on="0"/>
        <pt x="911" y="1596" on="1"/>
        <pt x="917" y="1538" on="0"/>
        <pt x="925" y="1482" on="1"/>
        <pt x="942" y="1454" on="0"/>
        <pt x="1003" y="1403" on="1"/>
        <pt x="1057" y="1359" on="0"/>
      </contour>
      <contour>
        <pt x="2449" y="261" on="1"/>
        <pt x="2449" y="238" on="0"/>
        <pt x="2395" y="102" on="1"/>
        <pt x="2240" y="102" on="1"/>
        <pt x="2227" y="102" on="0"/>
        <pt x="2123" y="164" on="0"/>
        <pt x="2111" y="164" on="1"/>
        <pt x="2091" y="164" on="0"/>
        <pt x="2034" y="94" on="1"/>
        <pt x="2005" y="57" on="0"/>
        <pt x="1932" y="31" on="1"/>
        <pt x="1874" y="10" on="0"/>
        <pt x="1840" y="10" on="1"/>
        <pt x="1828" y="10" on="0"/>
        <pt x="1662" y="123" on="0"/>
        <pt x="1650" y="123" on="1"/>
        <pt x="1641" y="123" on="0"/>
        <pt x="1589" y="79" on="1"/>
        <pt x="1533" y="33" on="0"/>
        <pt x="1503" y="23" on="1"/>
        <pt x="1401" y="-10" on="0"/>
        <pt x="1276" y="-10" on="1"/>
        <pt x="1216" y="-10" on="0"/>
        <pt x="1136" y="31" on="1"/>
        <pt x="1085" y="61" on="0"/>
        <pt x="1032" y="93" on="1"/>
        <pt x="1021" y="72" on="0"/>
        <pt x="1032" y="16" on="1"/>
        <pt x="1039" y="-18" on="0"/>
        <pt x="1039" y="-50" on="1"/>
        <pt x="1039" y="-211" on="0"/>
        <pt x="874" y="-303" on="1"/>
        <pt x="739" y="-379" on="0"/>
        <pt x="570" y="-379" on="1"/>
        <pt x="444" y="-379" on="0"/>
        <pt x="352" y="-301" on="1"/>
        <pt x="258" y="-221" on="0"/>
        <pt x="258" y="-102" on="1"/>
        <pt x="258" y="-45" on="0"/>
        <pt x="306" y="48" on="1"/>
        <pt x="333" y="100" on="0"/>
        <pt x="335" y="104" on="1"/>
        <pt x="354" y="134" on="0"/>
        <pt x="374" y="139" on="1"/>
        <pt x="381" y="141" on="0"/>
        <pt x="398" y="153" on="1"/>
        <pt x="400" y="109" on="0"/>
        <pt x="350" y="15" on="0"/>
        <pt x="350" y="5" on="1"/>
        <pt x="350" y="-103" on="0"/>
        <pt x="440" y="-168" on="1"/>
        <pt x="518" y="-225" on="0"/>
        <pt x="616" y="-225" on="1"/>
        <pt x="723" y="-225" on="0"/>
        <pt x="827" y="-186" on="1"/>
        <pt x="964" y="-135" on="0"/>
        <pt x="964" y="-45" on="1"/>
        <pt x="841" y="947" on="1"/>
        <pt x="841" y="1044" on="0"/>
        <pt x="899" y="1095" on="1"/>
        <pt x="931" y="1040" on="0"/>
        <pt x="959" y="868" on="1"/>
        <pt x="1005" y="596" on="0"/>
        <pt x="1012" y="569" on="1"/>
        <pt x="1062" y="345" on="0"/>
        <pt x="1099" y="276" on="1"/>
        <pt x="1167" y="153" on="0"/>
        <pt x="1312" y="153" on="1"/>
        <pt x="1484" y="153" on="0"/>
        <pt x="1551" y="186" on="1"/>
        <pt x="1584" y="203" on="0"/>
        <pt x="1620" y="252" on="1"/>
        <pt x="1666" y="318" on="0"/>
        <pt x="1675" y="328" on="1"/>
        <pt x="1699" y="308" on="0"/>
        <pt x="1699" y="265" on="1"/>
        <pt x="1699" y="197" on="0"/>
        <pt x="1700" y="193" on="1"/>
        <pt x="1735" y="193" on="0"/>
        <pt x="1893" y="174" on="0"/>
        <pt x="1901" y="174" on="1"/>
        <pt x="1964" y="174" on="0"/>
        <pt x="1971" y="176" on="1"/>
        <pt x="2017" y="193" on="0"/>
        <pt x="2068" y="254" on="1"/>
        <pt x="2115" y="317" on="0"/>
        <pt x="2162" y="380" on="1"/>
        <pt x="2263" y="501" on="0"/>
        <pt x="2311" y="501" on="1"/>
        <pt x="2354" y="501" on="0"/>
        <pt x="2405" y="387" on="1"/>
        <pt x="2449" y="288" on="0"/>
      </contour>
      <contour>
        <pt x="2304" y="267" on="1"/>
        <pt x="2304" y="314" on="1"/>
        <pt x="2273" y="347" on="0"/>
        <pt x="2258" y="347" on="1"/>
        <pt x="2213" y="304" on="0"/>
        <pt x="2213" y="290" on="1"/>
        <pt x="2225" y="283" on="0"/>
        <pt x="2247" y="267" on="1"/>
      </contour>
      <contour>
        <pt x="840" y="1506" on="1"/>
        <pt x="840" y="1511" on="0"/>
        <pt x="830" y="1549" on="0"/>
        <pt x="830" y="1555" on="1"/>
        <pt x="815" y="1555" on="0"/>
        <pt x="781" y="1525" on="0"/>
        <pt x="781" y="1517" on="1"/>
      </contour>
    </TTGlyph>
</ttFont>
